%TF.GenerationSoftware,KiCad,Pcbnew,6.0.2+dfsg-1*%
%TF.CreationDate,2022-11-10T09:56:40+01:00*%
%TF.ProjectId,DL,444c2e6b-6963-4616-945f-706362585858,rev?*%
%TF.SameCoordinates,Original*%
%TF.FileFunction,Legend,Top*%
%TF.FilePolarity,Positive*%
%FSLAX46Y46*%
G04 Gerber Fmt 4.6, Leading zero omitted, Abs format (unit mm)*
G04 Created by KiCad (PCBNEW 6.0.2+dfsg-1) date 2022-11-10 09:56:40*
%MOMM*%
%LPD*%
G01*
G04 APERTURE LIST*
%ADD10C,0.150000*%
%ADD11C,0.254000*%
%ADD12C,0.120000*%
%ADD13C,0.200000*%
%ADD14C,0.100000*%
%ADD15C,0.127000*%
%ADD16C,0.250000*%
%ADD17R,1.560000X1.560000*%
%ADD18C,1.560000*%
G04 APERTURE END LIST*
D10*
%TO.C,R17*%
X74303142Y-85542380D02*
X73969809Y-85066190D01*
X73731714Y-85542380D02*
X73731714Y-84542380D01*
X74112666Y-84542380D01*
X74207904Y-84590000D01*
X74255523Y-84637619D01*
X74303142Y-84732857D01*
X74303142Y-84875714D01*
X74255523Y-84970952D01*
X74207904Y-85018571D01*
X74112666Y-85066190D01*
X73731714Y-85066190D01*
X75255523Y-85542380D02*
X74684095Y-85542380D01*
X74969809Y-85542380D02*
X74969809Y-84542380D01*
X74874571Y-84685238D01*
X74779333Y-84780476D01*
X74684095Y-84828095D01*
X75588857Y-84542380D02*
X76255523Y-84542380D01*
X75826952Y-85542380D01*
%TO.C,J4*%
X83502666Y-89412380D02*
X83502666Y-90126666D01*
X83455047Y-90269523D01*
X83359809Y-90364761D01*
X83216952Y-90412380D01*
X83121714Y-90412380D01*
X84407428Y-89745714D02*
X84407428Y-90412380D01*
X84169333Y-89364761D02*
X83931238Y-90079047D01*
X84550285Y-90079047D01*
%TO.C,J2*%
X75358666Y-133774380D02*
X75358666Y-134488666D01*
X75311047Y-134631523D01*
X75215809Y-134726761D01*
X75072952Y-134774380D01*
X74977714Y-134774380D01*
X75787238Y-133869619D02*
X75834857Y-133822000D01*
X75930095Y-133774380D01*
X76168190Y-133774380D01*
X76263428Y-133822000D01*
X76311047Y-133869619D01*
X76358666Y-133964857D01*
X76358666Y-134060095D01*
X76311047Y-134202952D01*
X75739619Y-134774380D01*
X76358666Y-134774380D01*
%TO.C,R14*%
X25852380Y-66236357D02*
X25376190Y-66569690D01*
X25852380Y-66807785D02*
X24852380Y-66807785D01*
X24852380Y-66426833D01*
X24900000Y-66331595D01*
X24947619Y-66283976D01*
X25042857Y-66236357D01*
X25185714Y-66236357D01*
X25280952Y-66283976D01*
X25328571Y-66331595D01*
X25376190Y-66426833D01*
X25376190Y-66807785D01*
X25852380Y-65283976D02*
X25852380Y-65855404D01*
X25852380Y-65569690D02*
X24852380Y-65569690D01*
X24995238Y-65664928D01*
X25090476Y-65760166D01*
X25138095Y-65855404D01*
X25185714Y-64426833D02*
X25852380Y-64426833D01*
X24804761Y-64664928D02*
X25519047Y-64903023D01*
X25519047Y-64283976D01*
%TO.C,J7*%
X83486666Y-58600380D02*
X83486666Y-59314666D01*
X83439047Y-59457523D01*
X83343809Y-59552761D01*
X83200952Y-59600380D01*
X83105714Y-59600380D01*
X83867619Y-58600380D02*
X84534285Y-58600380D01*
X84105714Y-59600380D01*
%TO.C,R6*%
X75636380Y-42330666D02*
X75160190Y-42664000D01*
X75636380Y-42902095D02*
X74636380Y-42902095D01*
X74636380Y-42521142D01*
X74684000Y-42425904D01*
X74731619Y-42378285D01*
X74826857Y-42330666D01*
X74969714Y-42330666D01*
X75064952Y-42378285D01*
X75112571Y-42425904D01*
X75160190Y-42521142D01*
X75160190Y-42902095D01*
X74636380Y-41473523D02*
X74636380Y-41664000D01*
X74684000Y-41759238D01*
X74731619Y-41806857D01*
X74874476Y-41902095D01*
X75064952Y-41949714D01*
X75445904Y-41949714D01*
X75541142Y-41902095D01*
X75588761Y-41854476D01*
X75636380Y-41759238D01*
X75636380Y-41568761D01*
X75588761Y-41473523D01*
X75541142Y-41425904D01*
X75445904Y-41378285D01*
X75207809Y-41378285D01*
X75112571Y-41425904D01*
X75064952Y-41473523D01*
X75017333Y-41568761D01*
X75017333Y-41759238D01*
X75064952Y-41854476D01*
X75112571Y-41902095D01*
X75207809Y-41949714D01*
D11*
%TO.C,IC3*%
X53578238Y-144592523D02*
X53578238Y-143322523D01*
X54908714Y-144471571D02*
X54848238Y-144532047D01*
X54666809Y-144592523D01*
X54545857Y-144592523D01*
X54364428Y-144532047D01*
X54243476Y-144411095D01*
X54183000Y-144290142D01*
X54122523Y-144048238D01*
X54122523Y-143866809D01*
X54183000Y-143624904D01*
X54243476Y-143503952D01*
X54364428Y-143383000D01*
X54545857Y-143322523D01*
X54666809Y-143322523D01*
X54848238Y-143383000D01*
X54908714Y-143443476D01*
X55332047Y-143322523D02*
X56118238Y-143322523D01*
X55694904Y-143806333D01*
X55876333Y-143806333D01*
X55997285Y-143866809D01*
X56057761Y-143927285D01*
X56118238Y-144048238D01*
X56118238Y-144350619D01*
X56057761Y-144471571D01*
X55997285Y-144532047D01*
X55876333Y-144592523D01*
X55513476Y-144592523D01*
X55392523Y-144532047D01*
X55332047Y-144471571D01*
D10*
%TO.C,R12*%
X36012380Y-66236357D02*
X35536190Y-66569690D01*
X36012380Y-66807785D02*
X35012380Y-66807785D01*
X35012380Y-66426833D01*
X35060000Y-66331595D01*
X35107619Y-66283976D01*
X35202857Y-66236357D01*
X35345714Y-66236357D01*
X35440952Y-66283976D01*
X35488571Y-66331595D01*
X35536190Y-66426833D01*
X35536190Y-66807785D01*
X36012380Y-65283976D02*
X36012380Y-65855404D01*
X36012380Y-65569690D02*
X35012380Y-65569690D01*
X35155238Y-65664928D01*
X35250476Y-65760166D01*
X35298095Y-65855404D01*
X35107619Y-64903023D02*
X35060000Y-64855404D01*
X35012380Y-64760166D01*
X35012380Y-64522071D01*
X35060000Y-64426833D01*
X35107619Y-64379214D01*
X35202857Y-64331595D01*
X35298095Y-64331595D01*
X35440952Y-64379214D01*
X36012380Y-64950642D01*
X36012380Y-64331595D01*
%TO.C,R4*%
X72477333Y-75000380D02*
X72144000Y-74524190D01*
X71905904Y-75000380D02*
X71905904Y-74000380D01*
X72286857Y-74000380D01*
X72382095Y-74048000D01*
X72429714Y-74095619D01*
X72477333Y-74190857D01*
X72477333Y-74333714D01*
X72429714Y-74428952D01*
X72382095Y-74476571D01*
X72286857Y-74524190D01*
X71905904Y-74524190D01*
X73334476Y-74333714D02*
X73334476Y-75000380D01*
X73096380Y-73952761D02*
X72858285Y-74667047D01*
X73477333Y-74667047D01*
%TO.C,Q1*%
X78898761Y-74228619D02*
X78803523Y-74181000D01*
X78708285Y-74085761D01*
X78565428Y-73942904D01*
X78470190Y-73895285D01*
X78374952Y-73895285D01*
X78422571Y-74133380D02*
X78327333Y-74085761D01*
X78232095Y-73990523D01*
X78184476Y-73800047D01*
X78184476Y-73466714D01*
X78232095Y-73276238D01*
X78327333Y-73181000D01*
X78422571Y-73133380D01*
X78613047Y-73133380D01*
X78708285Y-73181000D01*
X78803523Y-73276238D01*
X78851142Y-73466714D01*
X78851142Y-73800047D01*
X78803523Y-73990523D01*
X78708285Y-74085761D01*
X78613047Y-74133380D01*
X78422571Y-74133380D01*
X79803523Y-74133380D02*
X79232095Y-74133380D01*
X79517809Y-74133380D02*
X79517809Y-73133380D01*
X79422571Y-73276238D01*
X79327333Y-73371476D01*
X79232095Y-73419095D01*
%TO.C,PS1*%
X80065714Y-25344380D02*
X80065714Y-24344380D01*
X80446666Y-24344380D01*
X80541904Y-24392000D01*
X80589523Y-24439619D01*
X80637142Y-24534857D01*
X80637142Y-24677714D01*
X80589523Y-24772952D01*
X80541904Y-24820571D01*
X80446666Y-24868190D01*
X80065714Y-24868190D01*
X81018095Y-25296761D02*
X81160952Y-25344380D01*
X81399047Y-25344380D01*
X81494285Y-25296761D01*
X81541904Y-25249142D01*
X81589523Y-25153904D01*
X81589523Y-25058666D01*
X81541904Y-24963428D01*
X81494285Y-24915809D01*
X81399047Y-24868190D01*
X81208571Y-24820571D01*
X81113333Y-24772952D01*
X81065714Y-24725333D01*
X81018095Y-24630095D01*
X81018095Y-24534857D01*
X81065714Y-24439619D01*
X81113333Y-24392000D01*
X81208571Y-24344380D01*
X81446666Y-24344380D01*
X81589523Y-24392000D01*
X82541904Y-25344380D02*
X81970476Y-25344380D01*
X82256190Y-25344380D02*
X82256190Y-24344380D01*
X82160952Y-24487238D01*
X82065714Y-24582476D01*
X81970476Y-24630095D01*
%TO.C,Q2*%
X79033619Y-53689238D02*
X78986000Y-53784476D01*
X78890761Y-53879714D01*
X78747904Y-54022571D01*
X78700285Y-54117809D01*
X78700285Y-54213047D01*
X78938380Y-54165428D02*
X78890761Y-54260666D01*
X78795523Y-54355904D01*
X78605047Y-54403523D01*
X78271714Y-54403523D01*
X78081238Y-54355904D01*
X77986000Y-54260666D01*
X77938380Y-54165428D01*
X77938380Y-53974952D01*
X77986000Y-53879714D01*
X78081238Y-53784476D01*
X78271714Y-53736857D01*
X78605047Y-53736857D01*
X78795523Y-53784476D01*
X78890761Y-53879714D01*
X78938380Y-53974952D01*
X78938380Y-54165428D01*
X78033619Y-53355904D02*
X77986000Y-53308285D01*
X77938380Y-53213047D01*
X77938380Y-52974952D01*
X77986000Y-52879714D01*
X78033619Y-52832095D01*
X78128857Y-52784476D01*
X78224095Y-52784476D01*
X78366952Y-52832095D01*
X78938380Y-53403523D01*
X78938380Y-52784476D01*
%TO.C,R1*%
X40712380Y-138088666D02*
X40236190Y-138422000D01*
X40712380Y-138660095D02*
X39712380Y-138660095D01*
X39712380Y-138279142D01*
X39760000Y-138183904D01*
X39807619Y-138136285D01*
X39902857Y-138088666D01*
X40045714Y-138088666D01*
X40140952Y-138136285D01*
X40188571Y-138183904D01*
X40236190Y-138279142D01*
X40236190Y-138660095D01*
X40712380Y-137136285D02*
X40712380Y-137707714D01*
X40712380Y-137422000D02*
X39712380Y-137422000D01*
X39855238Y-137517238D01*
X39950476Y-137612476D01*
X39998095Y-137707714D01*
%TO.C,R10*%
X67175142Y-79467380D02*
X66841809Y-78991190D01*
X66603714Y-79467380D02*
X66603714Y-78467380D01*
X66984666Y-78467380D01*
X67079904Y-78515000D01*
X67127523Y-78562619D01*
X67175142Y-78657857D01*
X67175142Y-78800714D01*
X67127523Y-78895952D01*
X67079904Y-78943571D01*
X66984666Y-78991190D01*
X66603714Y-78991190D01*
X68127523Y-79467380D02*
X67556095Y-79467380D01*
X67841809Y-79467380D02*
X67841809Y-78467380D01*
X67746571Y-78610238D01*
X67651333Y-78705476D01*
X67556095Y-78753095D01*
X68746571Y-78467380D02*
X68841809Y-78467380D01*
X68937047Y-78515000D01*
X68984666Y-78562619D01*
X69032285Y-78657857D01*
X69079904Y-78848333D01*
X69079904Y-79086428D01*
X69032285Y-79276904D01*
X68984666Y-79372142D01*
X68937047Y-79419761D01*
X68841809Y-79467380D01*
X68746571Y-79467380D01*
X68651333Y-79419761D01*
X68603714Y-79372142D01*
X68556095Y-79276904D01*
X68508476Y-79086428D01*
X68508476Y-78848333D01*
X68556095Y-78657857D01*
X68603714Y-78562619D01*
X68651333Y-78515000D01*
X68746571Y-78467380D01*
%TO.C,R11*%
X41726380Y-66236357D02*
X41250190Y-66569690D01*
X41726380Y-66807785D02*
X40726380Y-66807785D01*
X40726380Y-66426833D01*
X40774000Y-66331595D01*
X40821619Y-66283976D01*
X40916857Y-66236357D01*
X41059714Y-66236357D01*
X41154952Y-66283976D01*
X41202571Y-66331595D01*
X41250190Y-66426833D01*
X41250190Y-66807785D01*
X41726380Y-65283976D02*
X41726380Y-65855404D01*
X41726380Y-65569690D02*
X40726380Y-65569690D01*
X40869238Y-65664928D01*
X40964476Y-65760166D01*
X41012095Y-65855404D01*
X41726380Y-64331595D02*
X41726380Y-64903023D01*
X41726380Y-64617309D02*
X40726380Y-64617309D01*
X40869238Y-64712547D01*
X40964476Y-64807785D01*
X41012095Y-64903023D01*
%TO.C,R19*%
X74303142Y-80462380D02*
X73969809Y-79986190D01*
X73731714Y-80462380D02*
X73731714Y-79462380D01*
X74112666Y-79462380D01*
X74207904Y-79510000D01*
X74255523Y-79557619D01*
X74303142Y-79652857D01*
X74303142Y-79795714D01*
X74255523Y-79890952D01*
X74207904Y-79938571D01*
X74112666Y-79986190D01*
X73731714Y-79986190D01*
X75255523Y-80462380D02*
X74684095Y-80462380D01*
X74969809Y-80462380D02*
X74969809Y-79462380D01*
X74874571Y-79605238D01*
X74779333Y-79700476D01*
X74684095Y-79748095D01*
X75731714Y-80462380D02*
X75922190Y-80462380D01*
X76017428Y-80414761D01*
X76065047Y-80367142D01*
X76160285Y-80224285D01*
X76207904Y-80033809D01*
X76207904Y-79652857D01*
X76160285Y-79557619D01*
X76112666Y-79510000D01*
X76017428Y-79462380D01*
X75826952Y-79462380D01*
X75731714Y-79510000D01*
X75684095Y-79557619D01*
X75636476Y-79652857D01*
X75636476Y-79890952D01*
X75684095Y-79986190D01*
X75731714Y-80033809D01*
X75826952Y-80081428D01*
X76017428Y-80081428D01*
X76112666Y-80033809D01*
X76160285Y-79986190D01*
X76207904Y-79890952D01*
D11*
%TO.C,IC1*%
X34864523Y-139161761D02*
X33594523Y-139161761D01*
X34743571Y-137831285D02*
X34804047Y-137891761D01*
X34864523Y-138073190D01*
X34864523Y-138194142D01*
X34804047Y-138375571D01*
X34683095Y-138496523D01*
X34562142Y-138557000D01*
X34320238Y-138617476D01*
X34138809Y-138617476D01*
X33896904Y-138557000D01*
X33775952Y-138496523D01*
X33655000Y-138375571D01*
X33594523Y-138194142D01*
X33594523Y-138073190D01*
X33655000Y-137891761D01*
X33715476Y-137831285D01*
X34864523Y-136621761D02*
X34864523Y-137347476D01*
X34864523Y-136984619D02*
X33594523Y-136984619D01*
X33775952Y-137105571D01*
X33896904Y-137226523D01*
X33957380Y-137347476D01*
D10*
%TO.C,C1*%
X56843142Y-138088666D02*
X56890761Y-138136285D01*
X56938380Y-138279142D01*
X56938380Y-138374380D01*
X56890761Y-138517238D01*
X56795523Y-138612476D01*
X56700285Y-138660095D01*
X56509809Y-138707714D01*
X56366952Y-138707714D01*
X56176476Y-138660095D01*
X56081238Y-138612476D01*
X55986000Y-138517238D01*
X55938380Y-138374380D01*
X55938380Y-138279142D01*
X55986000Y-138136285D01*
X56033619Y-138088666D01*
X56938380Y-137136285D02*
X56938380Y-137707714D01*
X56938380Y-137422000D02*
X55938380Y-137422000D01*
X56081238Y-137517238D01*
X56176476Y-137612476D01*
X56224095Y-137707714D01*
%TO.C,U3*%
X58928095Y-41616380D02*
X58928095Y-42425904D01*
X58975714Y-42521142D01*
X59023333Y-42568761D01*
X59118571Y-42616380D01*
X59309047Y-42616380D01*
X59404285Y-42568761D01*
X59451904Y-42521142D01*
X59499523Y-42425904D01*
X59499523Y-41616380D01*
X59880476Y-41616380D02*
X60499523Y-41616380D01*
X60166190Y-41997333D01*
X60309047Y-41997333D01*
X60404285Y-42044952D01*
X60451904Y-42092571D01*
X60499523Y-42187809D01*
X60499523Y-42425904D01*
X60451904Y-42521142D01*
X60404285Y-42568761D01*
X60309047Y-42616380D01*
X60023333Y-42616380D01*
X59928095Y-42568761D01*
X59880476Y-42521142D01*
X46176158Y-48662155D02*
X46095346Y-48689093D01*
X46014534Y-48769905D01*
X45960659Y-48877654D01*
X45960659Y-48985404D01*
X45987597Y-49066216D01*
X46068409Y-49200903D01*
X46149221Y-49281715D01*
X46283908Y-49362528D01*
X46364720Y-49389465D01*
X46472470Y-49389465D01*
X46580219Y-49335590D01*
X46634094Y-49281715D01*
X46687969Y-49173966D01*
X46687969Y-49120091D01*
X46499407Y-48931529D01*
X46391658Y-49039279D01*
X46984280Y-48931529D02*
X46418595Y-48365844D01*
X47307529Y-48608280D01*
X46741844Y-48042595D01*
X47576903Y-48338906D02*
X47011218Y-47773221D01*
X47145905Y-47638534D01*
X47253654Y-47584659D01*
X47361404Y-47584659D01*
X47442216Y-47611597D01*
X47576903Y-47692409D01*
X47657715Y-47773221D01*
X47738528Y-47907908D01*
X47765465Y-47988720D01*
X47765465Y-48096470D01*
X47711590Y-48204219D01*
X47576903Y-48338906D01*
X71844788Y-31697773D02*
X72114162Y-31428399D01*
X71952537Y-31913272D02*
X71575414Y-31159025D01*
X72329661Y-31536149D01*
X72518223Y-31347587D02*
X71952537Y-30781902D01*
X72087224Y-30647215D01*
X72194974Y-30593340D01*
X72302723Y-30593340D01*
X72383536Y-30620277D01*
X72518223Y-30701089D01*
X72599035Y-30781902D01*
X72679847Y-30916589D01*
X72706784Y-30997401D01*
X72706784Y-31105150D01*
X72652910Y-31212900D01*
X72518223Y-31347587D01*
X73353282Y-30404778D02*
X73353282Y-30458653D01*
X73299407Y-30566402D01*
X73245532Y-30620277D01*
X73137783Y-30674152D01*
X73030033Y-30674152D01*
X72949221Y-30647215D01*
X72814534Y-30566402D01*
X72733722Y-30485590D01*
X72652910Y-30350903D01*
X72625972Y-30270091D01*
X72625972Y-30162341D01*
X72679847Y-30054592D01*
X72733722Y-30000717D01*
X72841471Y-29946842D01*
X72895346Y-29946842D01*
X73568781Y-30404778D02*
X73999780Y-29973780D01*
X73434094Y-29300345D02*
X74188341Y-29677468D01*
X73811218Y-28923221D01*
X74888714Y-28977096D02*
X74430778Y-28896284D01*
X74565465Y-29300345D02*
X73999780Y-28734659D01*
X74215279Y-28519160D01*
X74296091Y-28492223D01*
X74349966Y-28492223D01*
X74430778Y-28519160D01*
X74511590Y-28599972D01*
X74538528Y-28680784D01*
X74538528Y-28734659D01*
X74511590Y-28815471D01*
X74296091Y-29030971D01*
X74834839Y-28438348D02*
X75023401Y-28249786D01*
X75400524Y-28465285D02*
X75131150Y-28734659D01*
X74565465Y-28168974D01*
X74834839Y-27899600D01*
X75535211Y-27737975D02*
X75346650Y-27926537D01*
X75642961Y-28222849D02*
X75077276Y-27657163D01*
X75346650Y-27387789D01*
X71612131Y-26122308D02*
X71962317Y-25772122D01*
X71989255Y-26176183D01*
X72070067Y-26095370D01*
X72150879Y-26068433D01*
X72204754Y-26068433D01*
X72285566Y-26095370D01*
X72420253Y-26230057D01*
X72447190Y-26310870D01*
X72447190Y-26364744D01*
X72420253Y-26445557D01*
X72258629Y-26607181D01*
X72177816Y-26634118D01*
X72123942Y-26634118D01*
X72123942Y-25610497D02*
X72878189Y-25987621D01*
X72501065Y-25233374D01*
X72635752Y-25098687D02*
X72985938Y-24748500D01*
X73012876Y-25152561D01*
X73093688Y-25071749D01*
X73174500Y-25044812D01*
X73228375Y-25044812D01*
X73309187Y-25071749D01*
X73443874Y-25206436D01*
X73470812Y-25287248D01*
X73470812Y-25341123D01*
X73443874Y-25421935D01*
X73282250Y-25583560D01*
X73201438Y-25610497D01*
X73147563Y-25610497D01*
X73713248Y-25260311D02*
X74144247Y-24829312D01*
X73928748Y-24344439D02*
X74117309Y-24155877D01*
X74494433Y-24371377D02*
X74225059Y-24640751D01*
X73659374Y-24075065D01*
X73928748Y-23805691D01*
X74736870Y-24128940D02*
X74171184Y-23563255D01*
X75060118Y-23805691D01*
X74494433Y-23240006D01*
X45633722Y-64144592D02*
X45552910Y-64171529D01*
X45472097Y-64252341D01*
X45418223Y-64360091D01*
X45418223Y-64467841D01*
X45445160Y-64548653D01*
X45525972Y-64683340D01*
X45606784Y-64764152D01*
X45741471Y-64844964D01*
X45822284Y-64871902D01*
X45930033Y-64871902D01*
X46037783Y-64818027D01*
X46091658Y-64764152D01*
X46145532Y-64656402D01*
X46145532Y-64602528D01*
X45956971Y-64413966D01*
X45849221Y-64521715D01*
X46441844Y-64413966D02*
X45876158Y-63848280D01*
X46091658Y-63632781D01*
X46172470Y-63605844D01*
X46226345Y-63605844D01*
X46307157Y-63632781D01*
X46387969Y-63713593D01*
X46414906Y-63794406D01*
X46414906Y-63848280D01*
X46387969Y-63929093D01*
X46172470Y-64144592D01*
X47303841Y-63551969D02*
X46980592Y-63875218D01*
X47142216Y-63713593D02*
X46576531Y-63147908D01*
X46603468Y-63282595D01*
X46603468Y-63390345D01*
X46576531Y-63471157D01*
X47411590Y-62689972D02*
X47788714Y-63067096D01*
X47061404Y-62609160D02*
X47330778Y-63147908D01*
X47680964Y-62797722D01*
X46176158Y-35962155D02*
X46095346Y-35989093D01*
X46014534Y-36069905D01*
X45960659Y-36177654D01*
X45960659Y-36285404D01*
X45987597Y-36366216D01*
X46068409Y-36500903D01*
X46149221Y-36581715D01*
X46283908Y-36662528D01*
X46364720Y-36689465D01*
X46472470Y-36689465D01*
X46580219Y-36635590D01*
X46634094Y-36581715D01*
X46687969Y-36473966D01*
X46687969Y-36420091D01*
X46499407Y-36231529D01*
X46391658Y-36339279D01*
X46984280Y-36231529D02*
X46418595Y-35665844D01*
X47307529Y-35908280D01*
X46741844Y-35342595D01*
X47576903Y-35638906D02*
X47011218Y-35073221D01*
X47145905Y-34938534D01*
X47253654Y-34884659D01*
X47361404Y-34884659D01*
X47442216Y-34911597D01*
X47576903Y-34992409D01*
X47657715Y-35073221D01*
X47738528Y-35207908D01*
X47765465Y-35288720D01*
X47765465Y-35396470D01*
X47711590Y-35504219D01*
X47576903Y-35638906D01*
X45679722Y-51444592D02*
X45598910Y-51471529D01*
X45518097Y-51552341D01*
X45464223Y-51660091D01*
X45464223Y-51767841D01*
X45491160Y-51848653D01*
X45571972Y-51983340D01*
X45652784Y-52064152D01*
X45787471Y-52144964D01*
X45868284Y-52171902D01*
X45976033Y-52171902D01*
X46083783Y-52118027D01*
X46137658Y-52064152D01*
X46191532Y-51956402D01*
X46191532Y-51902528D01*
X46002971Y-51713966D01*
X45895221Y-51821715D01*
X46487844Y-51713966D02*
X45922158Y-51148280D01*
X46137658Y-50932781D01*
X46218470Y-50905844D01*
X46272345Y-50905844D01*
X46353157Y-50932781D01*
X46433969Y-51013593D01*
X46460906Y-51094406D01*
X46460906Y-51148280D01*
X46433969Y-51229093D01*
X46218470Y-51444592D01*
X47349841Y-50851969D02*
X47026592Y-51175218D01*
X47188216Y-51013593D02*
X46622531Y-50447908D01*
X46649468Y-50582595D01*
X46649468Y-50690345D01*
X46622531Y-50771157D01*
X47134341Y-49936097D02*
X47188216Y-49882223D01*
X47269028Y-49855285D01*
X47322903Y-49855285D01*
X47403715Y-49882223D01*
X47538402Y-49963035D01*
X47673089Y-50097722D01*
X47753902Y-50232409D01*
X47780839Y-50313221D01*
X47780839Y-50367096D01*
X47753902Y-50447908D01*
X47700027Y-50501783D01*
X47619215Y-50528720D01*
X47565340Y-50528720D01*
X47484528Y-50501783D01*
X47349841Y-50420971D01*
X47215154Y-50286284D01*
X47134341Y-50151597D01*
X47107404Y-50070784D01*
X47107404Y-50016910D01*
X47134341Y-49936097D01*
X46203096Y-46095218D02*
X46122284Y-46122155D01*
X46041471Y-46202967D01*
X45987597Y-46310717D01*
X45987597Y-46418467D01*
X46014534Y-46499279D01*
X46095346Y-46633966D01*
X46176158Y-46714778D01*
X46310845Y-46795590D01*
X46391658Y-46822528D01*
X46499407Y-46822528D01*
X46607157Y-46768653D01*
X46661032Y-46714778D01*
X46714906Y-46607028D01*
X46714906Y-46553154D01*
X46526345Y-46364592D01*
X46418595Y-46472341D01*
X47011218Y-46364592D02*
X46445532Y-45798906D01*
X46661032Y-45583407D01*
X46741844Y-45556470D01*
X46795719Y-45556470D01*
X46876531Y-45583407D01*
X46957343Y-45664219D01*
X46984280Y-45745032D01*
X46984280Y-45798906D01*
X46957343Y-45879719D01*
X46741844Y-46095218D01*
X47603841Y-45771969D02*
X47711590Y-45664219D01*
X47738528Y-45583407D01*
X47738528Y-45529532D01*
X47711590Y-45394845D01*
X47630778Y-45260158D01*
X47415279Y-45044659D01*
X47334467Y-45017722D01*
X47280592Y-45017722D01*
X47199780Y-45044659D01*
X47092030Y-45152409D01*
X47065093Y-45233221D01*
X47065093Y-45287096D01*
X47092030Y-45367908D01*
X47226717Y-45502595D01*
X47307529Y-45529532D01*
X47361404Y-45529532D01*
X47442216Y-45502595D01*
X47549966Y-45394845D01*
X47576903Y-45314033D01*
X47576903Y-45260158D01*
X47549966Y-45179346D01*
X72528375Y-44107435D02*
X72070439Y-44026622D01*
X72205126Y-44430683D02*
X71639441Y-43864998D01*
X71854940Y-43649499D01*
X71935752Y-43622561D01*
X71989627Y-43622561D01*
X72070439Y-43649499D01*
X72151251Y-43730311D01*
X72178189Y-43811123D01*
X72178189Y-43864998D01*
X72151251Y-43945810D01*
X71935752Y-44161309D01*
X72205126Y-43299312D02*
X72663062Y-43757248D01*
X72743874Y-43784186D01*
X72797749Y-43784186D01*
X72878561Y-43757248D01*
X72986311Y-43649499D01*
X73013248Y-43568687D01*
X73013248Y-43514812D01*
X72986311Y-43434000D01*
X72528375Y-42976064D01*
X73363435Y-43272375D02*
X72797749Y-42706690D01*
X73686683Y-42949126D01*
X73120998Y-42383441D01*
X46303096Y-40985218D02*
X46222284Y-41012155D01*
X46141471Y-41092967D01*
X46087597Y-41200717D01*
X46087597Y-41308467D01*
X46114534Y-41389279D01*
X46195346Y-41523966D01*
X46276158Y-41604778D01*
X46410845Y-41685590D01*
X46491658Y-41712528D01*
X46599407Y-41712528D01*
X46707157Y-41658653D01*
X46761032Y-41604778D01*
X46814906Y-41497028D01*
X46814906Y-41443154D01*
X46626345Y-41254592D01*
X46518595Y-41362341D01*
X47111218Y-41254592D02*
X46545532Y-40688906D01*
X46761032Y-40473407D01*
X46841844Y-40446470D01*
X46895719Y-40446470D01*
X46976531Y-40473407D01*
X47057343Y-40554219D01*
X47084280Y-40635032D01*
X47084280Y-40688906D01*
X47057343Y-40769719D01*
X46841844Y-40985218D01*
X47057343Y-40177096D02*
X47434467Y-39799972D01*
X47757715Y-40608094D01*
X71787722Y-56524592D02*
X71706910Y-56551529D01*
X71626097Y-56632341D01*
X71572223Y-56740091D01*
X71572223Y-56847841D01*
X71599160Y-56928653D01*
X71679972Y-57063340D01*
X71760784Y-57144152D01*
X71895471Y-57224964D01*
X71976284Y-57251902D01*
X72084033Y-57251902D01*
X72191783Y-57198027D01*
X72245658Y-57144152D01*
X72299532Y-57036402D01*
X72299532Y-56982528D01*
X72110971Y-56793966D01*
X72003221Y-56901715D01*
X72595844Y-56793966D02*
X72030158Y-56228280D01*
X72245658Y-56012781D01*
X72326470Y-55985844D01*
X72380345Y-55985844D01*
X72461157Y-56012781D01*
X72541969Y-56093593D01*
X72568906Y-56174406D01*
X72568906Y-56228280D01*
X72541969Y-56309093D01*
X72326470Y-56524592D01*
X73457841Y-55931969D02*
X73134592Y-56255218D01*
X73296216Y-56093593D02*
X72730531Y-55527908D01*
X72757468Y-55662595D01*
X72757468Y-55770345D01*
X72730531Y-55851157D01*
X73727215Y-55662595D02*
X73834964Y-55554845D01*
X73861902Y-55474033D01*
X73861902Y-55420158D01*
X73834964Y-55285471D01*
X73754152Y-55150784D01*
X73538653Y-54935285D01*
X73457841Y-54908348D01*
X73403966Y-54908348D01*
X73323154Y-54935285D01*
X73215404Y-55043035D01*
X73188467Y-55123847D01*
X73188467Y-55177722D01*
X73215404Y-55258534D01*
X73350091Y-55393221D01*
X73430903Y-55420158D01*
X73484778Y-55420158D01*
X73565590Y-55393221D01*
X73673340Y-55285471D01*
X73700277Y-55204659D01*
X73700277Y-55150784D01*
X73673340Y-55069972D01*
X71776158Y-23262155D02*
X71695346Y-23289093D01*
X71614534Y-23369905D01*
X71560659Y-23477654D01*
X71560659Y-23585404D01*
X71587597Y-23666216D01*
X71668409Y-23800903D01*
X71749221Y-23881715D01*
X71883908Y-23962528D01*
X71964720Y-23989465D01*
X72072470Y-23989465D01*
X72180219Y-23935590D01*
X72234094Y-23881715D01*
X72287969Y-23773966D01*
X72287969Y-23720091D01*
X72099407Y-23531529D01*
X71991658Y-23639279D01*
X72584280Y-23531529D02*
X72018595Y-22965844D01*
X72907529Y-23208280D01*
X72341844Y-22642595D01*
X73176903Y-22938906D02*
X72611218Y-22373221D01*
X72745905Y-22238534D01*
X72853654Y-22184659D01*
X72961404Y-22184659D01*
X73042216Y-22211597D01*
X73176903Y-22292409D01*
X73257715Y-22373221D01*
X73338528Y-22507908D01*
X73365465Y-22588720D01*
X73365465Y-22696470D01*
X73311590Y-22804219D01*
X73176903Y-22938906D01*
X71787722Y-53984592D02*
X71706910Y-54011529D01*
X71626097Y-54092341D01*
X71572223Y-54200091D01*
X71572223Y-54307841D01*
X71599160Y-54388653D01*
X71679972Y-54523340D01*
X71760784Y-54604152D01*
X71895471Y-54684964D01*
X71976284Y-54711902D01*
X72084033Y-54711902D01*
X72191783Y-54658027D01*
X72245658Y-54604152D01*
X72299532Y-54496402D01*
X72299532Y-54442528D01*
X72110971Y-54253966D01*
X72003221Y-54361715D01*
X72595844Y-54253966D02*
X72030158Y-53688280D01*
X72245658Y-53472781D01*
X72326470Y-53445844D01*
X72380345Y-53445844D01*
X72461157Y-53472781D01*
X72541969Y-53553593D01*
X72568906Y-53634406D01*
X72568906Y-53688280D01*
X72541969Y-53769093D01*
X72326470Y-53984592D01*
X72622781Y-53203407D02*
X72622781Y-53149532D01*
X72649719Y-53068720D01*
X72784406Y-52934033D01*
X72865218Y-52907096D01*
X72919093Y-52907096D01*
X72999905Y-52934033D01*
X73053780Y-52987908D01*
X73107654Y-53095658D01*
X73107654Y-53742155D01*
X73457841Y-53391969D01*
X73242341Y-52476097D02*
X73296216Y-52422223D01*
X73377028Y-52395285D01*
X73430903Y-52395285D01*
X73511715Y-52422223D01*
X73646402Y-52503035D01*
X73781089Y-52637722D01*
X73861902Y-52772409D01*
X73888839Y-52853221D01*
X73888839Y-52907096D01*
X73861902Y-52987908D01*
X73808027Y-53041783D01*
X73727215Y-53068720D01*
X73673340Y-53068720D01*
X73592528Y-53041783D01*
X73457841Y-52960971D01*
X73323154Y-52826284D01*
X73242341Y-52691597D01*
X73215404Y-52610784D01*
X73215404Y-52556910D01*
X73242341Y-52476097D01*
X71787722Y-51454592D02*
X71706910Y-51481529D01*
X71626097Y-51562341D01*
X71572223Y-51670091D01*
X71572223Y-51777841D01*
X71599160Y-51858653D01*
X71679972Y-51993340D01*
X71760784Y-52074152D01*
X71895471Y-52154964D01*
X71976284Y-52181902D01*
X72084033Y-52181902D01*
X72191783Y-52128027D01*
X72245658Y-52074152D01*
X72299532Y-51966402D01*
X72299532Y-51912528D01*
X72110971Y-51723966D01*
X72003221Y-51831715D01*
X72595844Y-51723966D02*
X72030158Y-51158280D01*
X72245658Y-50942781D01*
X72326470Y-50915844D01*
X72380345Y-50915844D01*
X72461157Y-50942781D01*
X72541969Y-51023593D01*
X72568906Y-51104406D01*
X72568906Y-51158280D01*
X72541969Y-51239093D01*
X72326470Y-51454592D01*
X72622781Y-50673407D02*
X72622781Y-50619532D01*
X72649719Y-50538720D01*
X72784406Y-50404033D01*
X72865218Y-50377096D01*
X72919093Y-50377096D01*
X72999905Y-50404033D01*
X73053780Y-50457908D01*
X73107654Y-50565658D01*
X73107654Y-51212155D01*
X73457841Y-50861969D01*
X73996589Y-50323221D02*
X73673340Y-50646470D01*
X73834964Y-50484845D02*
X73269279Y-49919160D01*
X73296216Y-50053847D01*
X73296216Y-50161597D01*
X73269279Y-50242409D01*
X46203096Y-38475218D02*
X46122284Y-38502155D01*
X46041471Y-38582967D01*
X45987597Y-38690717D01*
X45987597Y-38798467D01*
X46014534Y-38879279D01*
X46095346Y-39013966D01*
X46176158Y-39094778D01*
X46310845Y-39175590D01*
X46391658Y-39202528D01*
X46499407Y-39202528D01*
X46607157Y-39148653D01*
X46661032Y-39094778D01*
X46714906Y-38987028D01*
X46714906Y-38933154D01*
X46526345Y-38744592D01*
X46418595Y-38852341D01*
X47011218Y-38744592D02*
X46445532Y-38178906D01*
X46661032Y-37963407D01*
X46741844Y-37936470D01*
X46795719Y-37936470D01*
X46876531Y-37963407D01*
X46957343Y-38044219D01*
X46984280Y-38125032D01*
X46984280Y-38178906D01*
X46957343Y-38259719D01*
X46741844Y-38475218D01*
X47253654Y-37370784D02*
X47145905Y-37478534D01*
X47118967Y-37559346D01*
X47118967Y-37613221D01*
X47145905Y-37747908D01*
X47226717Y-37882595D01*
X47442216Y-38098094D01*
X47523028Y-38125032D01*
X47576903Y-38125032D01*
X47657715Y-38098094D01*
X47765465Y-37990345D01*
X47792402Y-37909532D01*
X47792402Y-37855658D01*
X47765465Y-37774845D01*
X47630778Y-37640158D01*
X47549966Y-37613221D01*
X47496091Y-37613221D01*
X47415279Y-37640158D01*
X47307529Y-37747908D01*
X47280592Y-37828720D01*
X47280592Y-37882595D01*
X47307529Y-37963407D01*
X46103096Y-20685218D02*
X46022284Y-20712155D01*
X45941471Y-20792967D01*
X45887597Y-20900717D01*
X45887597Y-21008467D01*
X45914534Y-21089279D01*
X45995346Y-21223966D01*
X46076158Y-21304778D01*
X46210845Y-21385590D01*
X46291658Y-21412528D01*
X46399407Y-21412528D01*
X46507157Y-21358653D01*
X46561032Y-21304778D01*
X46614906Y-21197028D01*
X46614906Y-21143154D01*
X46426345Y-20954592D01*
X46318595Y-21062341D01*
X46911218Y-20954592D02*
X46345532Y-20388906D01*
X46561032Y-20173407D01*
X46641844Y-20146470D01*
X46695719Y-20146470D01*
X46776531Y-20173407D01*
X46857343Y-20254219D01*
X46884280Y-20335032D01*
X46884280Y-20388906D01*
X46857343Y-20469719D01*
X46641844Y-20685218D01*
X47773215Y-20092595D02*
X47449966Y-20415844D01*
X47611590Y-20254219D02*
X47045905Y-19688534D01*
X47072842Y-19823221D01*
X47072842Y-19930971D01*
X47045905Y-20011783D01*
X46203096Y-33395218D02*
X46122284Y-33422155D01*
X46041471Y-33502967D01*
X45987597Y-33610717D01*
X45987597Y-33718467D01*
X46014534Y-33799279D01*
X46095346Y-33933966D01*
X46176158Y-34014778D01*
X46310845Y-34095590D01*
X46391658Y-34122528D01*
X46499407Y-34122528D01*
X46607157Y-34068653D01*
X46661032Y-34014778D01*
X46714906Y-33907028D01*
X46714906Y-33853154D01*
X46526345Y-33664592D01*
X46418595Y-33772341D01*
X47011218Y-33664592D02*
X46445532Y-33098906D01*
X46661032Y-32883407D01*
X46741844Y-32856470D01*
X46795719Y-32856470D01*
X46876531Y-32883407D01*
X46957343Y-32964219D01*
X46984280Y-33045032D01*
X46984280Y-33098906D01*
X46957343Y-33179719D01*
X46741844Y-33395218D01*
X47280592Y-32263847D02*
X47011218Y-32533221D01*
X47253654Y-32829532D01*
X47253654Y-32775658D01*
X47280592Y-32694845D01*
X47415279Y-32560158D01*
X47496091Y-32533221D01*
X47549966Y-32533221D01*
X47630778Y-32560158D01*
X47765465Y-32694845D01*
X47792402Y-32775658D01*
X47792402Y-32829532D01*
X47765465Y-32910345D01*
X47630778Y-33045032D01*
X47549966Y-33071969D01*
X47496091Y-33071969D01*
X46203096Y-43555218D02*
X46122284Y-43582155D01*
X46041471Y-43662967D01*
X45987597Y-43770717D01*
X45987597Y-43878467D01*
X46014534Y-43959279D01*
X46095346Y-44093966D01*
X46176158Y-44174778D01*
X46310845Y-44255590D01*
X46391658Y-44282528D01*
X46499407Y-44282528D01*
X46607157Y-44228653D01*
X46661032Y-44174778D01*
X46714906Y-44067028D01*
X46714906Y-44013154D01*
X46526345Y-43824592D01*
X46418595Y-43932341D01*
X47011218Y-43824592D02*
X46445532Y-43258906D01*
X46661032Y-43043407D01*
X46741844Y-43016470D01*
X46795719Y-43016470D01*
X46876531Y-43043407D01*
X46957343Y-43124219D01*
X46984280Y-43205032D01*
X46984280Y-43258906D01*
X46957343Y-43339719D01*
X46741844Y-43555218D01*
X47334467Y-42854845D02*
X47253654Y-42881783D01*
X47199780Y-42881783D01*
X47118967Y-42854845D01*
X47092030Y-42827908D01*
X47065093Y-42747096D01*
X47065093Y-42693221D01*
X47092030Y-42612409D01*
X47199780Y-42504659D01*
X47280592Y-42477722D01*
X47334467Y-42477722D01*
X47415279Y-42504659D01*
X47442216Y-42531597D01*
X47469154Y-42612409D01*
X47469154Y-42666284D01*
X47442216Y-42747096D01*
X47334467Y-42854845D01*
X47307529Y-42935658D01*
X47307529Y-42989532D01*
X47334467Y-43070345D01*
X47442216Y-43178094D01*
X47523028Y-43205032D01*
X47576903Y-43205032D01*
X47657715Y-43178094D01*
X47765465Y-43070345D01*
X47792402Y-42989532D01*
X47792402Y-42935658D01*
X47765465Y-42854845D01*
X47657715Y-42747096D01*
X47576903Y-42720158D01*
X47523028Y-42720158D01*
X47442216Y-42747096D01*
X46176158Y-61362155D02*
X46095346Y-61389093D01*
X46014534Y-61469905D01*
X45960659Y-61577654D01*
X45960659Y-61685404D01*
X45987597Y-61766216D01*
X46068409Y-61900903D01*
X46149221Y-61981715D01*
X46283908Y-62062528D01*
X46364720Y-62089465D01*
X46472470Y-62089465D01*
X46580219Y-62035590D01*
X46634094Y-61981715D01*
X46687969Y-61873966D01*
X46687969Y-61820091D01*
X46499407Y-61631529D01*
X46391658Y-61739279D01*
X46984280Y-61631529D02*
X46418595Y-61065844D01*
X47307529Y-61308280D01*
X46741844Y-60742595D01*
X47576903Y-61038906D02*
X47011218Y-60473221D01*
X47145905Y-60338534D01*
X47253654Y-60284659D01*
X47361404Y-60284659D01*
X47442216Y-60311597D01*
X47576903Y-60392409D01*
X47657715Y-60473221D01*
X47738528Y-60607908D01*
X47765465Y-60688720D01*
X47765465Y-60796470D01*
X47711590Y-60904219D01*
X47576903Y-61038906D01*
X71787722Y-46364592D02*
X71706910Y-46391529D01*
X71626097Y-46472341D01*
X71572223Y-46580091D01*
X71572223Y-46687841D01*
X71599160Y-46768653D01*
X71679972Y-46903340D01*
X71760784Y-46984152D01*
X71895471Y-47064964D01*
X71976284Y-47091902D01*
X72084033Y-47091902D01*
X72191783Y-47038027D01*
X72245658Y-46984152D01*
X72299532Y-46876402D01*
X72299532Y-46822528D01*
X72110971Y-46633966D01*
X72003221Y-46741715D01*
X72595844Y-46633966D02*
X72030158Y-46068280D01*
X72245658Y-45852781D01*
X72326470Y-45825844D01*
X72380345Y-45825844D01*
X72461157Y-45852781D01*
X72541969Y-45933593D01*
X72568906Y-46014406D01*
X72568906Y-46068280D01*
X72541969Y-46149093D01*
X72326470Y-46364592D01*
X72622781Y-45583407D02*
X72622781Y-45529532D01*
X72649719Y-45448720D01*
X72784406Y-45314033D01*
X72865218Y-45287096D01*
X72919093Y-45287096D01*
X72999905Y-45314033D01*
X73053780Y-45367908D01*
X73107654Y-45475658D01*
X73107654Y-46122155D01*
X73457841Y-45771969D01*
X73161529Y-45044659D02*
X73161529Y-44990784D01*
X73188467Y-44909972D01*
X73323154Y-44775285D01*
X73403966Y-44748348D01*
X73457841Y-44748348D01*
X73538653Y-44775285D01*
X73592528Y-44829160D01*
X73646402Y-44936910D01*
X73646402Y-45583407D01*
X73996589Y-45233221D01*
X71787722Y-33410592D02*
X71706910Y-33437529D01*
X71626097Y-33518341D01*
X71572223Y-33626091D01*
X71572223Y-33733841D01*
X71599160Y-33814653D01*
X71679972Y-33949340D01*
X71760784Y-34030152D01*
X71895471Y-34110964D01*
X71976284Y-34137902D01*
X72084033Y-34137902D01*
X72191783Y-34084027D01*
X72245658Y-34030152D01*
X72299532Y-33922402D01*
X72299532Y-33868528D01*
X72110971Y-33679966D01*
X72003221Y-33787715D01*
X72595844Y-33679966D02*
X72030158Y-33114280D01*
X72245658Y-32898781D01*
X72326470Y-32871844D01*
X72380345Y-32871844D01*
X72461157Y-32898781D01*
X72541969Y-32979593D01*
X72568906Y-33060406D01*
X72568906Y-33114280D01*
X72541969Y-33195093D01*
X72326470Y-33410592D01*
X72622781Y-32629407D02*
X72622781Y-32575532D01*
X72649719Y-32494720D01*
X72784406Y-32360033D01*
X72865218Y-32333096D01*
X72919093Y-32333096D01*
X72999905Y-32360033D01*
X73053780Y-32413908D01*
X73107654Y-32521658D01*
X73107654Y-33168155D01*
X73457841Y-32817969D01*
X73457841Y-32171471D02*
X73377028Y-32198409D01*
X73323154Y-32198409D01*
X73242341Y-32171471D01*
X73215404Y-32144534D01*
X73188467Y-32063722D01*
X73188467Y-32009847D01*
X73215404Y-31929035D01*
X73323154Y-31821285D01*
X73403966Y-31794348D01*
X73457841Y-31794348D01*
X73538653Y-31821285D01*
X73565590Y-31848223D01*
X73592528Y-31929035D01*
X73592528Y-31982910D01*
X73565590Y-32063722D01*
X73457841Y-32171471D01*
X73430903Y-32252284D01*
X73430903Y-32306158D01*
X73457841Y-32386971D01*
X73565590Y-32494720D01*
X73646402Y-32521658D01*
X73700277Y-32521658D01*
X73781089Y-32494720D01*
X73888839Y-32386971D01*
X73915776Y-32306158D01*
X73915776Y-32252284D01*
X73888839Y-32171471D01*
X73781089Y-32063722D01*
X73700277Y-32036784D01*
X73646402Y-32036784D01*
X73565590Y-32063722D01*
X45533722Y-53984592D02*
X45452910Y-54011529D01*
X45372097Y-54092341D01*
X45318223Y-54200091D01*
X45318223Y-54307841D01*
X45345160Y-54388653D01*
X45425972Y-54523340D01*
X45506784Y-54604152D01*
X45641471Y-54684964D01*
X45722284Y-54711902D01*
X45830033Y-54711902D01*
X45937783Y-54658027D01*
X45991658Y-54604152D01*
X46045532Y-54496402D01*
X46045532Y-54442528D01*
X45856971Y-54253966D01*
X45749221Y-54361715D01*
X46341844Y-54253966D02*
X45776158Y-53688280D01*
X45991658Y-53472781D01*
X46072470Y-53445844D01*
X46126345Y-53445844D01*
X46207157Y-53472781D01*
X46287969Y-53553593D01*
X46314906Y-53634406D01*
X46314906Y-53688280D01*
X46287969Y-53769093D01*
X46072470Y-53984592D01*
X47203841Y-53391969D02*
X46880592Y-53715218D01*
X47042216Y-53553593D02*
X46476531Y-52987908D01*
X46503468Y-53122595D01*
X46503468Y-53230345D01*
X46476531Y-53311157D01*
X47742589Y-52853221D02*
X47419340Y-53176470D01*
X47580964Y-53014845D02*
X47015279Y-52449160D01*
X47042216Y-52583847D01*
X47042216Y-52691597D01*
X47015279Y-52772409D01*
X71787722Y-64144592D02*
X71706910Y-64171529D01*
X71626097Y-64252341D01*
X71572223Y-64360091D01*
X71572223Y-64467841D01*
X71599160Y-64548653D01*
X71679972Y-64683340D01*
X71760784Y-64764152D01*
X71895471Y-64844964D01*
X71976284Y-64871902D01*
X72084033Y-64871902D01*
X72191783Y-64818027D01*
X72245658Y-64764152D01*
X72299532Y-64656402D01*
X72299532Y-64602528D01*
X72110971Y-64413966D01*
X72003221Y-64521715D01*
X72595844Y-64413966D02*
X72030158Y-63848280D01*
X72245658Y-63632781D01*
X72326470Y-63605844D01*
X72380345Y-63605844D01*
X72461157Y-63632781D01*
X72541969Y-63713593D01*
X72568906Y-63794406D01*
X72568906Y-63848280D01*
X72541969Y-63929093D01*
X72326470Y-64144592D01*
X73457841Y-63551969D02*
X73134592Y-63875218D01*
X73296216Y-63713593D02*
X72730531Y-63147908D01*
X72757468Y-63282595D01*
X72757468Y-63390345D01*
X72730531Y-63471157D01*
X73080717Y-62797722D02*
X73457841Y-62420598D01*
X73781089Y-63228720D01*
X71776158Y-61362155D02*
X71695346Y-61389093D01*
X71614534Y-61469905D01*
X71560659Y-61577654D01*
X71560659Y-61685404D01*
X71587597Y-61766216D01*
X71668409Y-61900903D01*
X71749221Y-61981715D01*
X71883908Y-62062528D01*
X71964720Y-62089465D01*
X72072470Y-62089465D01*
X72180219Y-62035590D01*
X72234094Y-61981715D01*
X72287969Y-61873966D01*
X72287969Y-61820091D01*
X72099407Y-61631529D01*
X71991658Y-61739279D01*
X72584280Y-61631529D02*
X72018595Y-61065844D01*
X72907529Y-61308280D01*
X72341844Y-60742595D01*
X73176903Y-61038906D02*
X72611218Y-60473221D01*
X72745905Y-60338534D01*
X72853654Y-60284659D01*
X72961404Y-60284659D01*
X73042216Y-60311597D01*
X73176903Y-60392409D01*
X73257715Y-60473221D01*
X73338528Y-60607908D01*
X73365465Y-60688720D01*
X73365465Y-60796470D01*
X73311590Y-60904219D01*
X73176903Y-61038906D01*
X71776158Y-48662155D02*
X71695346Y-48689093D01*
X71614534Y-48769905D01*
X71560659Y-48877654D01*
X71560659Y-48985404D01*
X71587597Y-49066216D01*
X71668409Y-49200903D01*
X71749221Y-49281715D01*
X71883908Y-49362528D01*
X71964720Y-49389465D01*
X72072470Y-49389465D01*
X72180219Y-49335590D01*
X72234094Y-49281715D01*
X72287969Y-49173966D01*
X72287969Y-49120091D01*
X72099407Y-48931529D01*
X71991658Y-49039279D01*
X72584280Y-48931529D02*
X72018595Y-48365844D01*
X72907529Y-48608280D01*
X72341844Y-48042595D01*
X73176903Y-48338906D02*
X72611218Y-47773221D01*
X72745905Y-47638534D01*
X72853654Y-47584659D01*
X72961404Y-47584659D01*
X73042216Y-47611597D01*
X73176903Y-47692409D01*
X73257715Y-47773221D01*
X73338528Y-47907908D01*
X73365465Y-47988720D01*
X73365465Y-48096470D01*
X73311590Y-48204219D01*
X73176903Y-48338906D01*
X45679722Y-66684592D02*
X45598910Y-66711529D01*
X45518097Y-66792341D01*
X45464223Y-66900091D01*
X45464223Y-67007841D01*
X45491160Y-67088653D01*
X45571972Y-67223340D01*
X45652784Y-67304152D01*
X45787471Y-67384964D01*
X45868284Y-67411902D01*
X45976033Y-67411902D01*
X46083783Y-67358027D01*
X46137658Y-67304152D01*
X46191532Y-67196402D01*
X46191532Y-67142528D01*
X46002971Y-66953966D01*
X45895221Y-67061715D01*
X46487844Y-66953966D02*
X45922158Y-66388280D01*
X46137658Y-66172781D01*
X46218470Y-66145844D01*
X46272345Y-66145844D01*
X46353157Y-66172781D01*
X46433969Y-66253593D01*
X46460906Y-66334406D01*
X46460906Y-66388280D01*
X46433969Y-66469093D01*
X46218470Y-66684592D01*
X47349841Y-66091969D02*
X47026592Y-66415218D01*
X47188216Y-66253593D02*
X46622531Y-65687908D01*
X46649468Y-65822595D01*
X46649468Y-65930345D01*
X46622531Y-66011157D01*
X47295966Y-65014473D02*
X47026592Y-65283847D01*
X47269028Y-65580158D01*
X47269028Y-65526284D01*
X47295966Y-65445471D01*
X47430653Y-65310784D01*
X47511465Y-65283847D01*
X47565340Y-65283847D01*
X47646152Y-65310784D01*
X47780839Y-65445471D01*
X47807776Y-65526284D01*
X47807776Y-65580158D01*
X47780839Y-65660971D01*
X47646152Y-65795658D01*
X47565340Y-65822595D01*
X47511465Y-65822595D01*
X46203096Y-30855218D02*
X46122284Y-30882155D01*
X46041471Y-30962967D01*
X45987597Y-31070717D01*
X45987597Y-31178467D01*
X46014534Y-31259279D01*
X46095346Y-31393966D01*
X46176158Y-31474778D01*
X46310845Y-31555590D01*
X46391658Y-31582528D01*
X46499407Y-31582528D01*
X46607157Y-31528653D01*
X46661032Y-31474778D01*
X46714906Y-31367028D01*
X46714906Y-31313154D01*
X46526345Y-31124592D01*
X46418595Y-31232341D01*
X47011218Y-31124592D02*
X46445532Y-30558906D01*
X46661032Y-30343407D01*
X46741844Y-30316470D01*
X46795719Y-30316470D01*
X46876531Y-30343407D01*
X46957343Y-30424219D01*
X46984280Y-30505032D01*
X46984280Y-30558906D01*
X46957343Y-30639719D01*
X46741844Y-30855218D01*
X47442216Y-29939346D02*
X47819340Y-30316470D01*
X47092030Y-29858534D02*
X47361404Y-30397282D01*
X47711590Y-30047096D01*
X46203096Y-28315218D02*
X46122284Y-28342155D01*
X46041471Y-28422967D01*
X45987597Y-28530717D01*
X45987597Y-28638467D01*
X46014534Y-28719279D01*
X46095346Y-28853966D01*
X46176158Y-28934778D01*
X46310845Y-29015590D01*
X46391658Y-29042528D01*
X46499407Y-29042528D01*
X46607157Y-28988653D01*
X46661032Y-28934778D01*
X46714906Y-28827028D01*
X46714906Y-28773154D01*
X46526345Y-28584592D01*
X46418595Y-28692341D01*
X47011218Y-28584592D02*
X46445532Y-28018906D01*
X46661032Y-27803407D01*
X46741844Y-27776470D01*
X46795719Y-27776470D01*
X46876531Y-27803407D01*
X46957343Y-27884219D01*
X46984280Y-27965032D01*
X46984280Y-28018906D01*
X46957343Y-28099719D01*
X46741844Y-28315218D01*
X46957343Y-27507096D02*
X47307529Y-27156910D01*
X47334467Y-27560971D01*
X47415279Y-27480158D01*
X47496091Y-27453221D01*
X47549966Y-27453221D01*
X47630778Y-27480158D01*
X47765465Y-27614845D01*
X47792402Y-27695658D01*
X47792402Y-27749532D01*
X47765465Y-27830345D01*
X47603841Y-27991969D01*
X47523028Y-28018906D01*
X47469154Y-28018906D01*
X46203096Y-18155218D02*
X46122284Y-18182155D01*
X46041471Y-18262967D01*
X45987597Y-18370717D01*
X45987597Y-18478467D01*
X46014534Y-18559279D01*
X46095346Y-18693966D01*
X46176158Y-18774778D01*
X46310845Y-18855590D01*
X46391658Y-18882528D01*
X46499407Y-18882528D01*
X46607157Y-18828653D01*
X46661032Y-18774778D01*
X46714906Y-18667028D01*
X46714906Y-18613154D01*
X46526345Y-18424592D01*
X46418595Y-18532341D01*
X47011218Y-18424592D02*
X46445532Y-17858906D01*
X46661032Y-17643407D01*
X46741844Y-17616470D01*
X46795719Y-17616470D01*
X46876531Y-17643407D01*
X46957343Y-17724219D01*
X46984280Y-17805032D01*
X46984280Y-17858906D01*
X46957343Y-17939719D01*
X46741844Y-18155218D01*
X47118967Y-17185471D02*
X47172842Y-17131597D01*
X47253654Y-17104659D01*
X47307529Y-17104659D01*
X47388341Y-17131597D01*
X47523028Y-17212409D01*
X47657715Y-17347096D01*
X47738528Y-17481783D01*
X47765465Y-17562595D01*
X47765465Y-17616470D01*
X47738528Y-17697282D01*
X47684653Y-17751157D01*
X47603841Y-17778094D01*
X47549966Y-17778094D01*
X47469154Y-17751157D01*
X47334467Y-17670345D01*
X47199780Y-17535658D01*
X47118967Y-17400971D01*
X47092030Y-17320158D01*
X47092030Y-17266284D01*
X47118967Y-17185471D01*
X71787722Y-41284592D02*
X71706910Y-41311529D01*
X71626097Y-41392341D01*
X71572223Y-41500091D01*
X71572223Y-41607841D01*
X71599160Y-41688653D01*
X71679972Y-41823340D01*
X71760784Y-41904152D01*
X71895471Y-41984964D01*
X71976284Y-42011902D01*
X72084033Y-42011902D01*
X72191783Y-41958027D01*
X72245658Y-41904152D01*
X72299532Y-41796402D01*
X72299532Y-41742528D01*
X72110971Y-41553966D01*
X72003221Y-41661715D01*
X72595844Y-41553966D02*
X72030158Y-40988280D01*
X72245658Y-40772781D01*
X72326470Y-40745844D01*
X72380345Y-40745844D01*
X72461157Y-40772781D01*
X72541969Y-40853593D01*
X72568906Y-40934406D01*
X72568906Y-40988280D01*
X72541969Y-41069093D01*
X72326470Y-41284592D01*
X72622781Y-40503407D02*
X72622781Y-40449532D01*
X72649719Y-40368720D01*
X72784406Y-40234033D01*
X72865218Y-40207096D01*
X72919093Y-40207096D01*
X72999905Y-40234033D01*
X73053780Y-40287908D01*
X73107654Y-40395658D01*
X73107654Y-41042155D01*
X73457841Y-40691969D01*
X73377028Y-39641410D02*
X73269279Y-39749160D01*
X73242341Y-39829972D01*
X73242341Y-39883847D01*
X73269279Y-40018534D01*
X73350091Y-40153221D01*
X73565590Y-40368720D01*
X73646402Y-40395658D01*
X73700277Y-40395658D01*
X73781089Y-40368720D01*
X73888839Y-40260971D01*
X73915776Y-40180158D01*
X73915776Y-40126284D01*
X73888839Y-40045471D01*
X73754152Y-39910784D01*
X73673340Y-39883847D01*
X73619465Y-39883847D01*
X73538653Y-39910784D01*
X73430903Y-40018534D01*
X73403966Y-40099346D01*
X73403966Y-40153221D01*
X73430903Y-40234033D01*
X46103096Y-25775218D02*
X46022284Y-25802155D01*
X45941471Y-25882967D01*
X45887597Y-25990717D01*
X45887597Y-26098467D01*
X45914534Y-26179279D01*
X45995346Y-26313966D01*
X46076158Y-26394778D01*
X46210845Y-26475590D01*
X46291658Y-26502528D01*
X46399407Y-26502528D01*
X46507157Y-26448653D01*
X46561032Y-26394778D01*
X46614906Y-26287028D01*
X46614906Y-26233154D01*
X46426345Y-26044592D01*
X46318595Y-26152341D01*
X46911218Y-26044592D02*
X46345532Y-25478906D01*
X46561032Y-25263407D01*
X46641844Y-25236470D01*
X46695719Y-25236470D01*
X46776531Y-25263407D01*
X46857343Y-25344219D01*
X46884280Y-25425032D01*
X46884280Y-25478906D01*
X46857343Y-25559719D01*
X46641844Y-25775218D01*
X46938155Y-24994033D02*
X46938155Y-24940158D01*
X46965093Y-24859346D01*
X47099780Y-24724659D01*
X47180592Y-24697722D01*
X47234467Y-24697722D01*
X47315279Y-24724659D01*
X47369154Y-24778534D01*
X47423028Y-24886284D01*
X47423028Y-25532781D01*
X47773215Y-25182595D01*
X45679722Y-59064592D02*
X45598910Y-59091529D01*
X45518097Y-59172341D01*
X45464223Y-59280091D01*
X45464223Y-59387841D01*
X45491160Y-59468653D01*
X45571972Y-59603340D01*
X45652784Y-59684152D01*
X45787471Y-59764964D01*
X45868284Y-59791902D01*
X45976033Y-59791902D01*
X46083783Y-59738027D01*
X46137658Y-59684152D01*
X46191532Y-59576402D01*
X46191532Y-59522528D01*
X46002971Y-59333966D01*
X45895221Y-59441715D01*
X46487844Y-59333966D02*
X45922158Y-58768280D01*
X46137658Y-58552781D01*
X46218470Y-58525844D01*
X46272345Y-58525844D01*
X46353157Y-58552781D01*
X46433969Y-58633593D01*
X46460906Y-58714406D01*
X46460906Y-58768280D01*
X46433969Y-58849093D01*
X46218470Y-59064592D01*
X47349841Y-58471969D02*
X47026592Y-58795218D01*
X47188216Y-58633593D02*
X46622531Y-58067908D01*
X46649468Y-58202595D01*
X46649468Y-58310345D01*
X46622531Y-58391157D01*
X46972717Y-57717722D02*
X47322903Y-57367536D01*
X47349841Y-57771597D01*
X47430653Y-57690784D01*
X47511465Y-57663847D01*
X47565340Y-57663847D01*
X47646152Y-57690784D01*
X47780839Y-57825471D01*
X47807776Y-57906284D01*
X47807776Y-57960158D01*
X47780839Y-58040971D01*
X47619215Y-58202595D01*
X47538402Y-58229532D01*
X47484528Y-58229532D01*
X45533722Y-56524592D02*
X45452910Y-56551529D01*
X45372097Y-56632341D01*
X45318223Y-56740091D01*
X45318223Y-56847841D01*
X45345160Y-56928653D01*
X45425972Y-57063340D01*
X45506784Y-57144152D01*
X45641471Y-57224964D01*
X45722284Y-57251902D01*
X45830033Y-57251902D01*
X45937783Y-57198027D01*
X45991658Y-57144152D01*
X46045532Y-57036402D01*
X46045532Y-56982528D01*
X45856971Y-56793966D01*
X45749221Y-56901715D01*
X46341844Y-56793966D02*
X45776158Y-56228280D01*
X45991658Y-56012781D01*
X46072470Y-55985844D01*
X46126345Y-55985844D01*
X46207157Y-56012781D01*
X46287969Y-56093593D01*
X46314906Y-56174406D01*
X46314906Y-56228280D01*
X46287969Y-56309093D01*
X46072470Y-56524592D01*
X47203841Y-55931969D02*
X46880592Y-56255218D01*
X47042216Y-56093593D02*
X46476531Y-55527908D01*
X46503468Y-55662595D01*
X46503468Y-55770345D01*
X46476531Y-55851157D01*
X46907529Y-55204659D02*
X46907529Y-55150784D01*
X46934467Y-55069972D01*
X47069154Y-54935285D01*
X47149966Y-54908348D01*
X47203841Y-54908348D01*
X47284653Y-54935285D01*
X47338528Y-54989160D01*
X47392402Y-55096910D01*
X47392402Y-55743407D01*
X47742589Y-55393221D01*
X71643129Y-18691309D02*
X72397377Y-19068433D01*
X72020253Y-18314186D01*
X72666751Y-18206436D02*
X72774500Y-18152561D01*
X72828375Y-18152561D01*
X72909187Y-18179499D01*
X72989999Y-18260311D01*
X73016937Y-18341123D01*
X73016937Y-18394998D01*
X72990000Y-18475810D01*
X72774500Y-18691309D01*
X72208815Y-18125624D01*
X72397377Y-17937062D01*
X72478189Y-17910125D01*
X72532064Y-17910125D01*
X72612876Y-17937062D01*
X72666751Y-17990937D01*
X72693688Y-18071749D01*
X72693688Y-18125624D01*
X72666751Y-18206436D01*
X72478189Y-18394998D01*
X72774500Y-17559938D02*
X73232436Y-18017874D01*
X73313248Y-18044812D01*
X73367123Y-18044812D01*
X73447935Y-18017874D01*
X73555685Y-17910125D01*
X73582622Y-17829312D01*
X73582622Y-17775438D01*
X73555685Y-17694625D01*
X73097749Y-17236690D01*
X73878934Y-17533001D02*
X73986683Y-17479126D01*
X74121370Y-17344439D01*
X74148308Y-17263627D01*
X74148308Y-17209752D01*
X74121370Y-17128940D01*
X74067496Y-17075065D01*
X73986683Y-17048128D01*
X73932809Y-17048128D01*
X73851996Y-17075065D01*
X73717309Y-17155877D01*
X73636497Y-17182815D01*
X73582622Y-17182815D01*
X73501810Y-17155877D01*
X73447935Y-17102003D01*
X73420998Y-17021190D01*
X73420998Y-16967316D01*
X73447935Y-16886503D01*
X73582622Y-16751816D01*
X73690372Y-16697942D01*
X71787722Y-59064592D02*
X71706910Y-59091529D01*
X71626097Y-59172341D01*
X71572223Y-59280091D01*
X71572223Y-59387841D01*
X71599160Y-59468653D01*
X71679972Y-59603340D01*
X71760784Y-59684152D01*
X71895471Y-59764964D01*
X71976284Y-59791902D01*
X72084033Y-59791902D01*
X72191783Y-59738027D01*
X72245658Y-59684152D01*
X72299532Y-59576402D01*
X72299532Y-59522528D01*
X72110971Y-59333966D01*
X72003221Y-59441715D01*
X72595844Y-59333966D02*
X72030158Y-58768280D01*
X72245658Y-58552781D01*
X72326470Y-58525844D01*
X72380345Y-58525844D01*
X72461157Y-58552781D01*
X72541969Y-58633593D01*
X72568906Y-58714406D01*
X72568906Y-58768280D01*
X72541969Y-58849093D01*
X72326470Y-59064592D01*
X73457841Y-58471969D02*
X73134592Y-58795218D01*
X73296216Y-58633593D02*
X72730531Y-58067908D01*
X72757468Y-58202595D01*
X72757468Y-58310345D01*
X72730531Y-58391157D01*
X73457841Y-57825471D02*
X73377028Y-57852409D01*
X73323154Y-57852409D01*
X73242341Y-57825471D01*
X73215404Y-57798534D01*
X73188467Y-57717722D01*
X73188467Y-57663847D01*
X73215404Y-57583035D01*
X73323154Y-57475285D01*
X73403966Y-57448348D01*
X73457841Y-57448348D01*
X73538653Y-57475285D01*
X73565590Y-57502223D01*
X73592528Y-57583035D01*
X73592528Y-57636910D01*
X73565590Y-57717722D01*
X73457841Y-57825471D01*
X73430903Y-57906284D01*
X73430903Y-57960158D01*
X73457841Y-58040971D01*
X73565590Y-58148720D01*
X73646402Y-58175658D01*
X73700277Y-58175658D01*
X73781089Y-58148720D01*
X73888839Y-58040971D01*
X73915776Y-57960158D01*
X73915776Y-57906284D01*
X73888839Y-57825471D01*
X73781089Y-57717722D01*
X73700277Y-57690784D01*
X73646402Y-57690784D01*
X73565590Y-57717722D01*
X71841597Y-36904964D02*
X72110971Y-36635590D01*
X71949346Y-37120463D02*
X71572223Y-36366216D01*
X72326470Y-36743340D01*
X72272595Y-35719719D02*
X72191783Y-35746656D01*
X72110971Y-35827468D01*
X72057096Y-35935218D01*
X72057096Y-36042967D01*
X72084033Y-36123780D01*
X72164845Y-36258467D01*
X72245658Y-36339279D01*
X72380345Y-36420091D01*
X72461157Y-36447028D01*
X72568906Y-36447028D01*
X72676656Y-36393154D01*
X72730531Y-36339279D01*
X72784406Y-36231529D01*
X72784406Y-36177654D01*
X72595844Y-35989093D01*
X72488094Y-36096842D01*
X73080717Y-35989093D02*
X72515032Y-35423407D01*
X73403966Y-35665844D01*
X72838280Y-35100158D01*
X73673340Y-35396470D02*
X73107654Y-34830784D01*
X73242341Y-34696097D01*
X73350091Y-34642223D01*
X73457841Y-34642223D01*
X73538653Y-34669160D01*
X73673340Y-34749972D01*
X73754152Y-34830784D01*
X73834964Y-34965471D01*
X73861902Y-35046284D01*
X73861902Y-35154033D01*
X73808027Y-35261783D01*
X73673340Y-35396470D01*
X46176158Y-23262155D02*
X46095346Y-23289093D01*
X46014534Y-23369905D01*
X45960659Y-23477654D01*
X45960659Y-23585404D01*
X45987597Y-23666216D01*
X46068409Y-23800903D01*
X46149221Y-23881715D01*
X46283908Y-23962528D01*
X46364720Y-23989465D01*
X46472470Y-23989465D01*
X46580219Y-23935590D01*
X46634094Y-23881715D01*
X46687969Y-23773966D01*
X46687969Y-23720091D01*
X46499407Y-23531529D01*
X46391658Y-23639279D01*
X46984280Y-23531529D02*
X46418595Y-22965844D01*
X47307529Y-23208280D01*
X46741844Y-22642595D01*
X47576903Y-22938906D02*
X47011218Y-22373221D01*
X47145905Y-22238534D01*
X47253654Y-22184659D01*
X47361404Y-22184659D01*
X47442216Y-22211597D01*
X47576903Y-22292409D01*
X47657715Y-22373221D01*
X47738528Y-22507908D01*
X47765465Y-22588720D01*
X47765465Y-22696470D01*
X47711590Y-22804219D01*
X47576903Y-22938906D01*
X71610473Y-21233966D02*
X72364720Y-21611089D01*
X71987597Y-20856842D01*
X72687969Y-21233966D02*
X72795719Y-21180091D01*
X72930406Y-21045404D01*
X72957343Y-20964592D01*
X72957343Y-20910717D01*
X72930406Y-20829905D01*
X72876531Y-20776030D01*
X72795719Y-20749093D01*
X72741844Y-20749093D01*
X72661032Y-20776030D01*
X72526345Y-20856842D01*
X72445532Y-20883780D01*
X72391658Y-20883780D01*
X72310845Y-20856842D01*
X72256971Y-20802967D01*
X72230033Y-20722155D01*
X72230033Y-20668280D01*
X72256971Y-20587468D01*
X72391658Y-20452781D01*
X72499407Y-20398906D01*
X73118967Y-20318094D02*
X73388341Y-20587468D01*
X72634094Y-20210345D02*
X73118967Y-20318094D01*
X73011218Y-19833221D01*
X73711590Y-20210345D02*
X73819340Y-20156470D01*
X73954027Y-20021783D01*
X73980964Y-19940971D01*
X73980964Y-19887096D01*
X73954027Y-19806284D01*
X73900152Y-19752409D01*
X73819340Y-19725471D01*
X73765465Y-19725471D01*
X73684653Y-19752409D01*
X73549966Y-19833221D01*
X73469154Y-19860158D01*
X73415279Y-19860158D01*
X73334467Y-19833221D01*
X73280592Y-19779346D01*
X73253654Y-19698534D01*
X73253654Y-19644659D01*
X73280592Y-19563847D01*
X73415279Y-19429160D01*
X73523028Y-19375285D01*
X71787722Y-66684592D02*
X71706910Y-66711529D01*
X71626097Y-66792341D01*
X71572223Y-66900091D01*
X71572223Y-67007841D01*
X71599160Y-67088653D01*
X71679972Y-67223340D01*
X71760784Y-67304152D01*
X71895471Y-67384964D01*
X71976284Y-67411902D01*
X72084033Y-67411902D01*
X72191783Y-67358027D01*
X72245658Y-67304152D01*
X72299532Y-67196402D01*
X72299532Y-67142528D01*
X72110971Y-66953966D01*
X72003221Y-67061715D01*
X72595844Y-66953966D02*
X72030158Y-66388280D01*
X72245658Y-66172781D01*
X72326470Y-66145844D01*
X72380345Y-66145844D01*
X72461157Y-66172781D01*
X72541969Y-66253593D01*
X72568906Y-66334406D01*
X72568906Y-66388280D01*
X72541969Y-66469093D01*
X72326470Y-66684592D01*
X73457841Y-66091969D02*
X73134592Y-66415218D01*
X73296216Y-66253593D02*
X72730531Y-65687908D01*
X72757468Y-65822595D01*
X72757468Y-65930345D01*
X72730531Y-66011157D01*
X73377028Y-65041410D02*
X73269279Y-65149160D01*
X73242341Y-65229972D01*
X73242341Y-65283847D01*
X73269279Y-65418534D01*
X73350091Y-65553221D01*
X73565590Y-65768720D01*
X73646402Y-65795658D01*
X73700277Y-65795658D01*
X73781089Y-65768720D01*
X73888839Y-65660971D01*
X73915776Y-65580158D01*
X73915776Y-65526284D01*
X73888839Y-65445471D01*
X73754152Y-65310784D01*
X73673340Y-65283847D01*
X73619465Y-65283847D01*
X73538653Y-65310784D01*
X73430903Y-65418534D01*
X73403966Y-65499346D01*
X73403966Y-65553221D01*
X73430903Y-65634033D01*
X71579847Y-28654592D02*
X71930033Y-28304406D01*
X71956971Y-28708467D01*
X72037783Y-28627654D01*
X72118595Y-28600717D01*
X72172470Y-28600717D01*
X72253282Y-28627654D01*
X72387969Y-28762341D01*
X72414906Y-28843154D01*
X72414906Y-28897028D01*
X72387969Y-28977841D01*
X72226345Y-29139465D01*
X72145532Y-29166402D01*
X72091658Y-29166402D01*
X72091658Y-28142781D02*
X72845905Y-28519905D01*
X72468781Y-27765658D01*
X72603468Y-27630971D02*
X72953654Y-27280784D01*
X72980592Y-27684845D01*
X73061404Y-27604033D01*
X73142216Y-27577096D01*
X73196091Y-27577096D01*
X73276903Y-27604033D01*
X73411590Y-27738720D01*
X73438528Y-27819532D01*
X73438528Y-27873407D01*
X73411590Y-27954219D01*
X73249966Y-28115844D01*
X73169154Y-28142781D01*
X73115279Y-28142781D01*
X71787722Y-38754592D02*
X71706910Y-38781529D01*
X71626097Y-38862341D01*
X71572223Y-38970091D01*
X71572223Y-39077841D01*
X71599160Y-39158653D01*
X71679972Y-39293340D01*
X71760784Y-39374152D01*
X71895471Y-39454964D01*
X71976284Y-39481902D01*
X72084033Y-39481902D01*
X72191783Y-39428027D01*
X72245658Y-39374152D01*
X72299532Y-39266402D01*
X72299532Y-39212528D01*
X72110971Y-39023966D01*
X72003221Y-39131715D01*
X72595844Y-39023966D02*
X72030158Y-38458280D01*
X72245658Y-38242781D01*
X72326470Y-38215844D01*
X72380345Y-38215844D01*
X72461157Y-38242781D01*
X72541969Y-38323593D01*
X72568906Y-38404406D01*
X72568906Y-38458280D01*
X72541969Y-38539093D01*
X72326470Y-38754592D01*
X72622781Y-37973407D02*
X72622781Y-37919532D01*
X72649719Y-37838720D01*
X72784406Y-37704033D01*
X72865218Y-37677096D01*
X72919093Y-37677096D01*
X72999905Y-37704033D01*
X73053780Y-37757908D01*
X73107654Y-37865658D01*
X73107654Y-38512155D01*
X73457841Y-38161969D01*
X73080717Y-37407722D02*
X73457841Y-37030598D01*
X73781089Y-37838720D01*
%TO.C,R2*%
X72477333Y-69668380D02*
X72144000Y-69192190D01*
X71905904Y-69668380D02*
X71905904Y-68668380D01*
X72286857Y-68668380D01*
X72382095Y-68716000D01*
X72429714Y-68763619D01*
X72477333Y-68858857D01*
X72477333Y-69001714D01*
X72429714Y-69096952D01*
X72382095Y-69144571D01*
X72286857Y-69192190D01*
X71905904Y-69192190D01*
X72858285Y-68763619D02*
X72905904Y-68716000D01*
X73001142Y-68668380D01*
X73239238Y-68668380D01*
X73334476Y-68716000D01*
X73382095Y-68763619D01*
X73429714Y-68858857D01*
X73429714Y-68954095D01*
X73382095Y-69096952D01*
X72810666Y-69668380D01*
X73429714Y-69668380D01*
%TO.C,R7*%
X77414380Y-46902666D02*
X76938190Y-47236000D01*
X77414380Y-47474095D02*
X76414380Y-47474095D01*
X76414380Y-47093142D01*
X76462000Y-46997904D01*
X76509619Y-46950285D01*
X76604857Y-46902666D01*
X76747714Y-46902666D01*
X76842952Y-46950285D01*
X76890571Y-46997904D01*
X76938190Y-47093142D01*
X76938190Y-47474095D01*
X76414380Y-46569333D02*
X76414380Y-45902666D01*
X77414380Y-46331238D01*
%TO.C,J3*%
X32432666Y-81047880D02*
X32432666Y-81762166D01*
X32385047Y-81905023D01*
X32289809Y-82000261D01*
X32146952Y-82047880D01*
X32051714Y-82047880D01*
X32813619Y-81047880D02*
X33432666Y-81047880D01*
X33099333Y-81428833D01*
X33242190Y-81428833D01*
X33337428Y-81476452D01*
X33385047Y-81524071D01*
X33432666Y-81619309D01*
X33432666Y-81857404D01*
X33385047Y-81952642D01*
X33337428Y-82000261D01*
X33242190Y-82047880D01*
X32956476Y-82047880D01*
X32861238Y-82000261D01*
X32813619Y-81952642D01*
%TO.C,J5*%
X83502666Y-107192380D02*
X83502666Y-107906666D01*
X83455047Y-108049523D01*
X83359809Y-108144761D01*
X83216952Y-108192380D01*
X83121714Y-108192380D01*
X84455047Y-107192380D02*
X83978857Y-107192380D01*
X83931238Y-107668571D01*
X83978857Y-107620952D01*
X84074095Y-107573333D01*
X84312190Y-107573333D01*
X84407428Y-107620952D01*
X84455047Y-107668571D01*
X84502666Y-107763809D01*
X84502666Y-108001904D01*
X84455047Y-108097142D01*
X84407428Y-108144761D01*
X84312190Y-108192380D01*
X84074095Y-108192380D01*
X83978857Y-108144761D01*
X83931238Y-108097142D01*
%TO.C,U2*%
X28824595Y-142032380D02*
X28824595Y-142841904D01*
X28872214Y-142937142D01*
X28919833Y-142984761D01*
X29015071Y-143032380D01*
X29205547Y-143032380D01*
X29300785Y-142984761D01*
X29348404Y-142937142D01*
X29396023Y-142841904D01*
X29396023Y-142032380D01*
X29824595Y-142127619D02*
X29872214Y-142080000D01*
X29967452Y-142032380D01*
X30205547Y-142032380D01*
X30300785Y-142080000D01*
X30348404Y-142127619D01*
X30396023Y-142222857D01*
X30396023Y-142318095D01*
X30348404Y-142460952D01*
X29776976Y-143032380D01*
X30396023Y-143032380D01*
X29161619Y-150434523D02*
X29887333Y-150434523D01*
X29524476Y-151704523D02*
X29524476Y-150434523D01*
X30975904Y-150495000D02*
X30854952Y-150434523D01*
X30673523Y-150434523D01*
X30492095Y-150495000D01*
X30371142Y-150615952D01*
X30310666Y-150736904D01*
X30250190Y-150978809D01*
X30250190Y-151160238D01*
X30310666Y-151402142D01*
X30371142Y-151523095D01*
X30492095Y-151644047D01*
X30673523Y-151704523D01*
X30794476Y-151704523D01*
X30975904Y-151644047D01*
X31036380Y-151583571D01*
X31036380Y-151160238D01*
X30794476Y-151160238D01*
X31520190Y-151644047D02*
X31701619Y-151704523D01*
X32003999Y-151704523D01*
X32124952Y-151644047D01*
X32185428Y-151583571D01*
X32245904Y-151462619D01*
X32245904Y-151341666D01*
X32185428Y-151220714D01*
X32124952Y-151160238D01*
X32003999Y-151099761D01*
X31762095Y-151039285D01*
X31641142Y-150978809D01*
X31580666Y-150918333D01*
X31520190Y-150797380D01*
X31520190Y-150676428D01*
X31580666Y-150555476D01*
X31641142Y-150495000D01*
X31762095Y-150434523D01*
X32064476Y-150434523D01*
X32245904Y-150495000D01*
X33394952Y-150434523D02*
X32790190Y-150434523D01*
X32729714Y-151039285D01*
X32790190Y-150978809D01*
X32911142Y-150918333D01*
X33213523Y-150918333D01*
X33334476Y-150978809D01*
X33394952Y-151039285D01*
X33455428Y-151160238D01*
X33455428Y-151462619D01*
X33394952Y-151583571D01*
X33334476Y-151644047D01*
X33213523Y-151704523D01*
X32911142Y-151704523D01*
X32790190Y-151644047D01*
X32729714Y-151583571D01*
X34664952Y-151704523D02*
X33939238Y-151704523D01*
X34302095Y-151704523D02*
X34302095Y-150434523D01*
X34181142Y-150615952D01*
X34060190Y-150736904D01*
X33939238Y-150797380D01*
X35753523Y-150857857D02*
X35753523Y-151704523D01*
X35451142Y-150374047D02*
X35148761Y-151281190D01*
X35934952Y-151281190D01*
X37084000Y-151704523D02*
X36358285Y-151704523D01*
X36721142Y-151704523D02*
X36721142Y-150434523D01*
X36600190Y-150615952D01*
X36479238Y-150736904D01*
X36358285Y-150797380D01*
X37628285Y-151220714D02*
X38595904Y-151220714D01*
X39200666Y-151704523D02*
X39200666Y-150434523D01*
X39684476Y-150434523D01*
X39805428Y-150495000D01*
X39865904Y-150555476D01*
X39926380Y-150676428D01*
X39926380Y-150857857D01*
X39865904Y-150978809D01*
X39805428Y-151039285D01*
X39684476Y-151099761D01*
X39200666Y-151099761D01*
X40712571Y-150434523D02*
X40833523Y-150434523D01*
X40954476Y-150495000D01*
X41014952Y-150555476D01*
X41075428Y-150676428D01*
X41135904Y-150918333D01*
X41135904Y-151220714D01*
X41075428Y-151462619D01*
X41014952Y-151583571D01*
X40954476Y-151644047D01*
X40833523Y-151704523D01*
X40712571Y-151704523D01*
X40591619Y-151644047D01*
X40531142Y-151583571D01*
X40470666Y-151462619D01*
X40410190Y-151220714D01*
X40410190Y-150918333D01*
X40470666Y-150676428D01*
X40531142Y-150555476D01*
X40591619Y-150495000D01*
X40712571Y-150434523D01*
X41922095Y-150434523D02*
X42043047Y-150434523D01*
X42164000Y-150495000D01*
X42224476Y-150555476D01*
X42284952Y-150676428D01*
X42345428Y-150918333D01*
X42345428Y-151220714D01*
X42284952Y-151462619D01*
X42224476Y-151583571D01*
X42164000Y-151644047D01*
X42043047Y-151704523D01*
X41922095Y-151704523D01*
X41801142Y-151644047D01*
X41740666Y-151583571D01*
X41680190Y-151462619D01*
X41619714Y-151220714D01*
X41619714Y-150918333D01*
X41680190Y-150676428D01*
X41740666Y-150555476D01*
X41801142Y-150495000D01*
X41922095Y-150434523D01*
D11*
%TO.C,IC2*%
X67884523Y-152115761D02*
X66614523Y-152115761D01*
X67763571Y-150785285D02*
X67824047Y-150845761D01*
X67884523Y-151027190D01*
X67884523Y-151148142D01*
X67824047Y-151329571D01*
X67703095Y-151450523D01*
X67582142Y-151511000D01*
X67340238Y-151571476D01*
X67158809Y-151571476D01*
X66916904Y-151511000D01*
X66795952Y-151450523D01*
X66675000Y-151329571D01*
X66614523Y-151148142D01*
X66614523Y-151027190D01*
X66675000Y-150845761D01*
X66735476Y-150785285D01*
X66735476Y-150301476D02*
X66675000Y-150241000D01*
X66614523Y-150120047D01*
X66614523Y-149817666D01*
X66675000Y-149696714D01*
X66735476Y-149636238D01*
X66856428Y-149575761D01*
X66977380Y-149575761D01*
X67158809Y-149636238D01*
X67884523Y-150361952D01*
X67884523Y-149575761D01*
D10*
%TO.C,C3*%
X77475142Y-34964666D02*
X77522761Y-35012285D01*
X77570380Y-35155142D01*
X77570380Y-35250380D01*
X77522761Y-35393238D01*
X77427523Y-35488476D01*
X77332285Y-35536095D01*
X77141809Y-35583714D01*
X76998952Y-35583714D01*
X76808476Y-35536095D01*
X76713238Y-35488476D01*
X76618000Y-35393238D01*
X76570380Y-35250380D01*
X76570380Y-35155142D01*
X76618000Y-35012285D01*
X76665619Y-34964666D01*
X76570380Y-34631333D02*
X76570380Y-34012285D01*
X76951333Y-34345619D01*
X76951333Y-34202761D01*
X76998952Y-34107523D01*
X77046571Y-34059904D01*
X77141809Y-34012285D01*
X77379904Y-34012285D01*
X77475142Y-34059904D01*
X77522761Y-34107523D01*
X77570380Y-34202761D01*
X77570380Y-34488476D01*
X77522761Y-34583714D01*
X77475142Y-34631333D01*
%TO.C,J6*%
X83486666Y-40815380D02*
X83486666Y-41529666D01*
X83439047Y-41672523D01*
X83343809Y-41767761D01*
X83200952Y-41815380D01*
X83105714Y-41815380D01*
X84391428Y-40815380D02*
X84200952Y-40815380D01*
X84105714Y-40863000D01*
X84058095Y-40910619D01*
X83962857Y-41053476D01*
X83915238Y-41243952D01*
X83915238Y-41624904D01*
X83962857Y-41720142D01*
X84010476Y-41767761D01*
X84105714Y-41815380D01*
X84296190Y-41815380D01*
X84391428Y-41767761D01*
X84439047Y-41720142D01*
X84486666Y-41624904D01*
X84486666Y-41386809D01*
X84439047Y-41291571D01*
X84391428Y-41243952D01*
X84296190Y-41196333D01*
X84105714Y-41196333D01*
X84010476Y-41243952D01*
X83962857Y-41291571D01*
X83915238Y-41386809D01*
%TO.C,BZ1*%
X65040571Y-91304952D02*
X65088190Y-91162095D01*
X65135809Y-91114476D01*
X65231047Y-91066857D01*
X65373904Y-91066857D01*
X65469142Y-91114476D01*
X65516761Y-91162095D01*
X65564380Y-91257333D01*
X65564380Y-91638285D01*
X64564380Y-91638285D01*
X64564380Y-91304952D01*
X64612000Y-91209714D01*
X64659619Y-91162095D01*
X64754857Y-91114476D01*
X64850095Y-91114476D01*
X64945333Y-91162095D01*
X64992952Y-91209714D01*
X65040571Y-91304952D01*
X65040571Y-91638285D01*
X64564380Y-90733523D02*
X64564380Y-90066857D01*
X65564380Y-90733523D01*
X65564380Y-90066857D01*
X65564380Y-89162095D02*
X65564380Y-89733523D01*
X65564380Y-89447809D02*
X64564380Y-89447809D01*
X64707238Y-89543047D01*
X64802476Y-89638285D01*
X64850095Y-89733523D01*
X60523428Y-86994952D02*
X60523428Y-86233047D01*
X60904380Y-86614000D02*
X60142476Y-86614000D01*
%TO.C,R3*%
X76795333Y-67762380D02*
X76462000Y-67286190D01*
X76223904Y-67762380D02*
X76223904Y-66762380D01*
X76604857Y-66762380D01*
X76700095Y-66810000D01*
X76747714Y-66857619D01*
X76795333Y-66952857D01*
X76795333Y-67095714D01*
X76747714Y-67190952D01*
X76700095Y-67238571D01*
X76604857Y-67286190D01*
X76223904Y-67286190D01*
X77128666Y-66762380D02*
X77747714Y-66762380D01*
X77414380Y-67143333D01*
X77557238Y-67143333D01*
X77652476Y-67190952D01*
X77700095Y-67238571D01*
X77747714Y-67333809D01*
X77747714Y-67571904D01*
X77700095Y-67667142D01*
X77652476Y-67714761D01*
X77557238Y-67762380D01*
X77271523Y-67762380D01*
X77176285Y-67714761D01*
X77128666Y-67667142D01*
%TO.C,J1*%
X70024666Y-133774380D02*
X70024666Y-134488666D01*
X69977047Y-134631523D01*
X69881809Y-134726761D01*
X69738952Y-134774380D01*
X69643714Y-134774380D01*
X71024666Y-134774380D02*
X70453238Y-134774380D01*
X70738952Y-134774380D02*
X70738952Y-133774380D01*
X70643714Y-133917238D01*
X70548476Y-134012476D01*
X70453238Y-134060095D01*
%TO.C,R15*%
X78843142Y-57602380D02*
X78509809Y-57126190D01*
X78271714Y-57602380D02*
X78271714Y-56602380D01*
X78652666Y-56602380D01*
X78747904Y-56650000D01*
X78795523Y-56697619D01*
X78843142Y-56792857D01*
X78843142Y-56935714D01*
X78795523Y-57030952D01*
X78747904Y-57078571D01*
X78652666Y-57126190D01*
X78271714Y-57126190D01*
X79795523Y-57602380D02*
X79224095Y-57602380D01*
X79509809Y-57602380D02*
X79509809Y-56602380D01*
X79414571Y-56745238D01*
X79319333Y-56840476D01*
X79224095Y-56888095D01*
X80700285Y-56602380D02*
X80224095Y-56602380D01*
X80176476Y-57078571D01*
X80224095Y-57030952D01*
X80319333Y-56983333D01*
X80557428Y-56983333D01*
X80652666Y-57030952D01*
X80700285Y-57078571D01*
X80747904Y-57173809D01*
X80747904Y-57411904D01*
X80700285Y-57507142D01*
X80652666Y-57554761D01*
X80557428Y-57602380D01*
X80319333Y-57602380D01*
X80224095Y-57554761D01*
X80176476Y-57507142D01*
%TO.C,U1*%
X52556595Y-135124380D02*
X52556595Y-135933904D01*
X52604214Y-136029142D01*
X52651833Y-136076761D01*
X52747071Y-136124380D01*
X52937547Y-136124380D01*
X53032785Y-136076761D01*
X53080404Y-136029142D01*
X53128023Y-135933904D01*
X53128023Y-135124380D01*
X54128023Y-136124380D02*
X53556595Y-136124380D01*
X53842309Y-136124380D02*
X53842309Y-135124380D01*
X53747071Y-135267238D01*
X53651833Y-135362476D01*
X53556595Y-135410095D01*
%TO.C,C4*%
X87635142Y-29884666D02*
X87682761Y-29932285D01*
X87730380Y-30075142D01*
X87730380Y-30170380D01*
X87682761Y-30313238D01*
X87587523Y-30408476D01*
X87492285Y-30456095D01*
X87301809Y-30503714D01*
X87158952Y-30503714D01*
X86968476Y-30456095D01*
X86873238Y-30408476D01*
X86778000Y-30313238D01*
X86730380Y-30170380D01*
X86730380Y-30075142D01*
X86778000Y-29932285D01*
X86825619Y-29884666D01*
X87063714Y-29027523D02*
X87730380Y-29027523D01*
X86682761Y-29265619D02*
X87397047Y-29503714D01*
X87397047Y-28884666D01*
%TO.C,R9*%
X67397333Y-76673380D02*
X67064000Y-76197190D01*
X66825904Y-76673380D02*
X66825904Y-75673380D01*
X67206857Y-75673380D01*
X67302095Y-75721000D01*
X67349714Y-75768619D01*
X67397333Y-75863857D01*
X67397333Y-76006714D01*
X67349714Y-76101952D01*
X67302095Y-76149571D01*
X67206857Y-76197190D01*
X66825904Y-76197190D01*
X67873523Y-76673380D02*
X68064000Y-76673380D01*
X68159238Y-76625761D01*
X68206857Y-76578142D01*
X68302095Y-76435285D01*
X68349714Y-76244809D01*
X68349714Y-75863857D01*
X68302095Y-75768619D01*
X68254476Y-75721000D01*
X68159238Y-75673380D01*
X67968761Y-75673380D01*
X67873523Y-75721000D01*
X67825904Y-75768619D01*
X67778285Y-75863857D01*
X67778285Y-76101952D01*
X67825904Y-76197190D01*
X67873523Y-76244809D01*
X67968761Y-76292428D01*
X68159238Y-76292428D01*
X68254476Y-76244809D01*
X68302095Y-76197190D01*
X68349714Y-76101952D01*
%TO.C,C2*%
X44397142Y-138088666D02*
X44444761Y-138136285D01*
X44492380Y-138279142D01*
X44492380Y-138374380D01*
X44444761Y-138517238D01*
X44349523Y-138612476D01*
X44254285Y-138660095D01*
X44063809Y-138707714D01*
X43920952Y-138707714D01*
X43730476Y-138660095D01*
X43635238Y-138612476D01*
X43540000Y-138517238D01*
X43492380Y-138374380D01*
X43492380Y-138279142D01*
X43540000Y-138136285D01*
X43587619Y-138088666D01*
X43587619Y-137707714D02*
X43540000Y-137660095D01*
X43492380Y-137564857D01*
X43492380Y-137326761D01*
X43540000Y-137231523D01*
X43587619Y-137183904D01*
X43682857Y-137136285D01*
X43778095Y-137136285D01*
X43920952Y-137183904D01*
X44492380Y-137755333D01*
X44492380Y-137136285D01*
%TO.C,R5*%
X78859333Y-60142380D02*
X78526000Y-59666190D01*
X78287904Y-60142380D02*
X78287904Y-59142380D01*
X78668857Y-59142380D01*
X78764095Y-59190000D01*
X78811714Y-59237619D01*
X78859333Y-59332857D01*
X78859333Y-59475714D01*
X78811714Y-59570952D01*
X78764095Y-59618571D01*
X78668857Y-59666190D01*
X78287904Y-59666190D01*
X79764095Y-59142380D02*
X79287904Y-59142380D01*
X79240285Y-59618571D01*
X79287904Y-59570952D01*
X79383142Y-59523333D01*
X79621238Y-59523333D01*
X79716476Y-59570952D01*
X79764095Y-59618571D01*
X79811714Y-59713809D01*
X79811714Y-59951904D01*
X79764095Y-60047142D01*
X79716476Y-60094761D01*
X79621238Y-60142380D01*
X79383142Y-60142380D01*
X79287904Y-60094761D01*
X79240285Y-60047142D01*
%TO.C,R16*%
X79367142Y-89860380D02*
X79033809Y-89384190D01*
X78795714Y-89860380D02*
X78795714Y-88860380D01*
X79176666Y-88860380D01*
X79271904Y-88908000D01*
X79319523Y-88955619D01*
X79367142Y-89050857D01*
X79367142Y-89193714D01*
X79319523Y-89288952D01*
X79271904Y-89336571D01*
X79176666Y-89384190D01*
X78795714Y-89384190D01*
X80319523Y-89860380D02*
X79748095Y-89860380D01*
X80033809Y-89860380D02*
X80033809Y-88860380D01*
X79938571Y-89003238D01*
X79843333Y-89098476D01*
X79748095Y-89146095D01*
X81176666Y-88860380D02*
X80986190Y-88860380D01*
X80890952Y-88908000D01*
X80843333Y-88955619D01*
X80748095Y-89098476D01*
X80700476Y-89288952D01*
X80700476Y-89669904D01*
X80748095Y-89765142D01*
X80795714Y-89812761D01*
X80890952Y-89860380D01*
X81081428Y-89860380D01*
X81176666Y-89812761D01*
X81224285Y-89765142D01*
X81271904Y-89669904D01*
X81271904Y-89431809D01*
X81224285Y-89336571D01*
X81176666Y-89288952D01*
X81081428Y-89241333D01*
X80890952Y-89241333D01*
X80795714Y-89288952D01*
X80748095Y-89336571D01*
X80700476Y-89431809D01*
%TO.C,R20*%
X74303142Y-77922380D02*
X73969809Y-77446190D01*
X73731714Y-77922380D02*
X73731714Y-76922380D01*
X74112666Y-76922380D01*
X74207904Y-76970000D01*
X74255523Y-77017619D01*
X74303142Y-77112857D01*
X74303142Y-77255714D01*
X74255523Y-77350952D01*
X74207904Y-77398571D01*
X74112666Y-77446190D01*
X73731714Y-77446190D01*
X74684095Y-77017619D02*
X74731714Y-76970000D01*
X74826952Y-76922380D01*
X75065047Y-76922380D01*
X75160285Y-76970000D01*
X75207904Y-77017619D01*
X75255523Y-77112857D01*
X75255523Y-77208095D01*
X75207904Y-77350952D01*
X74636476Y-77922380D01*
X75255523Y-77922380D01*
X75874571Y-76922380D02*
X75969809Y-76922380D01*
X76065047Y-76970000D01*
X76112666Y-77017619D01*
X76160285Y-77112857D01*
X76207904Y-77303333D01*
X76207904Y-77541428D01*
X76160285Y-77731904D01*
X76112666Y-77827142D01*
X76065047Y-77874761D01*
X75969809Y-77922380D01*
X75874571Y-77922380D01*
X75779333Y-77874761D01*
X75731714Y-77827142D01*
X75684095Y-77731904D01*
X75636476Y-77541428D01*
X75636476Y-77303333D01*
X75684095Y-77112857D01*
X75731714Y-77017619D01*
X75779333Y-76970000D01*
X75874571Y-76922380D01*
%TO.C,R13*%
X31748380Y-66236357D02*
X31272190Y-66569690D01*
X31748380Y-66807785D02*
X30748380Y-66807785D01*
X30748380Y-66426833D01*
X30796000Y-66331595D01*
X30843619Y-66283976D01*
X30938857Y-66236357D01*
X31081714Y-66236357D01*
X31176952Y-66283976D01*
X31224571Y-66331595D01*
X31272190Y-66426833D01*
X31272190Y-66807785D01*
X31748380Y-65283976D02*
X31748380Y-65855404D01*
X31748380Y-65569690D02*
X30748380Y-65569690D01*
X30891238Y-65664928D01*
X30986476Y-65760166D01*
X31034095Y-65855404D01*
X30748380Y-64950642D02*
X30748380Y-64331595D01*
X31129333Y-64664928D01*
X31129333Y-64522071D01*
X31176952Y-64426833D01*
X31224571Y-64379214D01*
X31319809Y-64331595D01*
X31557904Y-64331595D01*
X31653142Y-64379214D01*
X31700761Y-64426833D01*
X31748380Y-64522071D01*
X31748380Y-64807785D01*
X31700761Y-64903023D01*
X31653142Y-64950642D01*
%TO.C,R18*%
X74319142Y-83002380D02*
X73985809Y-82526190D01*
X73747714Y-83002380D02*
X73747714Y-82002380D01*
X74128666Y-82002380D01*
X74223904Y-82050000D01*
X74271523Y-82097619D01*
X74319142Y-82192857D01*
X74319142Y-82335714D01*
X74271523Y-82430952D01*
X74223904Y-82478571D01*
X74128666Y-82526190D01*
X73747714Y-82526190D01*
X75271523Y-83002380D02*
X74700095Y-83002380D01*
X74985809Y-83002380D02*
X74985809Y-82002380D01*
X74890571Y-82145238D01*
X74795333Y-82240476D01*
X74700095Y-82288095D01*
X75842952Y-82430952D02*
X75747714Y-82383333D01*
X75700095Y-82335714D01*
X75652476Y-82240476D01*
X75652476Y-82192857D01*
X75700095Y-82097619D01*
X75747714Y-82050000D01*
X75842952Y-82002380D01*
X76033428Y-82002380D01*
X76128666Y-82050000D01*
X76176285Y-82097619D01*
X76223904Y-82192857D01*
X76223904Y-82240476D01*
X76176285Y-82335714D01*
X76128666Y-82383333D01*
X76033428Y-82430952D01*
X75842952Y-82430952D01*
X75747714Y-82478571D01*
X75700095Y-82526190D01*
X75652476Y-82621428D01*
X75652476Y-82811904D01*
X75700095Y-82907142D01*
X75747714Y-82954761D01*
X75842952Y-83002380D01*
X76033428Y-83002380D01*
X76128666Y-82954761D01*
X76176285Y-82907142D01*
X76223904Y-82811904D01*
X76223904Y-82621428D01*
X76176285Y-82526190D01*
X76128666Y-82478571D01*
X76033428Y-82430952D01*
%TO.C,R8*%
X80208380Y-49696666D02*
X79732190Y-50030000D01*
X80208380Y-50268095D02*
X79208380Y-50268095D01*
X79208380Y-49887142D01*
X79256000Y-49791904D01*
X79303619Y-49744285D01*
X79398857Y-49696666D01*
X79541714Y-49696666D01*
X79636952Y-49744285D01*
X79684571Y-49791904D01*
X79732190Y-49887142D01*
X79732190Y-50268095D01*
X79636952Y-49125238D02*
X79589333Y-49220476D01*
X79541714Y-49268095D01*
X79446476Y-49315714D01*
X79398857Y-49315714D01*
X79303619Y-49268095D01*
X79256000Y-49220476D01*
X79208380Y-49125238D01*
X79208380Y-48934761D01*
X79256000Y-48839523D01*
X79303619Y-48791904D01*
X79398857Y-48744285D01*
X79446476Y-48744285D01*
X79541714Y-48791904D01*
X79589333Y-48839523D01*
X79636952Y-48934761D01*
X79636952Y-49125238D01*
X79684571Y-49220476D01*
X79732190Y-49268095D01*
X79827428Y-49315714D01*
X80017904Y-49315714D01*
X80113142Y-49268095D01*
X80160761Y-49220476D01*
X80208380Y-49125238D01*
X80208380Y-48934761D01*
X80160761Y-48839523D01*
X80113142Y-48791904D01*
X80017904Y-48744285D01*
X79827428Y-48744285D01*
X79732190Y-48791904D01*
X79684571Y-48839523D01*
X79636952Y-48934761D01*
D12*
%TO.C,R17*%
X80237064Y-84355000D02*
X79782936Y-84355000D01*
X80237064Y-85825000D02*
X79782936Y-85825000D01*
%TO.C,J4*%
X85166000Y-87630000D02*
X85166000Y-88960000D01*
X82506000Y-86360000D02*
X82506000Y-76140000D01*
X85166000Y-76140000D02*
X82506000Y-76140000D01*
X85166000Y-86360000D02*
X82506000Y-86360000D01*
X85166000Y-88960000D02*
X83836000Y-88960000D01*
X85166000Y-86360000D02*
X85166000Y-76140000D01*
%TO.C,J2*%
X74362000Y-136652000D02*
X74362000Y-135322000D01*
X74362000Y-135322000D02*
X75692000Y-135322000D01*
X74362000Y-140522000D02*
X77022000Y-140522000D01*
X74362000Y-137922000D02*
X74362000Y-140522000D01*
X77022000Y-137922000D02*
X77022000Y-140522000D01*
X74362000Y-137922000D02*
X77022000Y-137922000D01*
%TO.C,R14*%
X27913000Y-65334436D02*
X27913000Y-65788564D01*
X26443000Y-65334436D02*
X26443000Y-65788564D01*
%TO.C,J7*%
X82490000Y-62748000D02*
X82490000Y-72968000D01*
X82490000Y-60148000D02*
X83820000Y-60148000D01*
X82490000Y-72968000D02*
X85150000Y-72968000D01*
X82490000Y-62748000D02*
X85150000Y-62748000D01*
X85150000Y-62748000D02*
X85150000Y-72968000D01*
X82490000Y-61478000D02*
X82490000Y-60148000D01*
%TO.C,R6*%
X74449000Y-44984936D02*
X74449000Y-45439064D01*
X75919000Y-44984936D02*
X75919000Y-45439064D01*
D13*
%TO.C,IC3*%
X59718000Y-150876000D02*
X59718000Y-150876000D01*
D14*
X52578000Y-155676000D02*
X52578000Y-155676000D01*
D13*
X50518000Y-150876000D02*
X50518000Y-150876000D01*
D14*
X52578000Y-155576000D02*
X52578000Y-155576000D01*
X52578000Y-155576000D02*
G75*
G03*
X52578000Y-155676000I0J-50000D01*
G01*
D13*
X50518000Y-150876000D02*
G75*
G03*
X59718000Y-150876000I4600000J0D01*
G01*
D14*
X52578000Y-155676000D02*
G75*
G03*
X52578000Y-155576000I0J50000D01*
G01*
D13*
X59718000Y-150876000D02*
G75*
G03*
X50518000Y-150876000I-4600000J0D01*
G01*
D12*
%TO.C,R12*%
X37881000Y-65366436D02*
X37881000Y-65820564D01*
X36411000Y-65366436D02*
X36411000Y-65820564D01*
%TO.C,R4*%
X72871064Y-73633000D02*
X72416936Y-73633000D01*
X72871064Y-72163000D02*
X72416936Y-72163000D01*
%TO.C,Q1*%
X76962000Y-70322000D02*
X75287000Y-70322000D01*
X76962000Y-73442000D02*
X77612000Y-73442000D01*
X76962000Y-70322000D02*
X77612000Y-70322000D01*
X76962000Y-73442000D02*
X76312000Y-73442000D01*
D15*
%TO.C,PS1*%
X78280000Y-26164000D02*
X84280000Y-26164000D01*
X78280000Y-37844000D02*
X78280000Y-26164000D01*
X84280000Y-37844000D02*
X78280000Y-37844000D01*
X84280000Y-26164000D02*
X84280000Y-37844000D01*
D13*
X82780000Y-38604000D02*
G75*
G03*
X82780000Y-38604000I-100000J0D01*
G01*
D12*
%TO.C,Q2*%
X77506000Y-53594000D02*
X77506000Y-52944000D01*
X77506000Y-53594000D02*
X77506000Y-54244000D01*
X74386000Y-53594000D02*
X74386000Y-52944000D01*
X74386000Y-53594000D02*
X74386000Y-55269000D01*
%TO.C,R1*%
X41175000Y-138149064D02*
X41175000Y-137694936D01*
X42645000Y-138149064D02*
X42645000Y-137694936D01*
%TO.C,R10*%
X64743064Y-79750000D02*
X64288936Y-79750000D01*
X64743064Y-78280000D02*
X64288936Y-78280000D01*
%TO.C,R11*%
X38889000Y-65366436D02*
X38889000Y-65820564D01*
X40359000Y-65366436D02*
X40359000Y-65820564D01*
%TO.C,R19*%
X80237064Y-79275000D02*
X79782936Y-79275000D01*
X80237064Y-80745000D02*
X79782936Y-80745000D01*
D13*
%TO.C,IC1*%
X38280000Y-137597000D02*
X38280000Y-138247000D01*
X38280000Y-138247000D02*
X35380000Y-138247000D01*
X35330000Y-139747000D02*
X35330000Y-138597000D01*
X35380000Y-137597000D02*
X38280000Y-137597000D01*
X35380000Y-138247000D02*
X35380000Y-137597000D01*
D12*
%TO.C,C1*%
X58901000Y-138183252D02*
X58901000Y-137660748D01*
X57431000Y-138183252D02*
X57431000Y-137660748D01*
%TO.C,U3*%
X49190000Y-52164000D02*
X49190000Y-52564000D01*
X70190000Y-67664000D02*
X63390000Y-67664000D01*
X49190000Y-16664000D02*
X49190000Y-16964000D01*
X52197000Y-19331000D02*
X52197000Y-16664000D01*
X49190000Y-49564000D02*
X49190000Y-49964000D01*
X49190000Y-34364000D02*
X49190000Y-34764000D01*
X70190000Y-21664000D02*
X70190000Y-22064000D01*
X49190000Y-39464000D02*
X49190000Y-39864000D01*
X49190000Y-26764000D02*
X49190000Y-27164000D01*
X49190000Y-64864000D02*
X49190000Y-65264000D01*
X70190000Y-59764000D02*
X70190000Y-60164000D01*
X49190000Y-44464000D02*
X49190000Y-44864000D01*
X60790000Y-67664000D02*
X61190000Y-67664000D01*
X49190000Y-41964000D02*
X49190000Y-42364000D01*
X70190000Y-44464000D02*
X70190000Y-44864000D01*
X58190000Y-67664000D02*
X58590000Y-67664000D01*
X49190000Y-16664000D02*
X70190000Y-16664000D01*
X70190000Y-47064000D02*
X70190000Y-47464000D01*
X70190000Y-62264000D02*
X70190000Y-62664000D01*
X70190000Y-64864000D02*
X70190000Y-65264000D01*
X49190000Y-31764000D02*
X49190000Y-32164000D01*
X70190000Y-54664000D02*
X70190000Y-55064000D01*
X49190000Y-47064000D02*
X49190000Y-47464000D01*
X70190000Y-36864000D02*
X70190000Y-37264000D01*
X70190000Y-19064000D02*
X70190000Y-19464000D01*
X49190000Y-57264000D02*
X49190000Y-57664000D01*
X70190000Y-52164000D02*
X70190000Y-52564000D01*
X49190000Y-21664000D02*
X49190000Y-22064000D01*
X70190000Y-57264000D02*
X70190000Y-57664000D01*
X70190000Y-39464000D02*
X70190000Y-39864000D01*
X49190000Y-59764000D02*
X49190000Y-60164000D01*
X70190000Y-49564000D02*
X70190000Y-49964000D01*
X70190000Y-41964000D02*
X70190000Y-42364000D01*
X70190000Y-29264000D02*
X70190000Y-29664000D01*
X70190000Y-34364000D02*
X70190000Y-34764000D01*
X49190000Y-36864000D02*
X49190000Y-37264000D01*
X49190000Y-29264000D02*
X49190000Y-29664000D01*
X49190000Y-54664000D02*
X49190000Y-55064000D01*
X55990000Y-67664000D02*
X49190000Y-67664000D01*
X49190000Y-24164000D02*
X49190000Y-24564000D01*
X70190000Y-31764000D02*
X70190000Y-32164000D01*
X70190000Y-16664000D02*
X70190000Y-16964000D01*
X70190000Y-24164000D02*
X70190000Y-24564000D01*
X49190000Y-19064000D02*
X49190000Y-19464000D01*
X70190000Y-26764000D02*
X70190000Y-27164000D01*
X49190000Y-19331000D02*
X52197000Y-19331000D01*
X49190000Y-62264000D02*
X49190000Y-62664000D01*
%TO.C,R2*%
X72416936Y-70131000D02*
X72871064Y-70131000D01*
X72416936Y-71601000D02*
X72871064Y-71601000D01*
%TO.C,R7*%
X74449000Y-49302936D02*
X74449000Y-49757064D01*
X75919000Y-49302936D02*
X75919000Y-49757064D01*
%TO.C,J3*%
X31466000Y-69834000D02*
X30266000Y-69834000D01*
X24266000Y-84734000D02*
X22366000Y-86634000D01*
X28966000Y-69834000D02*
X27766000Y-69834000D01*
X19466000Y-93634000D02*
X18766000Y-92934000D01*
X43166000Y-92934000D02*
X43866000Y-93634000D01*
X46066000Y-93634000D02*
X46766000Y-92934000D01*
X36466000Y-69834000D02*
X36066000Y-69834000D01*
X43166000Y-92934000D02*
X43166000Y-86634000D01*
X22366000Y-92934000D02*
X21666000Y-93634000D01*
X24266000Y-84734000D02*
X41266000Y-84734000D01*
X45766000Y-69834000D02*
X42766000Y-69834000D01*
X38966000Y-69834000D02*
X37766000Y-69834000D01*
X22366000Y-69834000D02*
X20166000Y-69834000D01*
X46766000Y-91534000D02*
X46766000Y-92934000D01*
X41466000Y-69834000D02*
X40266000Y-69834000D01*
X46766000Y-87634000D02*
X46766000Y-88834000D01*
X33166000Y-69834000D02*
X32766000Y-69834000D01*
X18766000Y-92834000D02*
X18766000Y-92934000D01*
X34766000Y-69834000D02*
X34466000Y-69834000D01*
X41266000Y-84734000D02*
X43166000Y-86634000D01*
X22366000Y-92934000D02*
X22366000Y-86634000D01*
X18966000Y-69834000D02*
X18766000Y-69834000D01*
X18766000Y-69834000D02*
X18766000Y-90034000D01*
X46766000Y-87634000D02*
X45766000Y-86934000D01*
X24066000Y-69834000D02*
X23666000Y-69834000D01*
X26466000Y-69834000D02*
X25366000Y-69834000D01*
X45766000Y-86934000D02*
X45766000Y-69834000D01*
X19466000Y-93634000D02*
X21666000Y-93634000D01*
X46066000Y-93634000D02*
X43866000Y-93634000D01*
%TO.C,J5*%
X85166000Y-105410000D02*
X85166000Y-106740000D01*
X85166000Y-104140000D02*
X82506000Y-104140000D01*
X85166000Y-93920000D02*
X82506000Y-93920000D01*
X85166000Y-106740000D02*
X83836000Y-106740000D01*
X82506000Y-104140000D02*
X82506000Y-93920000D01*
X85166000Y-104140000D02*
X85166000Y-93920000D01*
D10*
%TO.C,U2*%
X42964000Y-150755000D02*
G75*
G03*
X42964000Y-150755000I-7150000J0D01*
G01*
D16*
X35939000Y-142930001D02*
G75*
G03*
X35939000Y-142930001I-125000J0D01*
G01*
D13*
%TO.C,IC2*%
X68610000Y-155926000D02*
X70260000Y-155926000D01*
X78710000Y-155926000D02*
X78710000Y-154276000D01*
X78710000Y-145826000D02*
X77060000Y-145826000D01*
X77060000Y-155926000D02*
X78710000Y-155926000D01*
X78710000Y-147476000D02*
X78710000Y-145826000D01*
X68610000Y-145826000D02*
X68610000Y-147476000D01*
X68610000Y-154276000D02*
X68610000Y-155926000D01*
D14*
X76160000Y-145176000D02*
X76160000Y-145176000D01*
D13*
X70260000Y-145826000D02*
X68610000Y-145826000D01*
D14*
X76160000Y-145276000D02*
X76160000Y-145276000D01*
X76160000Y-145276000D02*
G75*
G03*
X76160000Y-145176000I0J50000D01*
G01*
X76160000Y-145176000D02*
G75*
G03*
X76160000Y-145276000I0J-50000D01*
G01*
D12*
%TO.C,C3*%
X76173000Y-34536748D02*
X76173000Y-35059252D01*
X74703000Y-34536748D02*
X74703000Y-35059252D01*
%TO.C,J6*%
X82490000Y-44963000D02*
X82490000Y-55183000D01*
X82490000Y-43693000D02*
X82490000Y-42363000D01*
X85150000Y-44963000D02*
X85150000Y-55183000D01*
X82490000Y-44963000D02*
X85150000Y-44963000D01*
X82490000Y-55183000D02*
X85150000Y-55183000D01*
X82490000Y-42363000D02*
X83820000Y-42363000D01*
%TO.C,BZ1*%
X64012000Y-90424000D02*
G75*
G03*
X64012000Y-90424000I-6100000J0D01*
G01*
%TO.C,R3*%
X77189064Y-69823000D02*
X76734936Y-69823000D01*
X77189064Y-68353000D02*
X76734936Y-68353000D01*
%TO.C,J1*%
X69028000Y-137922000D02*
X71688000Y-137922000D01*
X69028000Y-136652000D02*
X69028000Y-135322000D01*
X69028000Y-137922000D02*
X69028000Y-140522000D01*
X69028000Y-135322000D02*
X70358000Y-135322000D01*
X71688000Y-137922000D02*
X71688000Y-140522000D01*
X69028000Y-140522000D02*
X71688000Y-140522000D01*
%TO.C,R15*%
X75702936Y-57885000D02*
X76157064Y-57885000D01*
X75702936Y-56415000D02*
X76157064Y-56415000D01*
%TO.C,U1*%
X52668500Y-139332000D02*
X53968500Y-139332000D01*
X52228500Y-136512000D02*
X53968500Y-136512000D01*
%TO.C,C4*%
X84863000Y-29456748D02*
X84863000Y-29979252D01*
X86333000Y-29456748D02*
X86333000Y-29979252D01*
%TO.C,R9*%
X64743064Y-75465000D02*
X64288936Y-75465000D01*
X64743064Y-76935000D02*
X64288936Y-76935000D01*
%TO.C,C2*%
X46455000Y-138183252D02*
X46455000Y-137660748D01*
X44985000Y-138183252D02*
X44985000Y-137660748D01*
%TO.C,R5*%
X75734936Y-58955000D02*
X76189064Y-58955000D01*
X75734936Y-60425000D02*
X76189064Y-60425000D01*
%TO.C,R16*%
X80237064Y-86895000D02*
X79782936Y-86895000D01*
X80237064Y-88365000D02*
X79782936Y-88365000D01*
%TO.C,R20*%
X80237064Y-78205000D02*
X79782936Y-78205000D01*
X80237064Y-76735000D02*
X79782936Y-76735000D01*
%TO.C,R13*%
X28911000Y-65366436D02*
X28911000Y-65820564D01*
X30381000Y-65366436D02*
X30381000Y-65820564D01*
%TO.C,R18*%
X80237064Y-81815000D02*
X79782936Y-81815000D01*
X80237064Y-83285000D02*
X79782936Y-83285000D01*
%TO.C,R8*%
X78459000Y-49762064D02*
X78459000Y-49307936D01*
X76989000Y-49762064D02*
X76989000Y-49307936D01*
%TD*%
D17*
%TO.C,IC3*%
X52578000Y-150876000D03*
D18*
X55118000Y-150876000D03*
X57658000Y-150876000D03*
%TD*%
M02*
