%TF.GenerationSoftware,KiCad,Pcbnew,6.0.2+dfsg-1*%
%TF.CreationDate,2022-11-10T09:56:40+01:00*%
%TF.ProjectId,DL,444c2e6b-6963-4616-945f-706362585858,rev?*%
%TF.SameCoordinates,Original*%
%TF.FileFunction,Soldermask,Bot*%
%TF.FilePolarity,Negative*%
%FSLAX46Y46*%
G04 Gerber Fmt 4.6, Leading zero omitted, Abs format (unit mm)*
G04 Created by KiCad (PCBNEW 6.0.2+dfsg-1) date 2022-11-10 09:56:40*
%MOMM*%
%LPD*%
G01*
G04 APERTURE LIST*
%ADD10R,1.700000X1.700000*%
%ADD11O,1.700000X1.700000*%
%ADD12R,1.560000X1.560000*%
%ADD13C,1.560000*%
%ADD14R,1.110000X1.110000*%
%ADD15C,1.110000*%
%ADD16O,1.800000X1.800000*%
%ADD17O,1.500000X1.500000*%
%ADD18C,1.500000*%
%ADD19R,2.000000X2.000000*%
%ADD20C,2.000000*%
G04 APERTURE END LIST*
D10*
%TO.C,J4*%
X83836000Y-87630000D03*
D11*
X83836000Y-85090000D03*
X83836000Y-82550000D03*
X83836000Y-80010000D03*
X83836000Y-77470000D03*
%TD*%
D10*
%TO.C,J2*%
X75692000Y-136652000D03*
D11*
X75692000Y-139192000D03*
%TD*%
D10*
%TO.C,J7*%
X83820000Y-61478000D03*
D11*
X83820000Y-64018000D03*
X83820000Y-66558000D03*
X83820000Y-69098000D03*
X83820000Y-71638000D03*
%TD*%
D12*
%TO.C,IC3*%
X52578000Y-150876000D03*
D13*
X55118000Y-150876000D03*
X57658000Y-150876000D03*
%TD*%
D14*
%TO.C,PS1*%
X82680000Y-35814000D03*
D15*
X82680000Y-33274000D03*
X82680000Y-30734000D03*
X82680000Y-28194000D03*
%TD*%
D16*
%TO.C,U3*%
X62415000Y-18164000D03*
D17*
X62115000Y-21194000D03*
X57265000Y-21194000D03*
D16*
X56965000Y-18164000D03*
D11*
X50800000Y-18034000D03*
X50800000Y-20574000D03*
D10*
X50800000Y-23114000D03*
D11*
X50800000Y-25654000D03*
X50800000Y-28194000D03*
X50800000Y-30734000D03*
X50800000Y-33274000D03*
D10*
X50800000Y-35814000D03*
D11*
X50800000Y-38354000D03*
X50800000Y-40894000D03*
X50800000Y-43434000D03*
X50800000Y-45974000D03*
D10*
X50800000Y-48514000D03*
D11*
X50800000Y-51054000D03*
X50800000Y-53594000D03*
X50800000Y-56134000D03*
X50800000Y-58674000D03*
D10*
X50800000Y-61214000D03*
D11*
X50800000Y-63754000D03*
X50800000Y-66294000D03*
X68580000Y-66294000D03*
X68580000Y-63754000D03*
D10*
X68580000Y-61214000D03*
D11*
X68580000Y-58674000D03*
X68580000Y-56134000D03*
X68580000Y-53594000D03*
X68580000Y-51054000D03*
D10*
X68580000Y-48514000D03*
D11*
X68580000Y-45974000D03*
X68580000Y-43434000D03*
X68580000Y-40894000D03*
X68580000Y-38354000D03*
D10*
X68580000Y-35814000D03*
D11*
X68580000Y-33274000D03*
X68580000Y-30734000D03*
X68580000Y-28194000D03*
X68580000Y-25654000D03*
D10*
X68580000Y-23114000D03*
D11*
X68580000Y-20574000D03*
X68580000Y-18034000D03*
%TD*%
D18*
%TO.C,J3*%
X44866000Y-76234000D03*
X20666000Y-76234000D03*
%TD*%
D10*
%TO.C,J5*%
X83836000Y-105410000D03*
D11*
X83836000Y-102870000D03*
X83836000Y-100330000D03*
X83836000Y-97790000D03*
X83836000Y-95250000D03*
%TD*%
D10*
%TO.C,J6*%
X83820000Y-43693000D03*
D11*
X83820000Y-46233000D03*
X83820000Y-48773000D03*
X83820000Y-51313000D03*
X83820000Y-53853000D03*
%TD*%
D19*
%TO.C,BZ1*%
X57912000Y-86624000D03*
D20*
X57912000Y-94224000D03*
%TD*%
D10*
%TO.C,J1*%
X70358000Y-136652000D03*
D11*
X70358000Y-139192000D03*
%TD*%
M02*
