%TF.GenerationSoftware,KiCad,Pcbnew,6.0.2+dfsg-1*%
%TF.CreationDate,2022-11-10T09:56:40+01:00*%
%TF.ProjectId,DL,444c2e6b-6963-4616-945f-706362585858,rev?*%
%TF.SameCoordinates,Original*%
%TF.FileFunction,Soldermask,Top*%
%TF.FilePolarity,Negative*%
%FSLAX46Y46*%
G04 Gerber Fmt 4.6, Leading zero omitted, Abs format (unit mm)*
G04 Created by KiCad (PCBNEW 6.0.2+dfsg-1) date 2022-11-10 09:56:40*
%MOMM*%
%LPD*%
G01*
G04 APERTURE LIST*
G04 Aperture macros list*
%AMRoundRect*
0 Rectangle with rounded corners*
0 $1 Rounding radius*
0 $2 $3 $4 $5 $6 $7 $8 $9 X,Y pos of 4 corners*
0 Add a 4 corners polygon primitive as box body*
4,1,4,$2,$3,$4,$5,$6,$7,$8,$9,$2,$3,0*
0 Add four circle primitives for the rounded corners*
1,1,$1+$1,$2,$3*
1,1,$1+$1,$4,$5*
1,1,$1+$1,$6,$7*
1,1,$1+$1,$8,$9*
0 Add four rect primitives between the rounded corners*
20,1,$1+$1,$2,$3,$4,$5,0*
20,1,$1+$1,$4,$5,$6,$7,0*
20,1,$1+$1,$6,$7,$8,$9,0*
20,1,$1+$1,$8,$9,$2,$3,0*%
%AMFreePoly0*
4,1,6,0.500000,-0.850000,-0.500000,-0.850000,-0.500000,0.550000,-0.200000,0.850000,0.500000,0.850000,0.500000,-0.850000,0.500000,-0.850000,$1*%
G04 Aperture macros list end*
%ADD10RoundRect,0.250000X0.350000X0.450000X-0.350000X0.450000X-0.350000X-0.450000X0.350000X-0.450000X0*%
%ADD11R,1.700000X1.700000*%
%ADD12O,1.700000X1.700000*%
%ADD13RoundRect,0.250000X-0.450000X0.350000X-0.450000X-0.350000X0.450000X-0.350000X0.450000X0.350000X0*%
%ADD14R,1.560000X1.560000*%
%ADD15C,1.560000*%
%ADD16RoundRect,0.150000X-0.587500X-0.150000X0.587500X-0.150000X0.587500X0.150000X-0.587500X0.150000X0*%
%ADD17R,1.110000X1.110000*%
%ADD18C,1.110000*%
%ADD19RoundRect,0.150000X0.150000X-0.587500X0.150000X0.587500X-0.150000X0.587500X-0.150000X-0.587500X0*%
%ADD20RoundRect,0.250000X0.450000X-0.350000X0.450000X0.350000X-0.450000X0.350000X-0.450000X-0.350000X0*%
%ADD21R,0.600000X1.150000*%
%ADD22RoundRect,0.250000X0.475000X-0.337500X0.475000X0.337500X-0.475000X0.337500X-0.475000X-0.337500X0*%
%ADD23O,1.800000X1.800000*%
%ADD24O,1.500000X1.500000*%
%ADD25R,3.500000X1.700000*%
%ADD26RoundRect,0.250000X-0.350000X-0.450000X0.350000X-0.450000X0.350000X0.450000X-0.350000X0.450000X0*%
%ADD27C,1.500000*%
%ADD28RoundRect,0.250400X-0.149600X-0.749600X0.149600X-0.749600X0.149600X0.749600X-0.149600X0.749600X0*%
%ADD29RoundRect,0.249900X-0.100100X-0.750100X0.100100X-0.750100X0.100100X0.750100X-0.100100X0.750100X0*%
%ADD30RoundRect,0.250200X-0.649800X-0.949800X0.649800X-0.949800X0.649800X0.949800X-0.649800X0.949800X0*%
%ADD31RoundRect,0.249900X-0.600100X-0.950100X0.600100X-0.950100X0.600100X0.950100X-0.600100X0.950100X0*%
%ADD32R,0.800000X1.500000*%
%ADD33R,1.500000X0.800000*%
%ADD34R,4.800000X4.800000*%
%ADD35RoundRect,0.250000X-0.475000X0.337500X-0.475000X-0.337500X0.475000X-0.337500X0.475000X0.337500X0*%
%ADD36R,2.000000X2.000000*%
%ADD37C,2.000000*%
%ADD38R,0.550000X0.250000*%
%ADD39FreePoly0,0.000000*%
G04 APERTURE END LIST*
D10*
%TO.C,R17*%
X81010000Y-85090000D03*
X79010000Y-85090000D03*
%TD*%
D11*
%TO.C,J4*%
X83836000Y-87630000D03*
D12*
X83836000Y-85090000D03*
X83836000Y-82550000D03*
X83836000Y-80010000D03*
X83836000Y-77470000D03*
%TD*%
D11*
%TO.C,J2*%
X75692000Y-136652000D03*
D12*
X75692000Y-139192000D03*
%TD*%
D13*
%TO.C,R14*%
X27178000Y-64561500D03*
X27178000Y-66561500D03*
%TD*%
D11*
%TO.C,J7*%
X83820000Y-61478000D03*
D12*
X83820000Y-64018000D03*
X83820000Y-66558000D03*
X83820000Y-69098000D03*
X83820000Y-71638000D03*
%TD*%
D13*
%TO.C,R6*%
X75184000Y-44212000D03*
X75184000Y-46212000D03*
%TD*%
D14*
%TO.C,IC3*%
X52578000Y-150876000D03*
D15*
X55118000Y-150876000D03*
X57658000Y-150876000D03*
%TD*%
D13*
%TO.C,R12*%
X37146000Y-64593500D03*
X37146000Y-66593500D03*
%TD*%
D10*
%TO.C,R4*%
X73644000Y-72898000D03*
X71644000Y-72898000D03*
%TD*%
D16*
%TO.C,Q1*%
X76024500Y-70932000D03*
X76024500Y-72832000D03*
X77899500Y-71882000D03*
%TD*%
D17*
%TO.C,PS1*%
X82680000Y-35814000D03*
D18*
X82680000Y-33274000D03*
X82680000Y-30734000D03*
X82680000Y-28194000D03*
%TD*%
D19*
%TO.C,Q2*%
X74996000Y-54531500D03*
X76896000Y-54531500D03*
X75946000Y-52656500D03*
%TD*%
D20*
%TO.C,R1*%
X41910000Y-138922000D03*
X41910000Y-136922000D03*
%TD*%
D10*
%TO.C,R10*%
X65516000Y-79015000D03*
X63516000Y-79015000D03*
%TD*%
D13*
%TO.C,R11*%
X39624000Y-64593500D03*
X39624000Y-66593500D03*
%TD*%
D10*
%TO.C,R19*%
X81010000Y-80010000D03*
X79010000Y-80010000D03*
%TD*%
D21*
%TO.C,IC1*%
X35880000Y-139172000D03*
X36830000Y-139172000D03*
X37780000Y-139172000D03*
X37780000Y-136672000D03*
X35880000Y-136672000D03*
%TD*%
D22*
%TO.C,C1*%
X58166000Y-138959500D03*
X58166000Y-136884500D03*
%TD*%
D23*
%TO.C,U3*%
X62415000Y-18164000D03*
D24*
X62115000Y-21194000D03*
X57265000Y-21194000D03*
D23*
X56965000Y-18164000D03*
D25*
X49900000Y-18034000D03*
D12*
X50800000Y-18034000D03*
X50800000Y-20574000D03*
D25*
X49900000Y-20574000D03*
X49900000Y-23114000D03*
D11*
X50800000Y-23114000D03*
D12*
X50800000Y-25654000D03*
D25*
X49900000Y-25654000D03*
D12*
X50800000Y-28194000D03*
D25*
X49900000Y-28194000D03*
X49900000Y-30734000D03*
D12*
X50800000Y-30734000D03*
D25*
X49900000Y-33274000D03*
D12*
X50800000Y-33274000D03*
D25*
X49900000Y-35814000D03*
D11*
X50800000Y-35814000D03*
D25*
X49900000Y-38354000D03*
D12*
X50800000Y-38354000D03*
X50800000Y-40894000D03*
D25*
X49900000Y-40894000D03*
X49900000Y-43434000D03*
D12*
X50800000Y-43434000D03*
X50800000Y-45974000D03*
D25*
X49900000Y-45974000D03*
D11*
X50800000Y-48514000D03*
D25*
X49900000Y-48514000D03*
D12*
X50800000Y-51054000D03*
D25*
X49900000Y-51054000D03*
X49900000Y-53594000D03*
D12*
X50800000Y-53594000D03*
D25*
X49900000Y-56134000D03*
D12*
X50800000Y-56134000D03*
D25*
X49900000Y-58674000D03*
D12*
X50800000Y-58674000D03*
D25*
X49900000Y-61214000D03*
D11*
X50800000Y-61214000D03*
D25*
X49900000Y-63754000D03*
D12*
X50800000Y-63754000D03*
D25*
X49900000Y-66294000D03*
D12*
X50800000Y-66294000D03*
X68580000Y-66294000D03*
D25*
X69480000Y-66294000D03*
D12*
X68580000Y-63754000D03*
D25*
X69480000Y-63754000D03*
X69480000Y-61214000D03*
D11*
X68580000Y-61214000D03*
D25*
X69480000Y-58674000D03*
D12*
X68580000Y-58674000D03*
X68580000Y-56134000D03*
D25*
X69480000Y-56134000D03*
D12*
X68580000Y-53594000D03*
D25*
X69480000Y-53594000D03*
X69480000Y-51054000D03*
D12*
X68580000Y-51054000D03*
D11*
X68580000Y-48514000D03*
D25*
X69480000Y-48514000D03*
D12*
X68580000Y-45974000D03*
D25*
X69480000Y-45974000D03*
D12*
X68580000Y-43434000D03*
D25*
X69480000Y-43434000D03*
D12*
X68580000Y-40894000D03*
D25*
X69480000Y-40894000D03*
X69480000Y-38354000D03*
D12*
X68580000Y-38354000D03*
D25*
X69480000Y-35814000D03*
D11*
X68580000Y-35814000D03*
D12*
X68580000Y-33274000D03*
D25*
X69480000Y-33274000D03*
D12*
X68580000Y-30734000D03*
D25*
X69480000Y-30734000D03*
D12*
X68580000Y-28194000D03*
D25*
X69480000Y-28194000D03*
D12*
X68580000Y-25654000D03*
D25*
X69480000Y-25654000D03*
X69480000Y-23114000D03*
D11*
X68580000Y-23114000D03*
D12*
X68580000Y-20574000D03*
D25*
X69480000Y-20574000D03*
X69480000Y-18034000D03*
D12*
X68580000Y-18034000D03*
%TD*%
D26*
%TO.C,R2*%
X71644000Y-70866000D03*
X73644000Y-70866000D03*
%TD*%
D13*
%TO.C,R7*%
X75184000Y-48530000D03*
X75184000Y-50530000D03*
%TD*%
D27*
%TO.C,J3*%
X44866000Y-76234000D03*
X20666000Y-76234000D03*
D28*
X39646000Y-69034000D03*
X37146000Y-69034000D03*
X33846000Y-69034000D03*
X32146000Y-69034000D03*
X29646000Y-69034000D03*
X27146000Y-69034000D03*
X24716000Y-69034000D03*
X23016000Y-69034000D03*
X42146000Y-69034000D03*
X35446000Y-69034000D03*
D29*
X19526000Y-69034000D03*
D30*
X45966000Y-90234000D03*
D31*
X19516000Y-91434000D03*
%TD*%
D11*
%TO.C,J5*%
X83836000Y-105410000D03*
D12*
X83836000Y-102870000D03*
X83836000Y-100330000D03*
X83836000Y-97790000D03*
X83836000Y-95250000D03*
%TD*%
D32*
%TO.C,IC2*%
X76160000Y-146876000D03*
X74910000Y-146876000D03*
X73660000Y-146876000D03*
X72410000Y-146876000D03*
X71160000Y-146876000D03*
D33*
X69660000Y-148376000D03*
X69660000Y-149626000D03*
X69660000Y-150876000D03*
X69660000Y-152126000D03*
X69660000Y-153376000D03*
D32*
X71160000Y-154876000D03*
X72410000Y-154876000D03*
X73660000Y-154876000D03*
X74910000Y-154876000D03*
X76160000Y-154876000D03*
D33*
X77660000Y-153376000D03*
X77660000Y-152126000D03*
X77660000Y-150876000D03*
X77660000Y-149626000D03*
X77660000Y-148376000D03*
D34*
X73660000Y-150876000D03*
%TD*%
D35*
%TO.C,C3*%
X75438000Y-33760500D03*
X75438000Y-35835500D03*
%TD*%
D11*
%TO.C,J6*%
X83820000Y-43693000D03*
D12*
X83820000Y-46233000D03*
X83820000Y-48773000D03*
X83820000Y-51313000D03*
X83820000Y-53853000D03*
%TD*%
D36*
%TO.C,BZ1*%
X57912000Y-86624000D03*
D37*
X57912000Y-94224000D03*
%TD*%
D10*
%TO.C,R3*%
X77962000Y-69088000D03*
X75962000Y-69088000D03*
%TD*%
D11*
%TO.C,J1*%
X70358000Y-136652000D03*
D12*
X70358000Y-139192000D03*
%TD*%
D26*
%TO.C,R15*%
X74930000Y-57150000D03*
X76930000Y-57150000D03*
%TD*%
D38*
%TO.C,U1*%
X52143500Y-137172000D03*
X52143500Y-137672000D03*
X52143500Y-138172000D03*
X52143500Y-138672000D03*
X54493500Y-138672000D03*
X54493500Y-138172000D03*
X54493500Y-137672000D03*
X54493500Y-137172000D03*
D39*
X53318500Y-137922000D03*
%TD*%
D35*
%TO.C,C4*%
X85598000Y-28680500D03*
X85598000Y-30755500D03*
%TD*%
D10*
%TO.C,R9*%
X65516000Y-76200000D03*
X63516000Y-76200000D03*
%TD*%
D22*
%TO.C,C2*%
X45720000Y-138959500D03*
X45720000Y-136884500D03*
%TD*%
D26*
%TO.C,R5*%
X74962000Y-59690000D03*
X76962000Y-59690000D03*
%TD*%
D10*
%TO.C,R16*%
X81010000Y-87630000D03*
X79010000Y-87630000D03*
%TD*%
%TO.C,R20*%
X81010000Y-77470000D03*
X79010000Y-77470000D03*
%TD*%
D13*
%TO.C,R13*%
X29646000Y-64593500D03*
X29646000Y-66593500D03*
%TD*%
D10*
%TO.C,R18*%
X81010000Y-82550000D03*
X79010000Y-82550000D03*
%TD*%
D20*
%TO.C,R8*%
X77724000Y-50535000D03*
X77724000Y-48535000D03*
%TD*%
M02*
