%FSLAX45Y45*%
G04 Gerber Fmt 4.5, Leading zero omitted, Abs format (unit mm)*
G04 Created by KiCad (PCBNEW 6.0.2+dfsg-1) date 2022-11-10 09:56:29*
%MOMM*%
%LPD*%
G01*
G04 APERTURE LIST*
%TA.AperFunction,Profile*%
%ADD10C,0.100000*%
%TD*%
%ADD11C,0.200000*%
%ADD12C,0.040000*%
%ADD13C,0.071000*%
%ADD14C,0.100000*%
%ADD15C,0.102000*%
%ADD16C,0.104000*%
%ADD17C,0.105000*%
G04 APERTURE END LIST*
D10*
X8991600Y-15519400D02*
X9525000Y-15519400D01*
X2082800Y-2565400D02*
G75*
G03*
X2565400Y-2082800I0J482600D01*
G01*
X2565400Y-2082800D02*
X2565400Y-1549400D01*
X2565400Y-1549400D02*
X8509000Y-1549400D01*
X2565400Y-16535400D02*
X8509000Y-16535400D01*
X8991600Y-15519400D02*
G75*
G03*
X8509000Y-16002000I0J-482600D01*
G01*
X2362200Y-12344400D02*
G75*
G03*
X2362200Y-12344400I-254000J0D01*
G01*
X9245600Y-5765800D02*
G75*
G03*
X9245600Y-5765800I-254000J0D01*
G01*
X2082800Y-2565400D02*
X1549400Y-2565400D01*
X2565400Y-16002000D02*
X2565400Y-16535400D01*
X8509000Y-2082800D02*
X8509000Y-1549400D01*
X9245600Y-12344400D02*
G75*
G03*
X9245600Y-12344400I-254000J0D01*
G01*
X8509000Y-2082800D02*
G75*
G03*
X8991600Y-2565400I482600J0D01*
G01*
X9525000Y-15519400D02*
X9525000Y-2565400D01*
X2362200Y-5765800D02*
G75*
G03*
X2362200Y-5765800I-254000J0D01*
G01*
X8509000Y-16002000D02*
X8509000Y-16535400D01*
X1549400Y-2565400D02*
X1549400Y-15519400D01*
X8991600Y-2565400D02*
X9525000Y-2565400D01*
X2082800Y-15519400D02*
X1549400Y-15519400D01*
X2565400Y-16002000D02*
G75*
G03*
X2082800Y-15519400I-482600J0D01*
G01*
D11*
D12*
X3104200Y-6609400D02*
X3144200Y-6649400D01*
X3144200Y-6609400D02*
X3104200Y-6649400D01*
X3459800Y-6558600D02*
X3499800Y-6598600D01*
X3499800Y-6558600D02*
X3459800Y-6598600D01*
X4120200Y-6457000D02*
X4160200Y-6497000D01*
X4160200Y-6457000D02*
X4120200Y-6497000D01*
X4729800Y-13645200D02*
X4769800Y-13685200D01*
X4769800Y-13645200D02*
X4729800Y-13685200D01*
X5441000Y-4628200D02*
X5481000Y-4668200D01*
X5481000Y-4628200D02*
X5441000Y-4668200D01*
X5441000Y-7269800D02*
X5481000Y-7309800D01*
X5481000Y-7269800D02*
X5441000Y-7309800D01*
X6076000Y-7701600D02*
X6116000Y-7741600D01*
X6116000Y-7701600D02*
X6076000Y-7741600D01*
X6711000Y-8158800D02*
X6751000Y-8198800D01*
X6751000Y-8158800D02*
X6711000Y-8198800D01*
X6711000Y-13950000D02*
X6751000Y-13990000D01*
X6751000Y-13950000D02*
X6711000Y-13990000D01*
X6812600Y-15143800D02*
X6852600Y-15183800D01*
X6852600Y-15143800D02*
X6812600Y-15183800D01*
X6812600Y-15499400D02*
X6852600Y-15539400D01*
X6852600Y-15499400D02*
X6812600Y-15539400D01*
X7142800Y-8819200D02*
X7182800Y-8859200D01*
X7182800Y-8819200D02*
X7142800Y-8859200D01*
X7346000Y-15067600D02*
X7386000Y-15107600D01*
X7386000Y-15067600D02*
X7346000Y-15107600D01*
X7447600Y-8743000D02*
X7487600Y-8783000D01*
X7487600Y-8743000D02*
X7447600Y-8783000D01*
X7701600Y-7727000D02*
X7741600Y-7767000D01*
X7741600Y-7727000D02*
X7701600Y-7767000D01*
X7701600Y-7981000D02*
X7741600Y-8021000D01*
X7741600Y-7981000D02*
X7701600Y-8021000D01*
X7701600Y-8235000D02*
X7741600Y-8275000D01*
X7741600Y-8235000D02*
X7701600Y-8275000D01*
X7701600Y-8489000D02*
X7741600Y-8529000D01*
X7741600Y-8489000D02*
X7701600Y-8529000D01*
X7828600Y-4679000D02*
X7868600Y-4719000D01*
X7868600Y-4679000D02*
X7828600Y-4719000D01*
X8133400Y-4806000D02*
X8173400Y-4846000D01*
X8173400Y-4806000D02*
X8133400Y-4846000D01*
D13*
X8303500Y-2819400D02*
G75*
G03*
X8303500Y-2819400I-35500J0D01*
G01*
X8303500Y-3073400D02*
G75*
G03*
X8303500Y-3073400I-35500J0D01*
G01*
X8303500Y-3327400D02*
G75*
G03*
X8303500Y-3327400I-35500J0D01*
G01*
X8303500Y-3581400D02*
G75*
G03*
X8303500Y-3581400I-35500J0D01*
G01*
D14*
X5791200Y-8612400D02*
X5791200Y-8712400D01*
X5741200Y-8662400D02*
X5841200Y-8662400D01*
X5791200Y-9372400D02*
X5791200Y-9472400D01*
X5741200Y-9422400D02*
X5841200Y-9422400D01*
X7035800Y-13615200D02*
X7035800Y-13715200D01*
X6985800Y-13665200D02*
X7085800Y-13665200D01*
X7035800Y-13869200D02*
X7035800Y-13969200D01*
X6985800Y-13919200D02*
X7085800Y-13919200D01*
X7569200Y-13615200D02*
X7569200Y-13715200D01*
X7519200Y-13665200D02*
X7619200Y-13665200D01*
X7569200Y-13869200D02*
X7569200Y-13969200D01*
X7519200Y-13919200D02*
X7619200Y-13919200D01*
X8382000Y-4319300D02*
X8382000Y-4419300D01*
X8332000Y-4369300D02*
X8432000Y-4369300D01*
X8382000Y-4573300D02*
X8382000Y-4673300D01*
X8332000Y-4623300D02*
X8432000Y-4623300D01*
X8382000Y-4827300D02*
X8382000Y-4927300D01*
X8332000Y-4877300D02*
X8432000Y-4877300D01*
X8382000Y-5081300D02*
X8382000Y-5181300D01*
X8332000Y-5131300D02*
X8432000Y-5131300D01*
X8382000Y-5335300D02*
X8382000Y-5435300D01*
X8332000Y-5385300D02*
X8432000Y-5385300D01*
X8382000Y-6097800D02*
X8382000Y-6197800D01*
X8332000Y-6147800D02*
X8432000Y-6147800D01*
X8382000Y-6351800D02*
X8382000Y-6451800D01*
X8332000Y-6401800D02*
X8432000Y-6401800D01*
X8382000Y-6605800D02*
X8382000Y-6705800D01*
X8332000Y-6655800D02*
X8432000Y-6655800D01*
X8382000Y-6859800D02*
X8382000Y-6959800D01*
X8332000Y-6909800D02*
X8432000Y-6909800D01*
X8382000Y-7113800D02*
X8382000Y-7213800D01*
X8332000Y-7163800D02*
X8432000Y-7163800D01*
X8383600Y-7697000D02*
X8383600Y-7797000D01*
X8333600Y-7747000D02*
X8433600Y-7747000D01*
X8383600Y-7951000D02*
X8383600Y-8051000D01*
X8333600Y-8001000D02*
X8433600Y-8001000D01*
X8383600Y-8205000D02*
X8383600Y-8305000D01*
X8333600Y-8255000D02*
X8433600Y-8255000D01*
X8383600Y-8459000D02*
X8383600Y-8559000D01*
X8333600Y-8509000D02*
X8433600Y-8509000D01*
X8383600Y-8713000D02*
X8383600Y-8813000D01*
X8333600Y-8763000D02*
X8433600Y-8763000D01*
X8383600Y-9475000D02*
X8383600Y-9575000D01*
X8333600Y-9525000D02*
X8433600Y-9525000D01*
X8383600Y-9729000D02*
X8383600Y-9829000D01*
X8333600Y-9779000D02*
X8433600Y-9779000D01*
X8383600Y-9983000D02*
X8383600Y-10083000D01*
X8333600Y-10033000D02*
X8433600Y-10033000D01*
X8383600Y-10237000D02*
X8383600Y-10337000D01*
X8333600Y-10287000D02*
X8433600Y-10287000D01*
X8383600Y-10491000D02*
X8383600Y-10591000D01*
X8333600Y-10541000D02*
X8433600Y-10541000D01*
D15*
X5116063Y-1839463D02*
X5116063Y-1767337D01*
X5043937Y-1767337D01*
X5043937Y-1839463D01*
X5116063Y-1839463D01*
X5116063Y-2093463D02*
X5116063Y-2021337D01*
X5043937Y-2021337D01*
X5043937Y-2093463D01*
X5116063Y-2093463D01*
X5116063Y-2347463D02*
X5116063Y-2275337D01*
X5043937Y-2275337D01*
X5043937Y-2347463D01*
X5116063Y-2347463D01*
X5116063Y-2601463D02*
X5116063Y-2529337D01*
X5043937Y-2529337D01*
X5043937Y-2601463D01*
X5116063Y-2601463D01*
X5116063Y-2855463D02*
X5116063Y-2783337D01*
X5043937Y-2783337D01*
X5043937Y-2855463D01*
X5116063Y-2855463D01*
X5116063Y-3109463D02*
X5116063Y-3037337D01*
X5043937Y-3037337D01*
X5043937Y-3109463D01*
X5116063Y-3109463D01*
X5116063Y-3363463D02*
X5116063Y-3291337D01*
X5043937Y-3291337D01*
X5043937Y-3363463D01*
X5116063Y-3363463D01*
X5116063Y-3617463D02*
X5116063Y-3545337D01*
X5043937Y-3545337D01*
X5043937Y-3617463D01*
X5116063Y-3617463D01*
X5116063Y-3871463D02*
X5116063Y-3799337D01*
X5043937Y-3799337D01*
X5043937Y-3871463D01*
X5116063Y-3871463D01*
X5116063Y-4125463D02*
X5116063Y-4053337D01*
X5043937Y-4053337D01*
X5043937Y-4125463D01*
X5116063Y-4125463D01*
X5116063Y-4379463D02*
X5116063Y-4307337D01*
X5043937Y-4307337D01*
X5043937Y-4379463D01*
X5116063Y-4379463D01*
X5116063Y-4633463D02*
X5116063Y-4561337D01*
X5043937Y-4561337D01*
X5043937Y-4633463D01*
X5116063Y-4633463D01*
X5116063Y-4887463D02*
X5116063Y-4815337D01*
X5043937Y-4815337D01*
X5043937Y-4887463D01*
X5116063Y-4887463D01*
X5116063Y-5141463D02*
X5116063Y-5069337D01*
X5043937Y-5069337D01*
X5043937Y-5141463D01*
X5116063Y-5141463D01*
X5116063Y-5395463D02*
X5116063Y-5323337D01*
X5043937Y-5323337D01*
X5043937Y-5395463D01*
X5116063Y-5395463D01*
X5116063Y-5649463D02*
X5116063Y-5577337D01*
X5043937Y-5577337D01*
X5043937Y-5649463D01*
X5116063Y-5649463D01*
X5116063Y-5903463D02*
X5116063Y-5831337D01*
X5043937Y-5831337D01*
X5043937Y-5903463D01*
X5116063Y-5903463D01*
X5116063Y-6157463D02*
X5116063Y-6085337D01*
X5043937Y-6085337D01*
X5043937Y-6157463D01*
X5116063Y-6157463D01*
X5116063Y-6411463D02*
X5116063Y-6339337D01*
X5043937Y-6339337D01*
X5043937Y-6411463D01*
X5116063Y-6411463D01*
X5116063Y-6665463D02*
X5116063Y-6593337D01*
X5043937Y-6593337D01*
X5043937Y-6665463D01*
X5116063Y-6665463D01*
X6894063Y-1839463D02*
X6894063Y-1767337D01*
X6821937Y-1767337D01*
X6821937Y-1839463D01*
X6894063Y-1839463D01*
X6894063Y-2093463D02*
X6894063Y-2021337D01*
X6821937Y-2021337D01*
X6821937Y-2093463D01*
X6894063Y-2093463D01*
X6894063Y-2347463D02*
X6894063Y-2275337D01*
X6821937Y-2275337D01*
X6821937Y-2347463D01*
X6894063Y-2347463D01*
X6894063Y-2601463D02*
X6894063Y-2529337D01*
X6821937Y-2529337D01*
X6821937Y-2601463D01*
X6894063Y-2601463D01*
X6894063Y-2855463D02*
X6894063Y-2783337D01*
X6821937Y-2783337D01*
X6821937Y-2855463D01*
X6894063Y-2855463D01*
X6894063Y-3109463D02*
X6894063Y-3037337D01*
X6821937Y-3037337D01*
X6821937Y-3109463D01*
X6894063Y-3109463D01*
X6894063Y-3363463D02*
X6894063Y-3291337D01*
X6821937Y-3291337D01*
X6821937Y-3363463D01*
X6894063Y-3363463D01*
X6894063Y-3617463D02*
X6894063Y-3545337D01*
X6821937Y-3545337D01*
X6821937Y-3617463D01*
X6894063Y-3617463D01*
X6894063Y-3871463D02*
X6894063Y-3799337D01*
X6821937Y-3799337D01*
X6821937Y-3871463D01*
X6894063Y-3871463D01*
X6894063Y-4125463D02*
X6894063Y-4053337D01*
X6821937Y-4053337D01*
X6821937Y-4125463D01*
X6894063Y-4125463D01*
X6894063Y-4379463D02*
X6894063Y-4307337D01*
X6821937Y-4307337D01*
X6821937Y-4379463D01*
X6894063Y-4379463D01*
X6894063Y-4633463D02*
X6894063Y-4561337D01*
X6821937Y-4561337D01*
X6821937Y-4633463D01*
X6894063Y-4633463D01*
X6894063Y-4887463D02*
X6894063Y-4815337D01*
X6821937Y-4815337D01*
X6821937Y-4887463D01*
X6894063Y-4887463D01*
X6894063Y-5141463D02*
X6894063Y-5069337D01*
X6821937Y-5069337D01*
X6821937Y-5141463D01*
X6894063Y-5141463D01*
X6894063Y-5395463D02*
X6894063Y-5323337D01*
X6821937Y-5323337D01*
X6821937Y-5395463D01*
X6894063Y-5395463D01*
X6894063Y-5649463D02*
X6894063Y-5577337D01*
X6821937Y-5577337D01*
X6821937Y-5649463D01*
X6894063Y-5649463D01*
X6894063Y-5903463D02*
X6894063Y-5831337D01*
X6821937Y-5831337D01*
X6821937Y-5903463D01*
X6894063Y-5903463D01*
X6894063Y-6157463D02*
X6894063Y-6085337D01*
X6821937Y-6085337D01*
X6821937Y-6157463D01*
X6894063Y-6157463D01*
X6894063Y-6411463D02*
X6894063Y-6339337D01*
X6821937Y-6339337D01*
X6821937Y-6411463D01*
X6894063Y-6411463D01*
X6894063Y-6665463D02*
X6894063Y-6593337D01*
X6821937Y-6593337D01*
X6821937Y-6665463D01*
X6894063Y-6665463D01*
D16*
X5257800Y-15139600D02*
X5309800Y-15087600D01*
X5257800Y-15035600D01*
X5205800Y-15087600D01*
X5257800Y-15139600D01*
X5511800Y-15139600D02*
X5563800Y-15087600D01*
X5511800Y-15035600D01*
X5459800Y-15087600D01*
X5511800Y-15139600D01*
X5765800Y-15139600D02*
X5817800Y-15087600D01*
X5765800Y-15035600D01*
X5713800Y-15087600D01*
X5765800Y-15139600D01*
D17*
X3153900Y-15793000D02*
X3258900Y-15898000D01*
X3258900Y-15793000D02*
X3153900Y-15898000D01*
X3258900Y-15845500D02*
G75*
G03*
X3258900Y-15845500I-52500J0D01*
G01*
X3528900Y-14628000D02*
X3633900Y-14733000D01*
X3633900Y-14628000D02*
X3528900Y-14733000D01*
X3633900Y-14680500D02*
G75*
G03*
X3633900Y-14680500I-52500J0D01*
G01*
X3903900Y-15793000D02*
X4008900Y-15898000D01*
X4008900Y-15793000D02*
X3903900Y-15898000D01*
X4008900Y-15845500D02*
G75*
G03*
X4008900Y-15845500I-52500J0D01*
G01*
D11*
X1802019Y-16850876D02*
X1802019Y-16650876D01*
X1849638Y-16650876D01*
X1878209Y-16660400D01*
X1897257Y-16679448D01*
X1906781Y-16698495D01*
X1916305Y-16736590D01*
X1916305Y-16765162D01*
X1906781Y-16803257D01*
X1897257Y-16822305D01*
X1878209Y-16841352D01*
X1849638Y-16850876D01*
X1802019Y-16850876D01*
X2002019Y-16850876D02*
X2002019Y-16717543D01*
X2002019Y-16755638D02*
X2011543Y-16736590D01*
X2021067Y-16727067D01*
X2040114Y-16717543D01*
X2059162Y-16717543D01*
X2125829Y-16850876D02*
X2125829Y-16717543D01*
X2125829Y-16650876D02*
X2116305Y-16660400D01*
X2125829Y-16669924D01*
X2135352Y-16660400D01*
X2125829Y-16650876D01*
X2125829Y-16669924D01*
X2249638Y-16850876D02*
X2230590Y-16841352D01*
X2221067Y-16822305D01*
X2221067Y-16650876D01*
X2354400Y-16850876D02*
X2335352Y-16841352D01*
X2325829Y-16822305D01*
X2325829Y-16650876D01*
X2582971Y-16850876D02*
X2582971Y-16650876D01*
X2649638Y-16793733D01*
X2716305Y-16650876D01*
X2716305Y-16850876D01*
X2897257Y-16850876D02*
X2897257Y-16746114D01*
X2887733Y-16727067D01*
X2868686Y-16717543D01*
X2830590Y-16717543D01*
X2811543Y-16727067D01*
X2897257Y-16841352D02*
X2878209Y-16850876D01*
X2830590Y-16850876D01*
X2811543Y-16841352D01*
X2802019Y-16822305D01*
X2802019Y-16803257D01*
X2811543Y-16784210D01*
X2830590Y-16774686D01*
X2878209Y-16774686D01*
X2897257Y-16765162D01*
X2992495Y-16717543D02*
X2992495Y-16917543D01*
X2992495Y-16727067D02*
X3011543Y-16717543D01*
X3049638Y-16717543D01*
X3068686Y-16727067D01*
X3078209Y-16736590D01*
X3087733Y-16755638D01*
X3087733Y-16812781D01*
X3078209Y-16831829D01*
X3068686Y-16841352D01*
X3049638Y-16850876D01*
X3011543Y-16850876D01*
X2992495Y-16841352D01*
X3173448Y-16831829D02*
X3182971Y-16841352D01*
X3173448Y-16850876D01*
X3163924Y-16841352D01*
X3173448Y-16831829D01*
X3173448Y-16850876D01*
X3173448Y-16727067D02*
X3182971Y-16736590D01*
X3173448Y-16746114D01*
X3163924Y-16736590D01*
X3173448Y-16727067D01*
X3173448Y-16746114D01*
D12*
X1504400Y-17160400D02*
X1544400Y-17200400D01*
X1544400Y-17160400D02*
X1504400Y-17200400D01*
D11*
X1840114Y-17070876D02*
X1859162Y-17070876D01*
X1878209Y-17080400D01*
X1887733Y-17089924D01*
X1897257Y-17108971D01*
X1906781Y-17147067D01*
X1906781Y-17194686D01*
X1897257Y-17232781D01*
X1887733Y-17251829D01*
X1878209Y-17261352D01*
X1859162Y-17270876D01*
X1840114Y-17270876D01*
X1821067Y-17261352D01*
X1811543Y-17251829D01*
X1802019Y-17232781D01*
X1792495Y-17194686D01*
X1792495Y-17147067D01*
X1802019Y-17108971D01*
X1811543Y-17089924D01*
X1821067Y-17080400D01*
X1840114Y-17070876D01*
X1992495Y-17251829D02*
X2002019Y-17261352D01*
X1992495Y-17270876D01*
X1982971Y-17261352D01*
X1992495Y-17251829D01*
X1992495Y-17270876D01*
X2173448Y-17137543D02*
X2173448Y-17270876D01*
X2125829Y-17061352D02*
X2078209Y-17204210D01*
X2202019Y-17204210D01*
X2316305Y-17070876D02*
X2335352Y-17070876D01*
X2354400Y-17080400D01*
X2363924Y-17089924D01*
X2373448Y-17108971D01*
X2382971Y-17147067D01*
X2382971Y-17194686D01*
X2373448Y-17232781D01*
X2363924Y-17251829D01*
X2354400Y-17261352D01*
X2335352Y-17270876D01*
X2316305Y-17270876D01*
X2297257Y-17261352D01*
X2287733Y-17251829D01*
X2278210Y-17232781D01*
X2268686Y-17194686D01*
X2268686Y-17147067D01*
X2278210Y-17108971D01*
X2287733Y-17089924D01*
X2297257Y-17080400D01*
X2316305Y-17070876D01*
X2506781Y-17070876D02*
X2525829Y-17070876D01*
X2544876Y-17080400D01*
X2554400Y-17089924D01*
X2563924Y-17108971D01*
X2573448Y-17147067D01*
X2573448Y-17194686D01*
X2563924Y-17232781D01*
X2554400Y-17251829D01*
X2544876Y-17261352D01*
X2525829Y-17270876D01*
X2506781Y-17270876D01*
X2487733Y-17261352D01*
X2478210Y-17251829D01*
X2468686Y-17232781D01*
X2459162Y-17194686D01*
X2459162Y-17147067D01*
X2468686Y-17108971D01*
X2478210Y-17089924D01*
X2487733Y-17080400D01*
X2506781Y-17070876D01*
X2659162Y-17270876D02*
X2659162Y-17137543D01*
X2659162Y-17156590D02*
X2668686Y-17147067D01*
X2687733Y-17137543D01*
X2716305Y-17137543D01*
X2735352Y-17147067D01*
X2744876Y-17166114D01*
X2744876Y-17270876D01*
X2744876Y-17166114D02*
X2754400Y-17147067D01*
X2773448Y-17137543D01*
X2802019Y-17137543D01*
X2821067Y-17147067D01*
X2830590Y-17166114D01*
X2830590Y-17270876D01*
X2925828Y-17270876D02*
X2925828Y-17137543D01*
X2925828Y-17156590D02*
X2935352Y-17147067D01*
X2954400Y-17137543D01*
X2982971Y-17137543D01*
X3002019Y-17147067D01*
X3011543Y-17166114D01*
X3011543Y-17270876D01*
X3011543Y-17166114D02*
X3021067Y-17147067D01*
X3040114Y-17137543D01*
X3068686Y-17137543D01*
X3087733Y-17147067D01*
X3097257Y-17166114D01*
X3097257Y-17270876D01*
X3487733Y-17061352D02*
X3316305Y-17318495D01*
X3744876Y-17070876D02*
X3763924Y-17070876D01*
X3782971Y-17080400D01*
X3792495Y-17089924D01*
X3802019Y-17108971D01*
X3811543Y-17147067D01*
X3811543Y-17194686D01*
X3802019Y-17232781D01*
X3792495Y-17251829D01*
X3782971Y-17261352D01*
X3763924Y-17270876D01*
X3744876Y-17270876D01*
X3725828Y-17261352D01*
X3716305Y-17251829D01*
X3706781Y-17232781D01*
X3697257Y-17194686D01*
X3697257Y-17147067D01*
X3706781Y-17108971D01*
X3716305Y-17089924D01*
X3725828Y-17080400D01*
X3744876Y-17070876D01*
X3897257Y-17251829D02*
X3906781Y-17261352D01*
X3897257Y-17270876D01*
X3887733Y-17261352D01*
X3897257Y-17251829D01*
X3897257Y-17270876D01*
X4030590Y-17070876D02*
X4049638Y-17070876D01*
X4068686Y-17080400D01*
X4078209Y-17089924D01*
X4087733Y-17108971D01*
X4097257Y-17147067D01*
X4097257Y-17194686D01*
X4087733Y-17232781D01*
X4078209Y-17251829D01*
X4068686Y-17261352D01*
X4049638Y-17270876D01*
X4030590Y-17270876D01*
X4011543Y-17261352D01*
X4002019Y-17251829D01*
X3992495Y-17232781D01*
X3982971Y-17194686D01*
X3982971Y-17147067D01*
X3992495Y-17108971D01*
X4002019Y-17089924D01*
X4011543Y-17080400D01*
X4030590Y-17070876D01*
X4287733Y-17270876D02*
X4173448Y-17270876D01*
X4230590Y-17270876D02*
X4230590Y-17070876D01*
X4211543Y-17099448D01*
X4192495Y-17118495D01*
X4173448Y-17128019D01*
X4468686Y-17070876D02*
X4373448Y-17070876D01*
X4363924Y-17166114D01*
X4373448Y-17156590D01*
X4392495Y-17147067D01*
X4440114Y-17147067D01*
X4459162Y-17156590D01*
X4468686Y-17166114D01*
X4478210Y-17185162D01*
X4478210Y-17232781D01*
X4468686Y-17251829D01*
X4459162Y-17261352D01*
X4440114Y-17270876D01*
X4392495Y-17270876D01*
X4373448Y-17261352D01*
X4363924Y-17251829D01*
X4544876Y-17070876D02*
X4678210Y-17070876D01*
X4592495Y-17270876D01*
X4744876Y-17070876D02*
X4744876Y-17108971D01*
X4821067Y-17070876D02*
X4821067Y-17108971D01*
X5116305Y-17347067D02*
X5106781Y-17337543D01*
X5087733Y-17308971D01*
X5078210Y-17289924D01*
X5068686Y-17261352D01*
X5059162Y-17213733D01*
X5059162Y-17175638D01*
X5068686Y-17128019D01*
X5078210Y-17099448D01*
X5087733Y-17080400D01*
X5106781Y-17051829D01*
X5116305Y-17042305D01*
X5182971Y-17089924D02*
X5192495Y-17080400D01*
X5211543Y-17070876D01*
X5259162Y-17070876D01*
X5278210Y-17080400D01*
X5287733Y-17089924D01*
X5297257Y-17108971D01*
X5297257Y-17128019D01*
X5287733Y-17156590D01*
X5173448Y-17270876D01*
X5297257Y-17270876D01*
X5421067Y-17070876D02*
X5440114Y-17070876D01*
X5459162Y-17080400D01*
X5468686Y-17089924D01*
X5478210Y-17108971D01*
X5487733Y-17147067D01*
X5487733Y-17194686D01*
X5478210Y-17232781D01*
X5468686Y-17251829D01*
X5459162Y-17261352D01*
X5440114Y-17270876D01*
X5421067Y-17270876D01*
X5402019Y-17261352D01*
X5392495Y-17251829D01*
X5382971Y-17232781D01*
X5373448Y-17194686D01*
X5373448Y-17147067D01*
X5382971Y-17108971D01*
X5392495Y-17089924D01*
X5402019Y-17080400D01*
X5421067Y-17070876D01*
X5725828Y-17270876D02*
X5725828Y-17070876D01*
X5811543Y-17270876D02*
X5811543Y-17166114D01*
X5802019Y-17147067D01*
X5782971Y-17137543D01*
X5754400Y-17137543D01*
X5735352Y-17147067D01*
X5725828Y-17156590D01*
X5935352Y-17270876D02*
X5916305Y-17261352D01*
X5906781Y-17251829D01*
X5897257Y-17232781D01*
X5897257Y-17175638D01*
X5906781Y-17156590D01*
X5916305Y-17147067D01*
X5935352Y-17137543D01*
X5963924Y-17137543D01*
X5982971Y-17147067D01*
X5992495Y-17156590D01*
X6002019Y-17175638D01*
X6002019Y-17232781D01*
X5992495Y-17251829D01*
X5982971Y-17261352D01*
X5963924Y-17270876D01*
X5935352Y-17270876D01*
X6116305Y-17270876D02*
X6097257Y-17261352D01*
X6087733Y-17242305D01*
X6087733Y-17070876D01*
X6268686Y-17261352D02*
X6249638Y-17270876D01*
X6211543Y-17270876D01*
X6192495Y-17261352D01*
X6182971Y-17242305D01*
X6182971Y-17166114D01*
X6192495Y-17147067D01*
X6211543Y-17137543D01*
X6249638Y-17137543D01*
X6268686Y-17147067D01*
X6278209Y-17166114D01*
X6278209Y-17185162D01*
X6182971Y-17204210D01*
X6354400Y-17261352D02*
X6373448Y-17270876D01*
X6411543Y-17270876D01*
X6430590Y-17261352D01*
X6440114Y-17242305D01*
X6440114Y-17232781D01*
X6430590Y-17213733D01*
X6411543Y-17204210D01*
X6382971Y-17204210D01*
X6363924Y-17194686D01*
X6354400Y-17175638D01*
X6354400Y-17166114D01*
X6363924Y-17147067D01*
X6382971Y-17137543D01*
X6411543Y-17137543D01*
X6430590Y-17147067D01*
X6506781Y-17347067D02*
X6516305Y-17337543D01*
X6535352Y-17308971D01*
X6544876Y-17289924D01*
X6554400Y-17261352D01*
X6563924Y-17213733D01*
X6563924Y-17175638D01*
X6554400Y-17128019D01*
X6544876Y-17099448D01*
X6535352Y-17080400D01*
X6516305Y-17051829D01*
X6506781Y-17042305D01*
D13*
X1544400Y-17444400D02*
G75*
G03*
X1544400Y-17444400I-35500J0D01*
G01*
D11*
X1840114Y-17334876D02*
X1859162Y-17334876D01*
X1878209Y-17344400D01*
X1887733Y-17353924D01*
X1897257Y-17372971D01*
X1906781Y-17411067D01*
X1906781Y-17458686D01*
X1897257Y-17496781D01*
X1887733Y-17515829D01*
X1878209Y-17525352D01*
X1859162Y-17534876D01*
X1840114Y-17534876D01*
X1821067Y-17525352D01*
X1811543Y-17515829D01*
X1802019Y-17496781D01*
X1792495Y-17458686D01*
X1792495Y-17411067D01*
X1802019Y-17372971D01*
X1811543Y-17353924D01*
X1821067Y-17344400D01*
X1840114Y-17334876D01*
X1992495Y-17515829D02*
X2002019Y-17525352D01*
X1992495Y-17534876D01*
X1982971Y-17525352D01*
X1992495Y-17515829D01*
X1992495Y-17534876D01*
X2068686Y-17334876D02*
X2202019Y-17334876D01*
X2116305Y-17534876D01*
X2382971Y-17534876D02*
X2268686Y-17534876D01*
X2325829Y-17534876D02*
X2325829Y-17334876D01*
X2306781Y-17363448D01*
X2287733Y-17382495D01*
X2268686Y-17392019D01*
X2506781Y-17334876D02*
X2525829Y-17334876D01*
X2544876Y-17344400D01*
X2554400Y-17353924D01*
X2563924Y-17372971D01*
X2573448Y-17411067D01*
X2573448Y-17458686D01*
X2563924Y-17496781D01*
X2554400Y-17515829D01*
X2544876Y-17525352D01*
X2525829Y-17534876D01*
X2506781Y-17534876D01*
X2487733Y-17525352D01*
X2478210Y-17515829D01*
X2468686Y-17496781D01*
X2459162Y-17458686D01*
X2459162Y-17411067D01*
X2468686Y-17372971D01*
X2478210Y-17353924D01*
X2487733Y-17344400D01*
X2506781Y-17334876D01*
X2659162Y-17534876D02*
X2659162Y-17401543D01*
X2659162Y-17420590D02*
X2668686Y-17411067D01*
X2687733Y-17401543D01*
X2716305Y-17401543D01*
X2735352Y-17411067D01*
X2744876Y-17430114D01*
X2744876Y-17534876D01*
X2744876Y-17430114D02*
X2754400Y-17411067D01*
X2773448Y-17401543D01*
X2802019Y-17401543D01*
X2821067Y-17411067D01*
X2830590Y-17430114D01*
X2830590Y-17534876D01*
X2925828Y-17534876D02*
X2925828Y-17401543D01*
X2925828Y-17420590D02*
X2935352Y-17411067D01*
X2954400Y-17401543D01*
X2982971Y-17401543D01*
X3002019Y-17411067D01*
X3011543Y-17430114D01*
X3011543Y-17534876D01*
X3011543Y-17430114D02*
X3021067Y-17411067D01*
X3040114Y-17401543D01*
X3068686Y-17401543D01*
X3087733Y-17411067D01*
X3097257Y-17430114D01*
X3097257Y-17534876D01*
X3487733Y-17325352D02*
X3316305Y-17582495D01*
X3744876Y-17334876D02*
X3763924Y-17334876D01*
X3782971Y-17344400D01*
X3792495Y-17353924D01*
X3802019Y-17372971D01*
X3811543Y-17411067D01*
X3811543Y-17458686D01*
X3802019Y-17496781D01*
X3792495Y-17515829D01*
X3782971Y-17525352D01*
X3763924Y-17534876D01*
X3744876Y-17534876D01*
X3725828Y-17525352D01*
X3716305Y-17515829D01*
X3706781Y-17496781D01*
X3697257Y-17458686D01*
X3697257Y-17411067D01*
X3706781Y-17372971D01*
X3716305Y-17353924D01*
X3725828Y-17344400D01*
X3744876Y-17334876D01*
X3897257Y-17515829D02*
X3906781Y-17525352D01*
X3897257Y-17534876D01*
X3887733Y-17525352D01*
X3897257Y-17515829D01*
X3897257Y-17534876D01*
X4030590Y-17334876D02*
X4049638Y-17334876D01*
X4068686Y-17344400D01*
X4078209Y-17353924D01*
X4087733Y-17372971D01*
X4097257Y-17411067D01*
X4097257Y-17458686D01*
X4087733Y-17496781D01*
X4078209Y-17515829D01*
X4068686Y-17525352D01*
X4049638Y-17534876D01*
X4030590Y-17534876D01*
X4011543Y-17525352D01*
X4002019Y-17515829D01*
X3992495Y-17496781D01*
X3982971Y-17458686D01*
X3982971Y-17411067D01*
X3992495Y-17372971D01*
X4002019Y-17353924D01*
X4011543Y-17344400D01*
X4030590Y-17334876D01*
X4173448Y-17353924D02*
X4182971Y-17344400D01*
X4202019Y-17334876D01*
X4249638Y-17334876D01*
X4268686Y-17344400D01*
X4278210Y-17353924D01*
X4287733Y-17372971D01*
X4287733Y-17392019D01*
X4278210Y-17420590D01*
X4163924Y-17534876D01*
X4287733Y-17534876D01*
X4402019Y-17420590D02*
X4382971Y-17411067D01*
X4373448Y-17401543D01*
X4363924Y-17382495D01*
X4363924Y-17372971D01*
X4373448Y-17353924D01*
X4382971Y-17344400D01*
X4402019Y-17334876D01*
X4440114Y-17334876D01*
X4459162Y-17344400D01*
X4468686Y-17353924D01*
X4478210Y-17372971D01*
X4478210Y-17382495D01*
X4468686Y-17401543D01*
X4459162Y-17411067D01*
X4440114Y-17420590D01*
X4402019Y-17420590D01*
X4382971Y-17430114D01*
X4373448Y-17439638D01*
X4363924Y-17458686D01*
X4363924Y-17496781D01*
X4373448Y-17515829D01*
X4382971Y-17525352D01*
X4402019Y-17534876D01*
X4440114Y-17534876D01*
X4459162Y-17525352D01*
X4468686Y-17515829D01*
X4478210Y-17496781D01*
X4478210Y-17458686D01*
X4468686Y-17439638D01*
X4459162Y-17430114D01*
X4440114Y-17420590D01*
X4602019Y-17334876D02*
X4621067Y-17334876D01*
X4640114Y-17344400D01*
X4649638Y-17353924D01*
X4659162Y-17372971D01*
X4668686Y-17411067D01*
X4668686Y-17458686D01*
X4659162Y-17496781D01*
X4649638Y-17515829D01*
X4640114Y-17525352D01*
X4621067Y-17534876D01*
X4602019Y-17534876D01*
X4582971Y-17525352D01*
X4573448Y-17515829D01*
X4563924Y-17496781D01*
X4554400Y-17458686D01*
X4554400Y-17411067D01*
X4563924Y-17372971D01*
X4573448Y-17353924D01*
X4582971Y-17344400D01*
X4602019Y-17334876D01*
X4744876Y-17334876D02*
X4744876Y-17372971D01*
X4821067Y-17334876D02*
X4821067Y-17372971D01*
X5116305Y-17611067D02*
X5106781Y-17601543D01*
X5087733Y-17572971D01*
X5078210Y-17553924D01*
X5068686Y-17525352D01*
X5059162Y-17477733D01*
X5059162Y-17439638D01*
X5068686Y-17392019D01*
X5078210Y-17363448D01*
X5087733Y-17344400D01*
X5106781Y-17315829D01*
X5116305Y-17306305D01*
X5278210Y-17401543D02*
X5278210Y-17534876D01*
X5230590Y-17325352D02*
X5182971Y-17468210D01*
X5306781Y-17468210D01*
X5535352Y-17534876D02*
X5535352Y-17334876D01*
X5621067Y-17534876D02*
X5621067Y-17430114D01*
X5611543Y-17411067D01*
X5592495Y-17401543D01*
X5563924Y-17401543D01*
X5544876Y-17411067D01*
X5535352Y-17420590D01*
X5744876Y-17534876D02*
X5725828Y-17525352D01*
X5716305Y-17515829D01*
X5706781Y-17496781D01*
X5706781Y-17439638D01*
X5716305Y-17420590D01*
X5725828Y-17411067D01*
X5744876Y-17401543D01*
X5773448Y-17401543D01*
X5792495Y-17411067D01*
X5802019Y-17420590D01*
X5811543Y-17439638D01*
X5811543Y-17496781D01*
X5802019Y-17515829D01*
X5792495Y-17525352D01*
X5773448Y-17534876D01*
X5744876Y-17534876D01*
X5925828Y-17534876D02*
X5906781Y-17525352D01*
X5897257Y-17506305D01*
X5897257Y-17334876D01*
X6078209Y-17525352D02*
X6059162Y-17534876D01*
X6021067Y-17534876D01*
X6002019Y-17525352D01*
X5992495Y-17506305D01*
X5992495Y-17430114D01*
X6002019Y-17411067D01*
X6021067Y-17401543D01*
X6059162Y-17401543D01*
X6078209Y-17411067D01*
X6087733Y-17430114D01*
X6087733Y-17449162D01*
X5992495Y-17468210D01*
X6163924Y-17525352D02*
X6182971Y-17534876D01*
X6221067Y-17534876D01*
X6240114Y-17525352D01*
X6249638Y-17506305D01*
X6249638Y-17496781D01*
X6240114Y-17477733D01*
X6221067Y-17468210D01*
X6192495Y-17468210D01*
X6173448Y-17458686D01*
X6163924Y-17439638D01*
X6163924Y-17430114D01*
X6173448Y-17411067D01*
X6192495Y-17401543D01*
X6221067Y-17401543D01*
X6240114Y-17411067D01*
X6316305Y-17611067D02*
X6325828Y-17601543D01*
X6344876Y-17572971D01*
X6354400Y-17553924D01*
X6363924Y-17525352D01*
X6373448Y-17477733D01*
X6373448Y-17439638D01*
X6363924Y-17392019D01*
X6354400Y-17363448D01*
X6344876Y-17344400D01*
X6325828Y-17315829D01*
X6316305Y-17306305D01*
D14*
X1494400Y-17658400D02*
X1494400Y-17758400D01*
X1444400Y-17708400D02*
X1544400Y-17708400D01*
D11*
X1906781Y-17798876D02*
X1792495Y-17798876D01*
X1849638Y-17798876D02*
X1849638Y-17598876D01*
X1830590Y-17627448D01*
X1811543Y-17646495D01*
X1792495Y-17656019D01*
X1992495Y-17779829D02*
X2002019Y-17789352D01*
X1992495Y-17798876D01*
X1982971Y-17789352D01*
X1992495Y-17779829D01*
X1992495Y-17798876D01*
X2125829Y-17598876D02*
X2144876Y-17598876D01*
X2163924Y-17608400D01*
X2173448Y-17617924D01*
X2182971Y-17636971D01*
X2192495Y-17675067D01*
X2192495Y-17722686D01*
X2182971Y-17760781D01*
X2173448Y-17779829D01*
X2163924Y-17789352D01*
X2144876Y-17798876D01*
X2125829Y-17798876D01*
X2106781Y-17789352D01*
X2097257Y-17779829D01*
X2087733Y-17760781D01*
X2078209Y-17722686D01*
X2078209Y-17675067D01*
X2087733Y-17636971D01*
X2097257Y-17617924D01*
X2106781Y-17608400D01*
X2125829Y-17598876D01*
X2316305Y-17598876D02*
X2335352Y-17598876D01*
X2354400Y-17608400D01*
X2363924Y-17617924D01*
X2373448Y-17636971D01*
X2382971Y-17675067D01*
X2382971Y-17722686D01*
X2373448Y-17760781D01*
X2363924Y-17779829D01*
X2354400Y-17789352D01*
X2335352Y-17798876D01*
X2316305Y-17798876D01*
X2297257Y-17789352D01*
X2287733Y-17779829D01*
X2278210Y-17760781D01*
X2268686Y-17722686D01*
X2268686Y-17675067D01*
X2278210Y-17636971D01*
X2287733Y-17617924D01*
X2297257Y-17608400D01*
X2316305Y-17598876D01*
X2506781Y-17598876D02*
X2525829Y-17598876D01*
X2544876Y-17608400D01*
X2554400Y-17617924D01*
X2563924Y-17636971D01*
X2573448Y-17675067D01*
X2573448Y-17722686D01*
X2563924Y-17760781D01*
X2554400Y-17779829D01*
X2544876Y-17789352D01*
X2525829Y-17798876D01*
X2506781Y-17798876D01*
X2487733Y-17789352D01*
X2478210Y-17779829D01*
X2468686Y-17760781D01*
X2459162Y-17722686D01*
X2459162Y-17675067D01*
X2468686Y-17636971D01*
X2478210Y-17617924D01*
X2487733Y-17608400D01*
X2506781Y-17598876D01*
X2659162Y-17798876D02*
X2659162Y-17665543D01*
X2659162Y-17684590D02*
X2668686Y-17675067D01*
X2687733Y-17665543D01*
X2716305Y-17665543D01*
X2735352Y-17675067D01*
X2744876Y-17694114D01*
X2744876Y-17798876D01*
X2744876Y-17694114D02*
X2754400Y-17675067D01*
X2773448Y-17665543D01*
X2802019Y-17665543D01*
X2821067Y-17675067D01*
X2830590Y-17694114D01*
X2830590Y-17798876D01*
X2925828Y-17798876D02*
X2925828Y-17665543D01*
X2925828Y-17684590D02*
X2935352Y-17675067D01*
X2954400Y-17665543D01*
X2982971Y-17665543D01*
X3002019Y-17675067D01*
X3011543Y-17694114D01*
X3011543Y-17798876D01*
X3011543Y-17694114D02*
X3021067Y-17675067D01*
X3040114Y-17665543D01*
X3068686Y-17665543D01*
X3087733Y-17675067D01*
X3097257Y-17694114D01*
X3097257Y-17798876D01*
X3487733Y-17589352D02*
X3316305Y-17846495D01*
X3744876Y-17598876D02*
X3763924Y-17598876D01*
X3782971Y-17608400D01*
X3792495Y-17617924D01*
X3802019Y-17636971D01*
X3811543Y-17675067D01*
X3811543Y-17722686D01*
X3802019Y-17760781D01*
X3792495Y-17779829D01*
X3782971Y-17789352D01*
X3763924Y-17798876D01*
X3744876Y-17798876D01*
X3725828Y-17789352D01*
X3716305Y-17779829D01*
X3706781Y-17760781D01*
X3697257Y-17722686D01*
X3697257Y-17675067D01*
X3706781Y-17636971D01*
X3716305Y-17617924D01*
X3725828Y-17608400D01*
X3744876Y-17598876D01*
X3897257Y-17779829D02*
X3906781Y-17789352D01*
X3897257Y-17798876D01*
X3887733Y-17789352D01*
X3897257Y-17779829D01*
X3897257Y-17798876D01*
X4030590Y-17598876D02*
X4049638Y-17598876D01*
X4068686Y-17608400D01*
X4078209Y-17617924D01*
X4087733Y-17636971D01*
X4097257Y-17675067D01*
X4097257Y-17722686D01*
X4087733Y-17760781D01*
X4078209Y-17779829D01*
X4068686Y-17789352D01*
X4049638Y-17798876D01*
X4030590Y-17798876D01*
X4011543Y-17789352D01*
X4002019Y-17779829D01*
X3992495Y-17760781D01*
X3982971Y-17722686D01*
X3982971Y-17675067D01*
X3992495Y-17636971D01*
X4002019Y-17617924D01*
X4011543Y-17608400D01*
X4030590Y-17598876D01*
X4163924Y-17598876D02*
X4287733Y-17598876D01*
X4221067Y-17675067D01*
X4249638Y-17675067D01*
X4268686Y-17684590D01*
X4278210Y-17694114D01*
X4287733Y-17713162D01*
X4287733Y-17760781D01*
X4278210Y-17779829D01*
X4268686Y-17789352D01*
X4249638Y-17798876D01*
X4192495Y-17798876D01*
X4173448Y-17789352D01*
X4163924Y-17779829D01*
X4382971Y-17798876D02*
X4421067Y-17798876D01*
X4440114Y-17789352D01*
X4449638Y-17779829D01*
X4468686Y-17751257D01*
X4478210Y-17713162D01*
X4478210Y-17636971D01*
X4468686Y-17617924D01*
X4459162Y-17608400D01*
X4440114Y-17598876D01*
X4402019Y-17598876D01*
X4382971Y-17608400D01*
X4373448Y-17617924D01*
X4363924Y-17636971D01*
X4363924Y-17684590D01*
X4373448Y-17703638D01*
X4382971Y-17713162D01*
X4402019Y-17722686D01*
X4440114Y-17722686D01*
X4459162Y-17713162D01*
X4468686Y-17703638D01*
X4478210Y-17684590D01*
X4649638Y-17665543D02*
X4649638Y-17798876D01*
X4602019Y-17589352D02*
X4554400Y-17732210D01*
X4678210Y-17732210D01*
X4744876Y-17598876D02*
X4744876Y-17636971D01*
X4821067Y-17598876D02*
X4821067Y-17636971D01*
X5116305Y-17875067D02*
X5106781Y-17865543D01*
X5087733Y-17836971D01*
X5078210Y-17817924D01*
X5068686Y-17789352D01*
X5059162Y-17741733D01*
X5059162Y-17703638D01*
X5068686Y-17656019D01*
X5078210Y-17627448D01*
X5087733Y-17608400D01*
X5106781Y-17579829D01*
X5116305Y-17570305D01*
X5182971Y-17617924D02*
X5192495Y-17608400D01*
X5211543Y-17598876D01*
X5259162Y-17598876D01*
X5278210Y-17608400D01*
X5287733Y-17617924D01*
X5297257Y-17636971D01*
X5297257Y-17656019D01*
X5287733Y-17684590D01*
X5173448Y-17798876D01*
X5297257Y-17798876D01*
X5468686Y-17598876D02*
X5430590Y-17598876D01*
X5411543Y-17608400D01*
X5402019Y-17617924D01*
X5382971Y-17646495D01*
X5373448Y-17684590D01*
X5373448Y-17760781D01*
X5382971Y-17779829D01*
X5392495Y-17789352D01*
X5411543Y-17798876D01*
X5449638Y-17798876D01*
X5468686Y-17789352D01*
X5478210Y-17779829D01*
X5487733Y-17760781D01*
X5487733Y-17713162D01*
X5478210Y-17694114D01*
X5468686Y-17684590D01*
X5449638Y-17675067D01*
X5411543Y-17675067D01*
X5392495Y-17684590D01*
X5382971Y-17694114D01*
X5373448Y-17713162D01*
X5725828Y-17798876D02*
X5725828Y-17598876D01*
X5811543Y-17798876D02*
X5811543Y-17694114D01*
X5802019Y-17675067D01*
X5782971Y-17665543D01*
X5754400Y-17665543D01*
X5735352Y-17675067D01*
X5725828Y-17684590D01*
X5935352Y-17798876D02*
X5916305Y-17789352D01*
X5906781Y-17779829D01*
X5897257Y-17760781D01*
X5897257Y-17703638D01*
X5906781Y-17684590D01*
X5916305Y-17675067D01*
X5935352Y-17665543D01*
X5963924Y-17665543D01*
X5982971Y-17675067D01*
X5992495Y-17684590D01*
X6002019Y-17703638D01*
X6002019Y-17760781D01*
X5992495Y-17779829D01*
X5982971Y-17789352D01*
X5963924Y-17798876D01*
X5935352Y-17798876D01*
X6116305Y-17798876D02*
X6097257Y-17789352D01*
X6087733Y-17770305D01*
X6087733Y-17598876D01*
X6268686Y-17789352D02*
X6249638Y-17798876D01*
X6211543Y-17798876D01*
X6192495Y-17789352D01*
X6182971Y-17770305D01*
X6182971Y-17694114D01*
X6192495Y-17675067D01*
X6211543Y-17665543D01*
X6249638Y-17665543D01*
X6268686Y-17675067D01*
X6278209Y-17694114D01*
X6278209Y-17713162D01*
X6182971Y-17732210D01*
X6354400Y-17789352D02*
X6373448Y-17798876D01*
X6411543Y-17798876D01*
X6430590Y-17789352D01*
X6440114Y-17770305D01*
X6440114Y-17760781D01*
X6430590Y-17741733D01*
X6411543Y-17732210D01*
X6382971Y-17732210D01*
X6363924Y-17722686D01*
X6354400Y-17703638D01*
X6354400Y-17694114D01*
X6363924Y-17675067D01*
X6382971Y-17665543D01*
X6411543Y-17665543D01*
X6430590Y-17675067D01*
X6506781Y-17875067D02*
X6516305Y-17865543D01*
X6535352Y-17836971D01*
X6544876Y-17817924D01*
X6554400Y-17789352D01*
X6563924Y-17741733D01*
X6563924Y-17703638D01*
X6554400Y-17656019D01*
X6544876Y-17627448D01*
X6535352Y-17608400D01*
X6516305Y-17579829D01*
X6506781Y-17570305D01*
D15*
X1529463Y-18008463D02*
X1529463Y-17936337D01*
X1457337Y-17936337D01*
X1457337Y-18008463D01*
X1529463Y-18008463D01*
D11*
X1906781Y-18062876D02*
X1792495Y-18062876D01*
X1849638Y-18062876D02*
X1849638Y-17862876D01*
X1830590Y-17891448D01*
X1811543Y-17910495D01*
X1792495Y-17920019D01*
X1992495Y-18043829D02*
X2002019Y-18053352D01*
X1992495Y-18062876D01*
X1982971Y-18053352D01*
X1992495Y-18043829D01*
X1992495Y-18062876D01*
X2125829Y-17862876D02*
X2144876Y-17862876D01*
X2163924Y-17872400D01*
X2173448Y-17881924D01*
X2182971Y-17900971D01*
X2192495Y-17939067D01*
X2192495Y-17986686D01*
X2182971Y-18024781D01*
X2173448Y-18043829D01*
X2163924Y-18053352D01*
X2144876Y-18062876D01*
X2125829Y-18062876D01*
X2106781Y-18053352D01*
X2097257Y-18043829D01*
X2087733Y-18024781D01*
X2078209Y-17986686D01*
X2078209Y-17939067D01*
X2087733Y-17900971D01*
X2097257Y-17881924D01*
X2106781Y-17872400D01*
X2125829Y-17862876D01*
X2268686Y-17881924D02*
X2278210Y-17872400D01*
X2297257Y-17862876D01*
X2344876Y-17862876D01*
X2363924Y-17872400D01*
X2373448Y-17881924D01*
X2382971Y-17900971D01*
X2382971Y-17920019D01*
X2373448Y-17948590D01*
X2259162Y-18062876D01*
X2382971Y-18062876D01*
X2506781Y-17862876D02*
X2525829Y-17862876D01*
X2544876Y-17872400D01*
X2554400Y-17881924D01*
X2563924Y-17900971D01*
X2573448Y-17939067D01*
X2573448Y-17986686D01*
X2563924Y-18024781D01*
X2554400Y-18043829D01*
X2544876Y-18053352D01*
X2525829Y-18062876D01*
X2506781Y-18062876D01*
X2487733Y-18053352D01*
X2478210Y-18043829D01*
X2468686Y-18024781D01*
X2459162Y-17986686D01*
X2459162Y-17939067D01*
X2468686Y-17900971D01*
X2478210Y-17881924D01*
X2487733Y-17872400D01*
X2506781Y-17862876D01*
X2659162Y-18062876D02*
X2659162Y-17929543D01*
X2659162Y-17948590D02*
X2668686Y-17939067D01*
X2687733Y-17929543D01*
X2716305Y-17929543D01*
X2735352Y-17939067D01*
X2744876Y-17958114D01*
X2744876Y-18062876D01*
X2744876Y-17958114D02*
X2754400Y-17939067D01*
X2773448Y-17929543D01*
X2802019Y-17929543D01*
X2821067Y-17939067D01*
X2830590Y-17958114D01*
X2830590Y-18062876D01*
X2925828Y-18062876D02*
X2925828Y-17929543D01*
X2925828Y-17948590D02*
X2935352Y-17939067D01*
X2954400Y-17929543D01*
X2982971Y-17929543D01*
X3002019Y-17939067D01*
X3011543Y-17958114D01*
X3011543Y-18062876D01*
X3011543Y-17958114D02*
X3021067Y-17939067D01*
X3040114Y-17929543D01*
X3068686Y-17929543D01*
X3087733Y-17939067D01*
X3097257Y-17958114D01*
X3097257Y-18062876D01*
X3487733Y-17853352D02*
X3316305Y-18110495D01*
X3744876Y-17862876D02*
X3763924Y-17862876D01*
X3782971Y-17872400D01*
X3792495Y-17881924D01*
X3802019Y-17900971D01*
X3811543Y-17939067D01*
X3811543Y-17986686D01*
X3802019Y-18024781D01*
X3792495Y-18043829D01*
X3782971Y-18053352D01*
X3763924Y-18062876D01*
X3744876Y-18062876D01*
X3725828Y-18053352D01*
X3716305Y-18043829D01*
X3706781Y-18024781D01*
X3697257Y-17986686D01*
X3697257Y-17939067D01*
X3706781Y-17900971D01*
X3716305Y-17881924D01*
X3725828Y-17872400D01*
X3744876Y-17862876D01*
X3897257Y-18043829D02*
X3906781Y-18053352D01*
X3897257Y-18062876D01*
X3887733Y-18053352D01*
X3897257Y-18043829D01*
X3897257Y-18062876D01*
X4030590Y-17862876D02*
X4049638Y-17862876D01*
X4068686Y-17872400D01*
X4078209Y-17881924D01*
X4087733Y-17900971D01*
X4097257Y-17939067D01*
X4097257Y-17986686D01*
X4087733Y-18024781D01*
X4078209Y-18043829D01*
X4068686Y-18053352D01*
X4049638Y-18062876D01*
X4030590Y-18062876D01*
X4011543Y-18053352D01*
X4002019Y-18043829D01*
X3992495Y-18024781D01*
X3982971Y-17986686D01*
X3982971Y-17939067D01*
X3992495Y-17900971D01*
X4002019Y-17881924D01*
X4011543Y-17872400D01*
X4030590Y-17862876D01*
X4268686Y-17929543D02*
X4268686Y-18062876D01*
X4221067Y-17853352D02*
X4173448Y-17996210D01*
X4297257Y-17996210D01*
X4411543Y-17862876D02*
X4430590Y-17862876D01*
X4449638Y-17872400D01*
X4459162Y-17881924D01*
X4468686Y-17900971D01*
X4478210Y-17939067D01*
X4478210Y-17986686D01*
X4468686Y-18024781D01*
X4459162Y-18043829D01*
X4449638Y-18053352D01*
X4430590Y-18062876D01*
X4411543Y-18062876D01*
X4392495Y-18053352D01*
X4382971Y-18043829D01*
X4373448Y-18024781D01*
X4363924Y-17986686D01*
X4363924Y-17939067D01*
X4373448Y-17900971D01*
X4382971Y-17881924D01*
X4392495Y-17872400D01*
X4411543Y-17862876D01*
X4554400Y-17881924D02*
X4563924Y-17872400D01*
X4582971Y-17862876D01*
X4630590Y-17862876D01*
X4649638Y-17872400D01*
X4659162Y-17881924D01*
X4668686Y-17900971D01*
X4668686Y-17920019D01*
X4659162Y-17948590D01*
X4544876Y-18062876D01*
X4668686Y-18062876D01*
X4744876Y-17862876D02*
X4744876Y-17900971D01*
X4821067Y-17862876D02*
X4821067Y-17900971D01*
X5116305Y-18139067D02*
X5106781Y-18129543D01*
X5087733Y-18100971D01*
X5078210Y-18081924D01*
X5068686Y-18053352D01*
X5059162Y-18005733D01*
X5059162Y-17967638D01*
X5068686Y-17920019D01*
X5078210Y-17891448D01*
X5087733Y-17872400D01*
X5106781Y-17843829D01*
X5116305Y-17834305D01*
X5278210Y-17929543D02*
X5278210Y-18062876D01*
X5230590Y-17853352D02*
X5182971Y-17996210D01*
X5306781Y-17996210D01*
X5421067Y-17862876D02*
X5440114Y-17862876D01*
X5459162Y-17872400D01*
X5468686Y-17881924D01*
X5478210Y-17900971D01*
X5487733Y-17939067D01*
X5487733Y-17986686D01*
X5478210Y-18024781D01*
X5468686Y-18043829D01*
X5459162Y-18053352D01*
X5440114Y-18062876D01*
X5421067Y-18062876D01*
X5402019Y-18053352D01*
X5392495Y-18043829D01*
X5382971Y-18024781D01*
X5373448Y-17986686D01*
X5373448Y-17939067D01*
X5382971Y-17900971D01*
X5392495Y-17881924D01*
X5402019Y-17872400D01*
X5421067Y-17862876D01*
X5725828Y-18062876D02*
X5725828Y-17862876D01*
X5811543Y-18062876D02*
X5811543Y-17958114D01*
X5802019Y-17939067D01*
X5782971Y-17929543D01*
X5754400Y-17929543D01*
X5735352Y-17939067D01*
X5725828Y-17948590D01*
X5935352Y-18062876D02*
X5916305Y-18053352D01*
X5906781Y-18043829D01*
X5897257Y-18024781D01*
X5897257Y-17967638D01*
X5906781Y-17948590D01*
X5916305Y-17939067D01*
X5935352Y-17929543D01*
X5963924Y-17929543D01*
X5982971Y-17939067D01*
X5992495Y-17948590D01*
X6002019Y-17967638D01*
X6002019Y-18024781D01*
X5992495Y-18043829D01*
X5982971Y-18053352D01*
X5963924Y-18062876D01*
X5935352Y-18062876D01*
X6116305Y-18062876D02*
X6097257Y-18053352D01*
X6087733Y-18034305D01*
X6087733Y-17862876D01*
X6268686Y-18053352D02*
X6249638Y-18062876D01*
X6211543Y-18062876D01*
X6192495Y-18053352D01*
X6182971Y-18034305D01*
X6182971Y-17958114D01*
X6192495Y-17939067D01*
X6211543Y-17929543D01*
X6249638Y-17929543D01*
X6268686Y-17939067D01*
X6278209Y-17958114D01*
X6278209Y-17977162D01*
X6182971Y-17996210D01*
X6354400Y-18053352D02*
X6373448Y-18062876D01*
X6411543Y-18062876D01*
X6430590Y-18053352D01*
X6440114Y-18034305D01*
X6440114Y-18024781D01*
X6430590Y-18005733D01*
X6411543Y-17996210D01*
X6382971Y-17996210D01*
X6363924Y-17986686D01*
X6354400Y-17967638D01*
X6354400Y-17958114D01*
X6363924Y-17939067D01*
X6382971Y-17929543D01*
X6411543Y-17929543D01*
X6430590Y-17939067D01*
X6506781Y-18139067D02*
X6516305Y-18129543D01*
X6535352Y-18100971D01*
X6544876Y-18081924D01*
X6554400Y-18053352D01*
X6563924Y-18005733D01*
X6563924Y-17967638D01*
X6554400Y-17920019D01*
X6544876Y-17891448D01*
X6535352Y-17872400D01*
X6516305Y-17843829D01*
X6506781Y-17834305D01*
D16*
X1492400Y-18288400D02*
X1544400Y-18236400D01*
X1492400Y-18184400D01*
X1440400Y-18236400D01*
X1492400Y-18288400D01*
D11*
X1906781Y-18326876D02*
X1792495Y-18326876D01*
X1849638Y-18326876D02*
X1849638Y-18126876D01*
X1830590Y-18155448D01*
X1811543Y-18174495D01*
X1792495Y-18184019D01*
X1992495Y-18307829D02*
X2002019Y-18317352D01*
X1992495Y-18326876D01*
X1982971Y-18317352D01*
X1992495Y-18307829D01*
X1992495Y-18326876D01*
X2125829Y-18126876D02*
X2144876Y-18126876D01*
X2163924Y-18136400D01*
X2173448Y-18145924D01*
X2182971Y-18164971D01*
X2192495Y-18203067D01*
X2192495Y-18250686D01*
X2182971Y-18288781D01*
X2173448Y-18307829D01*
X2163924Y-18317352D01*
X2144876Y-18326876D01*
X2125829Y-18326876D01*
X2106781Y-18317352D01*
X2097257Y-18307829D01*
X2087733Y-18288781D01*
X2078209Y-18250686D01*
X2078209Y-18203067D01*
X2087733Y-18164971D01*
X2097257Y-18145924D01*
X2106781Y-18136400D01*
X2125829Y-18126876D01*
X2363924Y-18193543D02*
X2363924Y-18326876D01*
X2316305Y-18117352D02*
X2268686Y-18260210D01*
X2392495Y-18260210D01*
X2506781Y-18126876D02*
X2525829Y-18126876D01*
X2544876Y-18136400D01*
X2554400Y-18145924D01*
X2563924Y-18164971D01*
X2573448Y-18203067D01*
X2573448Y-18250686D01*
X2563924Y-18288781D01*
X2554400Y-18307829D01*
X2544876Y-18317352D01*
X2525829Y-18326876D01*
X2506781Y-18326876D01*
X2487733Y-18317352D01*
X2478210Y-18307829D01*
X2468686Y-18288781D01*
X2459162Y-18250686D01*
X2459162Y-18203067D01*
X2468686Y-18164971D01*
X2478210Y-18145924D01*
X2487733Y-18136400D01*
X2506781Y-18126876D01*
X2659162Y-18326876D02*
X2659162Y-18193543D01*
X2659162Y-18212590D02*
X2668686Y-18203067D01*
X2687733Y-18193543D01*
X2716305Y-18193543D01*
X2735352Y-18203067D01*
X2744876Y-18222114D01*
X2744876Y-18326876D01*
X2744876Y-18222114D02*
X2754400Y-18203067D01*
X2773448Y-18193543D01*
X2802019Y-18193543D01*
X2821067Y-18203067D01*
X2830590Y-18222114D01*
X2830590Y-18326876D01*
X2925828Y-18326876D02*
X2925828Y-18193543D01*
X2925828Y-18212590D02*
X2935352Y-18203067D01*
X2954400Y-18193543D01*
X2982971Y-18193543D01*
X3002019Y-18203067D01*
X3011543Y-18222114D01*
X3011543Y-18326876D01*
X3011543Y-18222114D02*
X3021067Y-18203067D01*
X3040114Y-18193543D01*
X3068686Y-18193543D01*
X3087733Y-18203067D01*
X3097257Y-18222114D01*
X3097257Y-18326876D01*
X3487733Y-18117352D02*
X3316305Y-18374495D01*
X3744876Y-18126876D02*
X3763924Y-18126876D01*
X3782971Y-18136400D01*
X3792495Y-18145924D01*
X3802019Y-18164971D01*
X3811543Y-18203067D01*
X3811543Y-18250686D01*
X3802019Y-18288781D01*
X3792495Y-18307829D01*
X3782971Y-18317352D01*
X3763924Y-18326876D01*
X3744876Y-18326876D01*
X3725828Y-18317352D01*
X3716305Y-18307829D01*
X3706781Y-18288781D01*
X3697257Y-18250686D01*
X3697257Y-18203067D01*
X3706781Y-18164971D01*
X3716305Y-18145924D01*
X3725828Y-18136400D01*
X3744876Y-18126876D01*
X3897257Y-18307829D02*
X3906781Y-18317352D01*
X3897257Y-18326876D01*
X3887733Y-18317352D01*
X3897257Y-18307829D01*
X3897257Y-18326876D01*
X4030590Y-18126876D02*
X4049638Y-18126876D01*
X4068686Y-18136400D01*
X4078209Y-18145924D01*
X4087733Y-18164971D01*
X4097257Y-18203067D01*
X4097257Y-18250686D01*
X4087733Y-18288781D01*
X4078209Y-18307829D01*
X4068686Y-18317352D01*
X4049638Y-18326876D01*
X4030590Y-18326876D01*
X4011543Y-18317352D01*
X4002019Y-18307829D01*
X3992495Y-18288781D01*
X3982971Y-18250686D01*
X3982971Y-18203067D01*
X3992495Y-18164971D01*
X4002019Y-18145924D01*
X4011543Y-18136400D01*
X4030590Y-18126876D01*
X4268686Y-18193543D02*
X4268686Y-18326876D01*
X4221067Y-18117352D02*
X4173448Y-18260210D01*
X4297257Y-18260210D01*
X4411543Y-18126876D02*
X4430590Y-18126876D01*
X4449638Y-18136400D01*
X4459162Y-18145924D01*
X4468686Y-18164971D01*
X4478210Y-18203067D01*
X4478210Y-18250686D01*
X4468686Y-18288781D01*
X4459162Y-18307829D01*
X4449638Y-18317352D01*
X4430590Y-18326876D01*
X4411543Y-18326876D01*
X4392495Y-18317352D01*
X4382971Y-18307829D01*
X4373448Y-18288781D01*
X4363924Y-18250686D01*
X4363924Y-18203067D01*
X4373448Y-18164971D01*
X4382971Y-18145924D01*
X4392495Y-18136400D01*
X4411543Y-18126876D01*
X4573448Y-18326876D02*
X4611543Y-18326876D01*
X4630590Y-18317352D01*
X4640114Y-18307829D01*
X4659162Y-18279257D01*
X4668686Y-18241162D01*
X4668686Y-18164971D01*
X4659162Y-18145924D01*
X4649638Y-18136400D01*
X4630590Y-18126876D01*
X4592495Y-18126876D01*
X4573448Y-18136400D01*
X4563924Y-18145924D01*
X4554400Y-18164971D01*
X4554400Y-18212590D01*
X4563924Y-18231638D01*
X4573448Y-18241162D01*
X4592495Y-18250686D01*
X4630590Y-18250686D01*
X4649638Y-18241162D01*
X4659162Y-18231638D01*
X4668686Y-18212590D01*
X4744876Y-18126876D02*
X4744876Y-18164971D01*
X4821067Y-18126876D02*
X4821067Y-18164971D01*
X5116305Y-18403067D02*
X5106781Y-18393543D01*
X5087733Y-18364971D01*
X5078210Y-18345924D01*
X5068686Y-18317352D01*
X5059162Y-18269733D01*
X5059162Y-18231638D01*
X5068686Y-18184019D01*
X5078210Y-18155448D01*
X5087733Y-18136400D01*
X5106781Y-18107829D01*
X5116305Y-18098305D01*
X5173448Y-18126876D02*
X5297257Y-18126876D01*
X5230590Y-18203067D01*
X5259162Y-18203067D01*
X5278210Y-18212590D01*
X5287733Y-18222114D01*
X5297257Y-18241162D01*
X5297257Y-18288781D01*
X5287733Y-18307829D01*
X5278210Y-18317352D01*
X5259162Y-18326876D01*
X5202019Y-18326876D01*
X5182971Y-18317352D01*
X5173448Y-18307829D01*
X5535352Y-18326876D02*
X5535352Y-18126876D01*
X5621067Y-18326876D02*
X5621067Y-18222114D01*
X5611543Y-18203067D01*
X5592495Y-18193543D01*
X5563924Y-18193543D01*
X5544876Y-18203067D01*
X5535352Y-18212590D01*
X5744876Y-18326876D02*
X5725828Y-18317352D01*
X5716305Y-18307829D01*
X5706781Y-18288781D01*
X5706781Y-18231638D01*
X5716305Y-18212590D01*
X5725828Y-18203067D01*
X5744876Y-18193543D01*
X5773448Y-18193543D01*
X5792495Y-18203067D01*
X5802019Y-18212590D01*
X5811543Y-18231638D01*
X5811543Y-18288781D01*
X5802019Y-18307829D01*
X5792495Y-18317352D01*
X5773448Y-18326876D01*
X5744876Y-18326876D01*
X5925828Y-18326876D02*
X5906781Y-18317352D01*
X5897257Y-18298305D01*
X5897257Y-18126876D01*
X6078209Y-18317352D02*
X6059162Y-18326876D01*
X6021067Y-18326876D01*
X6002019Y-18317352D01*
X5992495Y-18298305D01*
X5992495Y-18222114D01*
X6002019Y-18203067D01*
X6021067Y-18193543D01*
X6059162Y-18193543D01*
X6078209Y-18203067D01*
X6087733Y-18222114D01*
X6087733Y-18241162D01*
X5992495Y-18260210D01*
X6163924Y-18317352D02*
X6182971Y-18326876D01*
X6221067Y-18326876D01*
X6240114Y-18317352D01*
X6249638Y-18298305D01*
X6249638Y-18288781D01*
X6240114Y-18269733D01*
X6221067Y-18260210D01*
X6192495Y-18260210D01*
X6173448Y-18250686D01*
X6163924Y-18231638D01*
X6163924Y-18222114D01*
X6173448Y-18203067D01*
X6192495Y-18193543D01*
X6221067Y-18193543D01*
X6240114Y-18203067D01*
X6316305Y-18403067D02*
X6325828Y-18393543D01*
X6344876Y-18364971D01*
X6354400Y-18345924D01*
X6363924Y-18317352D01*
X6373448Y-18269733D01*
X6373448Y-18231638D01*
X6363924Y-18184019D01*
X6354400Y-18155448D01*
X6344876Y-18136400D01*
X6325828Y-18107829D01*
X6316305Y-18098305D01*
D17*
X1439400Y-18447900D02*
X1544400Y-18552900D01*
X1544400Y-18447900D02*
X1439400Y-18552900D01*
X1544400Y-18500400D02*
G75*
G03*
X1544400Y-18500400I-52500J0D01*
G01*
D11*
X1906781Y-18590876D02*
X1792495Y-18590876D01*
X1849638Y-18590876D02*
X1849638Y-18390876D01*
X1830590Y-18419448D01*
X1811543Y-18438495D01*
X1792495Y-18448019D01*
X1992495Y-18571829D02*
X2002019Y-18581352D01*
X1992495Y-18590876D01*
X1982971Y-18581352D01*
X1992495Y-18571829D01*
X1992495Y-18590876D01*
X2125829Y-18390876D02*
X2144876Y-18390876D01*
X2163924Y-18400400D01*
X2173448Y-18409924D01*
X2182971Y-18428971D01*
X2192495Y-18467067D01*
X2192495Y-18514686D01*
X2182971Y-18552781D01*
X2173448Y-18571829D01*
X2163924Y-18581352D01*
X2144876Y-18590876D01*
X2125829Y-18590876D01*
X2106781Y-18581352D01*
X2097257Y-18571829D01*
X2087733Y-18552781D01*
X2078209Y-18514686D01*
X2078209Y-18467067D01*
X2087733Y-18428971D01*
X2097257Y-18409924D01*
X2106781Y-18400400D01*
X2125829Y-18390876D01*
X2373448Y-18390876D02*
X2278210Y-18390876D01*
X2268686Y-18486114D01*
X2278210Y-18476590D01*
X2297257Y-18467067D01*
X2344876Y-18467067D01*
X2363924Y-18476590D01*
X2373448Y-18486114D01*
X2382971Y-18505162D01*
X2382971Y-18552781D01*
X2373448Y-18571829D01*
X2363924Y-18581352D01*
X2344876Y-18590876D01*
X2297257Y-18590876D01*
X2278210Y-18581352D01*
X2268686Y-18571829D01*
X2506781Y-18390876D02*
X2525829Y-18390876D01*
X2544876Y-18400400D01*
X2554400Y-18409924D01*
X2563924Y-18428971D01*
X2573448Y-18467067D01*
X2573448Y-18514686D01*
X2563924Y-18552781D01*
X2554400Y-18571829D01*
X2544876Y-18581352D01*
X2525829Y-18590876D01*
X2506781Y-18590876D01*
X2487733Y-18581352D01*
X2478210Y-18571829D01*
X2468686Y-18552781D01*
X2459162Y-18514686D01*
X2459162Y-18467067D01*
X2468686Y-18428971D01*
X2478210Y-18409924D01*
X2487733Y-18400400D01*
X2506781Y-18390876D01*
X2659162Y-18590876D02*
X2659162Y-18457543D01*
X2659162Y-18476590D02*
X2668686Y-18467067D01*
X2687733Y-18457543D01*
X2716305Y-18457543D01*
X2735352Y-18467067D01*
X2744876Y-18486114D01*
X2744876Y-18590876D01*
X2744876Y-18486114D02*
X2754400Y-18467067D01*
X2773448Y-18457543D01*
X2802019Y-18457543D01*
X2821067Y-18467067D01*
X2830590Y-18486114D01*
X2830590Y-18590876D01*
X2925828Y-18590876D02*
X2925828Y-18457543D01*
X2925828Y-18476590D02*
X2935352Y-18467067D01*
X2954400Y-18457543D01*
X2982971Y-18457543D01*
X3002019Y-18467067D01*
X3011543Y-18486114D01*
X3011543Y-18590876D01*
X3011543Y-18486114D02*
X3021067Y-18467067D01*
X3040114Y-18457543D01*
X3068686Y-18457543D01*
X3087733Y-18467067D01*
X3097257Y-18486114D01*
X3097257Y-18590876D01*
X3487733Y-18381352D02*
X3316305Y-18638495D01*
X3744876Y-18390876D02*
X3763924Y-18390876D01*
X3782971Y-18400400D01*
X3792495Y-18409924D01*
X3802019Y-18428971D01*
X3811543Y-18467067D01*
X3811543Y-18514686D01*
X3802019Y-18552781D01*
X3792495Y-18571829D01*
X3782971Y-18581352D01*
X3763924Y-18590876D01*
X3744876Y-18590876D01*
X3725828Y-18581352D01*
X3716305Y-18571829D01*
X3706781Y-18552781D01*
X3697257Y-18514686D01*
X3697257Y-18467067D01*
X3706781Y-18428971D01*
X3716305Y-18409924D01*
X3725828Y-18400400D01*
X3744876Y-18390876D01*
X3897257Y-18571829D02*
X3906781Y-18581352D01*
X3897257Y-18590876D01*
X3887733Y-18581352D01*
X3897257Y-18571829D01*
X3897257Y-18590876D01*
X4030590Y-18390876D02*
X4049638Y-18390876D01*
X4068686Y-18400400D01*
X4078209Y-18409924D01*
X4087733Y-18428971D01*
X4097257Y-18467067D01*
X4097257Y-18514686D01*
X4087733Y-18552781D01*
X4078209Y-18571829D01*
X4068686Y-18581352D01*
X4049638Y-18590876D01*
X4030590Y-18590876D01*
X4011543Y-18581352D01*
X4002019Y-18571829D01*
X3992495Y-18552781D01*
X3982971Y-18514686D01*
X3982971Y-18467067D01*
X3992495Y-18428971D01*
X4002019Y-18409924D01*
X4011543Y-18400400D01*
X4030590Y-18390876D01*
X4268686Y-18457543D02*
X4268686Y-18590876D01*
X4221067Y-18381352D02*
X4173448Y-18524210D01*
X4297257Y-18524210D01*
X4478210Y-18590876D02*
X4363924Y-18590876D01*
X4421067Y-18590876D02*
X4421067Y-18390876D01*
X4402019Y-18419448D01*
X4382971Y-18438495D01*
X4363924Y-18448019D01*
X4544876Y-18390876D02*
X4668686Y-18390876D01*
X4602019Y-18467067D01*
X4630590Y-18467067D01*
X4649638Y-18476590D01*
X4659162Y-18486114D01*
X4668686Y-18505162D01*
X4668686Y-18552781D01*
X4659162Y-18571829D01*
X4649638Y-18581352D01*
X4630590Y-18590876D01*
X4573448Y-18590876D01*
X4554400Y-18581352D01*
X4544876Y-18571829D01*
X4744876Y-18390876D02*
X4744876Y-18428971D01*
X4821067Y-18390876D02*
X4821067Y-18428971D01*
X5116305Y-18667067D02*
X5106781Y-18657543D01*
X5087733Y-18628971D01*
X5078210Y-18609924D01*
X5068686Y-18581352D01*
X5059162Y-18533733D01*
X5059162Y-18495638D01*
X5068686Y-18448019D01*
X5078210Y-18419448D01*
X5087733Y-18400400D01*
X5106781Y-18371829D01*
X5116305Y-18362305D01*
X5173448Y-18390876D02*
X5297257Y-18390876D01*
X5230590Y-18467067D01*
X5259162Y-18467067D01*
X5278210Y-18476590D01*
X5287733Y-18486114D01*
X5297257Y-18505162D01*
X5297257Y-18552781D01*
X5287733Y-18571829D01*
X5278210Y-18581352D01*
X5259162Y-18590876D01*
X5202019Y-18590876D01*
X5182971Y-18581352D01*
X5173448Y-18571829D01*
X5535352Y-18590876D02*
X5535352Y-18390876D01*
X5621067Y-18590876D02*
X5621067Y-18486114D01*
X5611543Y-18467067D01*
X5592495Y-18457543D01*
X5563924Y-18457543D01*
X5544876Y-18467067D01*
X5535352Y-18476590D01*
X5744876Y-18590876D02*
X5725828Y-18581352D01*
X5716305Y-18571829D01*
X5706781Y-18552781D01*
X5706781Y-18495638D01*
X5716305Y-18476590D01*
X5725828Y-18467067D01*
X5744876Y-18457543D01*
X5773448Y-18457543D01*
X5792495Y-18467067D01*
X5802019Y-18476590D01*
X5811543Y-18495638D01*
X5811543Y-18552781D01*
X5802019Y-18571829D01*
X5792495Y-18581352D01*
X5773448Y-18590876D01*
X5744876Y-18590876D01*
X5925828Y-18590876D02*
X5906781Y-18581352D01*
X5897257Y-18562305D01*
X5897257Y-18390876D01*
X6078209Y-18581352D02*
X6059162Y-18590876D01*
X6021067Y-18590876D01*
X6002019Y-18581352D01*
X5992495Y-18562305D01*
X5992495Y-18486114D01*
X6002019Y-18467067D01*
X6021067Y-18457543D01*
X6059162Y-18457543D01*
X6078209Y-18467067D01*
X6087733Y-18486114D01*
X6087733Y-18505162D01*
X5992495Y-18524210D01*
X6163924Y-18581352D02*
X6182971Y-18590876D01*
X6221067Y-18590876D01*
X6240114Y-18581352D01*
X6249638Y-18562305D01*
X6249638Y-18552781D01*
X6240114Y-18533733D01*
X6221067Y-18524210D01*
X6192495Y-18524210D01*
X6173448Y-18514686D01*
X6163924Y-18495638D01*
X6163924Y-18486114D01*
X6173448Y-18467067D01*
X6192495Y-18457543D01*
X6221067Y-18457543D01*
X6240114Y-18467067D01*
X6316305Y-18667067D02*
X6325828Y-18657543D01*
X6344876Y-18628971D01*
X6354400Y-18609924D01*
X6363924Y-18581352D01*
X6373448Y-18533733D01*
X6373448Y-18495638D01*
X6363924Y-18448019D01*
X6354400Y-18419448D01*
X6344876Y-18400400D01*
X6325828Y-18371829D01*
X6316305Y-18362305D01*
M02*
