M48
; DRILL file {KiCad 6.0.2+dfsg-1} date czw, 10 lis 2022, 09:56:26
; FORMAT={-:-/ absolute / metric / decimal}
; #@! TF.CreationDate,2022-11-10T09:56:26+01:00
; #@! TF.GenerationSoftware,Kicad,Pcbnew,6.0.2+dfsg-1
; #@! TF.FileFunction,Plated,1,2,PTH
FMAT,2
METRIC
; #@! TA.AperFunction,Plated,PTH,ViaDrill
T1C0.400
; #@! TA.AperFunction,Plated,PTH,ComponentDrill
T2C0.710
; #@! TA.AperFunction,Plated,PTH,ComponentDrill
T3C1.000
; #@! TA.AperFunction,Plated,PTH,ComponentDrill
T4C1.020
; #@! TA.AperFunction,Plated,PTH,ComponentDrill
T5C1.040
; #@! TA.AperFunction,Plated,PTH,ComponentDrill
T6C1.050
%
G90
G05
T1
X31.242Y-66.294
X34.798Y-65.786
X41.402Y-64.77
X47.498Y-136.652
X54.61Y-46.482
X54.61Y-72.898
X60.96Y-77.216
X67.31Y-81.788
X67.31Y-139.7
X68.326Y-151.638
X68.326Y-155.194
X71.628Y-88.392
X73.66Y-150.876
X74.676Y-87.63
X77.216Y-77.47
X77.216Y-80.01
X77.216Y-82.55
X77.216Y-85.09
X78.486Y-46.99
X81.534Y-48.26
T2
X82.68Y-28.194
X82.68Y-30.734
X82.68Y-33.274
X82.68Y-35.814
T3
X57.912Y-86.624
X57.912Y-94.224
X70.358Y-136.652
X70.358Y-139.192
X75.692Y-136.652
X75.692Y-139.192
X83.82Y-43.693
X83.82Y-46.233
X83.82Y-48.773
X83.82Y-51.313
X83.82Y-53.853
X83.82Y-61.478
X83.82Y-64.018
X83.82Y-66.558
X83.82Y-69.098
X83.82Y-71.638
X83.836Y-77.47
X83.836Y-80.01
X83.836Y-82.55
X83.836Y-85.09
X83.836Y-87.63
X83.836Y-95.25
X83.836Y-97.79
X83.836Y-100.33
X83.836Y-102.87
X83.836Y-105.41
T4
X50.8Y-18.034
X50.8Y-20.574
X50.8Y-23.114
X50.8Y-25.654
X50.8Y-28.194
X50.8Y-30.734
X50.8Y-33.274
X50.8Y-35.814
X50.8Y-38.354
X50.8Y-40.894
X50.8Y-43.434
X50.8Y-45.974
X50.8Y-48.514
X50.8Y-51.054
X50.8Y-53.594
X50.8Y-56.134
X50.8Y-58.674
X50.8Y-61.214
X50.8Y-63.754
X50.8Y-66.294
X68.58Y-18.034
X68.58Y-20.574
X68.58Y-23.114
X68.58Y-25.654
X68.58Y-28.194
X68.58Y-30.734
X68.58Y-33.274
X68.58Y-35.814
X68.58Y-38.354
X68.58Y-40.894
X68.58Y-43.434
X68.58Y-45.974
X68.58Y-48.514
X68.58Y-51.054
X68.58Y-53.594
X68.58Y-56.134
X68.58Y-58.674
X68.58Y-61.214
X68.58Y-63.754
X68.58Y-66.294
T5
X52.578Y-150.876
X55.118Y-150.876
X57.658Y-150.876
T6
X32.064Y-158.455
X35.814Y-146.805
X39.564Y-158.455
T0
M30
